<svg width="391" height="357" viewBox="0 0 391 357" fill="none" xmlns="http://www.w3.org/2000/svg">
<path fill-rule="evenodd" clip-rule="evenodd" d="M282.574 84.2026C289.382 68.7305 296.398 69.6077 296.398 69.6077C303.353 69.3889 305.329 66.365 305.897 64.5409C306.011 64.1696 306.021 63.7743 305.927 63.3977C305.832 63.0211 305.637 62.6774 305.362 62.4036C285.514 42.8213 274.24 42.28 263.388 41.759C258.976 41.5472 254.634 41.3387 249.813 39.8557C237.798 36.1531 229.414 25.0391 223.246 16.8617L223.246 16.8615C221.175 14.117 219.354 11.7032 217.73 10.0115C222.632 14.1292 229.098 20.2127 238.126 28.7069L238.126 28.707L238.126 28.707L238.132 28.7125C241.276 31.6706 244.731 34.921 248.538 38.4824C248.538 38.4824 294.775 37.4846 315.733 71.081C315.733 71.081 306.752 95.0379 350.993 115.656C350.993 115.656 367.625 117.652 357.312 163.889C357.312 163.889 371.949 186.84 384.921 191.166C384.921 191.166 395.898 196.825 388.249 219.773C380.6 242.721 381.928 260.022 381.928 260.022C381.928 260.022 349.329 321.896 295.109 349.503C295.109 349.503 244.215 348.171 227.577 324.225C227.577 324.225 223.585 323.893 218.262 329.547C212.939 335.2 159.39 308.91 158.726 301.255L151.407 304.581C151.407 304.581 147.749 349.82 118.142 355.475C118.142 355.481 109.789 360.653 108.143 351.914C108.143 351.914 85.2779 343.521 61.9566 323.982L2.07732 284.277C2.07732 284.277 -7.37721 259.066 14.0539 235.115C14.0539 235.115 22.2465 217.466 19.0962 194.146C15.946 170.827 45.5678 162.002 45.5678 162.002C45.5678 162.002 104.185 115.358 98.5127 103.383C97.9428 102.18 97.2139 100.818 96.4084 99.3129L96.4079 99.3119L96.4077 99.3116L96.4076 99.3115C89.1952 85.8343 75.8451 60.8881 115.532 35.9434C133.685 24.5334 148.957 16.6441 160.645 11.3099C150.831 16.8706 141.628 22.8522 138.179 25.0947L138.177 25.0959L138.169 25.1006C137.531 25.5159 137.09 25.802 136.882 25.9324C135.459 26.8171 135.212 27.9904 135.271 28.8751C135.296 29.2864 135.197 29.6958 134.986 30.0502C134.776 30.4046 134.465 30.6879 134.092 30.8634L114.945 40.1387C114.915 40.1524 114.889 40.1662 114.862 40.1807C114.845 40.1902 114.828 40.2 114.809 40.2104C92.8289 52.7281 93.0937 66.7893 93.2832 76.8516C93.3384 79.7859 93.3873 82.3801 92.8762 84.4969C90.771 93.2233 126.156 117.333 131.132 120.676C131.51 120.925 131.959 121.045 132.411 121.015C151.644 119.959 153.146 136.144 152.799 143.754C152.779 144.151 152.873 144.546 153.07 144.893C153.266 145.239 153.557 145.523 153.908 145.71C154.26 145.897 154.657 145.981 155.054 145.951C155.451 145.92 155.832 145.778 156.151 145.54C173.745 132.166 211.154 63.2449 205.153 64.4447C199.217 65.6312 192.203 82.6067 191.072 85.4099C190.966 85.6714 190.808 85.9088 190.608 86.1078L186.358 90.3578C185.967 90.7533 185.748 91.2867 185.748 91.8424V94.257C185.748 94.7779 185.556 95.2803 185.207 95.6676C184.859 96.055 184.38 96.2997 183.862 96.3546L181.393 96.6282C180.963 96.6775 180.559 96.8598 180.238 97.1497C179.918 97.4395 179.695 97.8224 179.602 98.2448C175.752 114.837 165.355 119.119 165.355 119.119C141.088 132.709 96.4358 90.6446 104.202 92.2631C104.875 92.4035 106.552 92.8269 108.91 93.4222L108.912 93.4226L108.912 93.4227C118.686 95.8905 140.156 101.311 150.322 101.776C165.988 102.495 164.385 95.4982 164.385 95.4982C168.59 86.1154 121.672 63.4694 118.761 63.1431C115.85 62.8167 121.676 51.489 121.998 57.3142C122.321 63.1393 129.438 64.107 141.411 65.0804C151.557 65.9052 169.138 89.039 173.281 94.4911C174.027 95.4727 174.337 95.8812 174.09 95.4831C172.817 93.4458 177.563 84.18 179.638 80.3374C179.888 79.8752 179.955 79.3364 179.828 78.8268C179.701 78.3173 179.387 77.8737 178.95 77.5833L177.65 76.7174C175.506 75.2941 173.714 67.9047 172.917 64.6208C172.805 64.1599 172.713 63.7798 172.642 63.5085C173.771 65.0801 180.27 69.4425 182.624 70.9904C182.889 71.167 183.191 71.2803 183.507 71.3215C183.823 71.3627 184.143 71.3308 184.445 71.2281C195.442 67.3912 198.07 58.7874 198.576 56.5539C198.652 56.2234 198.649 55.8795 198.566 55.5504C195.288 42.5948 189.636 37.8222 187.887 36.613C187.568 36.3971 187.195 36.2737 186.81 36.2565C181.327 35.9604 178.105 33.6967 176.277 31.5972C175.989 31.2706 175.809 30.8634 175.762 30.431C175.714 29.9986 175.801 29.562 176.01 29.1806C176.219 28.7991 176.541 28.4915 176.931 28.2995C177.322 28.1074 177.762 28.0404 178.191 28.1074C189.042 29.7466 201.467 38.6711 206.487 42.5627C206.734 42.7554 207.021 42.8902 207.327 42.9574C207.633 43.0246 207.95 43.0224 208.255 42.9509C208.56 42.8794 208.845 42.7405 209.089 42.5444C209.333 42.3482 209.53 42.0999 209.666 41.8176C211.177 38.6126 213.374 37.0922 214.695 36.4263C215.023 36.2648 215.388 36.1934 215.752 36.2196C216.117 36.2458 216.468 36.3686 216.77 36.5753C223.647 41.2796 224.595 44.8982 225.419 48.0415C225.892 49.8493 226.325 51.4998 227.82 53.1094C230.088 55.5532 224.733 72.0205 219.571 87.8918C215.163 101.448 210.896 114.569 211.641 118.146C213.101 125.156 197.693 179.099 194.675 189.529C194.534 190.023 194.578 190.551 194.797 191.016C195.016 191.48 195.396 191.85 195.867 192.056C214.738 200.383 222.7 190.864 227.242 185.435C228.663 183.735 229.75 182.436 230.731 182.211C233.838 181.493 234.29 186.457 234.315 189.078C234.321 189.577 234.505 190.058 234.834 190.433C235.163 190.809 235.615 191.056 236.109 191.128C243.979 192.277 253.482 181.319 259.843 172.338C263.608 167.022 266.004 160.842 266.604 154.355C266.865 151.75 267.306 149.165 267.925 146.621C270.513 135.612 284.749 119.766 284.749 119.766C279.941 119.766 267.719 139.468 260.949 151.029C259.743 153.087 256.578 151.876 257.061 149.539C259.317 138.598 265.087 123.377 268.506 114.862C269.392 112.649 266.453 110.863 264.944 112.704C261.76 116.57 259.524 122.276 257.606 127.17L257.606 127.17C255.236 133.216 253.353 138.021 250.77 136.585C245.728 133.784 246.748 125.65 247.112 123.515C247.17 123.179 247.31 122.863 247.52 122.594L276.287 85.2571C276.461 85.032 276.68 84.8444 276.928 84.7056C277.177 84.5668 277.451 84.4797 277.734 84.4494C278.018 84.4191 278.304 84.4463 278.577 84.5293C278.849 84.6123 279.102 84.7495 279.32 84.9326L279.367 84.9722C279.613 85.1774 279.904 85.3222 280.216 85.3952C280.528 85.4681 280.852 85.4672 281.164 85.3924C281.475 85.3176 281.765 85.1711 282.01 84.9646C282.255 84.758 282.448 84.4971 282.574 84.2026ZM196.889 3.62115C191.595 3.21423 186.754 1.27742 186.754 1.27742C186.754 1.27742 177.366 3.67948 160.645 11.3099C171.601 5.1029 183.319 -0.579749 188.651 0.0475007C194.841 0.77561 195.295 1.50551 195.891 2.46502C196.109 2.81597 196.346 3.19763 196.889 3.62115ZM214.052 7.07598C211.721 5.76815 209.893 5.88473 207.786 6.01909C205.773 6.14747 203.505 6.2921 200.3 5.22561C198.502 4.62721 197.501 4.09768 196.889 3.62115C198.994 3.78288 201.169 3.70296 203.141 3.1638C206.073 2.36202 209.152 3.41764 214.052 7.07598ZM214.052 7.07598C215.175 7.91469 216.395 8.89021 217.73 10.0115C217.413 9.68188 217.104 9.37967 216.802 9.10777C215.796 8.20217 214.891 7.54678 214.052 7.07598ZM112.862 352.623H116.003C116.385 352.624 116.753 352.48 117.033 352.22C117.313 351.96 117.485 351.604 117.512 351.223L117.967 344.849C118.279 340.499 120.221 336.426 123.405 333.446C129.423 327.787 139.094 316.819 141.413 302.905C144.837 282.333 100.343 210.331 43.7663 224.906C3.00353 235.405 3.13746 258.361 6.39901 270.367C7.00064 272.595 8.26496 274.588 10.0245 276.081C11.7839 277.574 13.9556 278.497 16.2516 278.728C16.4619 278.749 16.6743 278.725 16.8749 278.659C17.0756 278.592 17.26 278.484 17.4164 278.342C17.5727 278.2 17.6974 278.026 17.7824 277.833C17.8673 277.639 17.9107 277.43 17.9097 277.219C17.821 272.054 18.3228 256.469 27.1661 251.036C27.4155 250.885 27.7032 250.81 27.9944 250.819C28.2857 250.828 28.5681 250.921 28.8074 251.087C29.0468 251.254 29.233 251.486 29.3434 251.755C29.4538 252.025 29.4838 252.321 29.4298 252.607L27.5434 262.773C27.5023 262.993 27.5107 263.22 27.5681 263.437C27.6256 263.653 27.7305 263.854 27.8754 264.025L40.9292 279.384C41.0638 279.542 41.2295 279.671 41.416 279.761C41.6025 279.852 41.8058 279.904 42.0131 279.913C42.2204 279.922 42.4273 279.888 42.6208 279.813C42.8144 279.738 42.9905 279.624 43.1381 279.479C43.3605 279.261 43.645 279.117 43.9524 279.067C44.2598 279.017 44.5752 279.063 44.8552 279.2C45.1352 279.336 45.3661 279.556 45.5163 279.829C45.6665 280.101 45.7286 280.414 45.6941 280.724C44.9396 287.594 45.2263 300.342 56.6842 305.258C56.9092 305.352 57.1538 305.39 57.3968 305.368C57.6397 305.346 57.8736 305.265 58.0781 305.132C58.2826 304.999 58.4515 304.818 58.5702 304.605C58.6889 304.392 58.7538 304.153 58.7592 303.909C58.9177 298.144 61.2115 282.808 81.458 285.717C81.6798 285.749 81.8921 285.829 82.0805 285.951L109.065 303.411C109.269 303.543 109.437 303.722 109.557 303.933C109.676 304.145 109.743 304.381 109.752 304.624L111.372 351.172C111.387 351.559 111.55 351.925 111.828 352.195C112.105 352.465 112.475 352.618 112.862 352.623ZM128.734 168.601L133.558 162.461C128.302 150.179 124.794 120.789 124.794 120.789C117.335 117.71 102.861 105.438 102.861 105.438C102.861 105.438 66.0161 153.674 44.0832 165.526C22.1503 177.378 22.1503 204.574 22.1503 204.574L26.9756 197.117C33.9948 201.499 18.204 232.204 18.204 232.204C43.6437 217.29 61.6284 219.922 61.6284 219.922C61.6284 219.922 64.6919 209.396 69.0852 208.956C73.4786 208.517 89.7015 223.87 89.7015 223.87L101.984 221.676C85.3156 208.517 73.9144 180.012 80.4903 179.567C87.0662 179.121 88.3867 199.306 88.3867 199.306L110.761 220.807L126.552 185.277C119.529 182.645 125.231 140.535 125.231 140.535L128.734 168.601ZM155.063 159.211L155.474 167.45C155.474 167.45 116.752 214.821 153.003 237.478C189.253 260.136 199.138 256.427 225.089 213.585C225.089 213.585 198.313 261.781 179.778 270.845C179.778 270.845 143.116 233.358 133.23 234.594C123.343 235.83 115.105 234.183 115.105 234.183L110.161 238.71C110.161 238.71 121.279 186.801 155.063 159.211ZM193.367 267.958L164.532 297.197C164.532 297.197 161.244 299.263 167.835 299.676C173.101 300.006 174.903 300.827 175.414 301.061C175.543 301.119 175.59 301.141 175.59 301.108C175.59 300.876 177.716 293.087 187.195 291.027C196.674 288.967 221.386 316.978 221.386 316.978C246.101 319.449 285.234 253.13 285.234 253.13C215.2 333.867 193.367 267.958 193.367 267.958ZM357.726 267.687C357.726 267.687 373.382 259.036 356.079 282.516C356.079 282.516 370.496 276.749 371.321 261.096C371.321 261.096 372.143 255.329 376.674 254.916C381.205 254.503 380.383 284.987 304.175 336.066C304.175 336.066 293.466 341.01 286.462 342.246C283.409 342.784 280.749 341.68 277.252 340.228C272.725 338.348 266.798 335.887 256.804 335.655C239.091 335.244 228.794 319.998 228.794 319.998L234.56 314.642C234.56 314.642 272.457 339.354 293.466 331.944C314.475 324.535 360.61 271.807 357.726 267.687ZM325.233 262.724C310.302 283.989 298.539 287.156 298.539 287.156C308.493 275.845 317.089 254.58 317.085 254.58C337.176 224.11 336.203 215.941 335.44 209.535C335.173 207.285 334.931 205.253 335.636 202.548C338.351 192.143 345.591 186.256 350.114 183.547C354.638 180.838 353.734 171.783 353.734 171.783C373.113 184.598 366.578 202.381 363.372 211.106C361.937 215.011 361.168 217.102 363.687 216.123C371.832 212.955 382.69 192.596 382.69 192.596C388.119 195.763 364.592 232.412 364.592 232.412L350.114 233.768C350.114 233.768 340.163 241.459 325.233 262.724ZM260.687 250.272C260.687 250.272 296.458 209.081 311.996 169.697C311.996 169.697 317.416 171.502 319.945 167.528C322.475 163.553 321.752 171.866 321.752 171.866C321.752 171.866 361.134 144.765 354.264 125.256C354.264 125.256 345.964 117.669 339.088 131.4C339.088 131.4 335.836 132.122 339.811 122.004C339.811 122.004 339.088 110.804 336.559 110.804C334.082 110.804 309.781 92.4437 311.144 87.2672C311.227 87.0663 311.266 86.9548 311.266 86.9548C311.213 87.0528 311.173 87.157 311.144 87.2672C310.61 88.5575 308.273 93.5368 302.966 96.3509C301.223 97.2754 301.463 98.8131 301.945 101.894C303.159 109.65 305.902 127.185 282.369 169.339C253.536 220.982 253.873 222.338 258.535 241.133C259.19 243.773 259.93 246.757 260.687 250.272ZM127.97 54.4846C127.97 54.4846 129.925 45.6903 147.517 48.9462C147.517 48.9462 168.039 58.0687 170.644 68.4928C170.644 68.4928 150.773 51.8795 147.517 51.8795C146.558 51.8795 145.202 52.53 143.549 53.3225C139.595 55.2195 133.943 57.9306 127.97 54.4846ZM70.4566 291.929C62.4131 293.534 64.0222 309.945 64.0222 309.945C91.9533 319.972 102.17 336.553 105.976 342.731C107.3 344.879 107.848 345.769 108.097 344.691C109.063 340.509 105.202 310.589 105.202 310.589L70.4566 291.929Z" fill="#A47C6F"/>
</svg>
