<svg width="32" height="32" viewBox="0 0 32 32" fill="none" xmlns="http://www.w3.org/2000/svg">
<path fill-rule="evenodd" clip-rule="evenodd" d="M0 5.9V0C0 2.65363 1.61506 4.93008 3.91583 5.9H25.6V6.9H3.91583C1.61506 7.86992 0 10.1464 0 12.8V6.9V5.9ZM32 15.5V9.60001C32 12.2536 30.3849 14.5301 28.0842 15.5L6.4 15.5V16.5L28.0842 16.5C30.3849 17.4699 32 19.7464 32 22.4L32 16.5V15.5ZM0 25.1V19.2C0 21.8536 1.61506 24.1301 3.91583 25.1H25.6V26.1H3.91582C1.61506 27.0699 0 29.3464 0 32V26.1V25.1Z" fill="#493D08"/>
</svg>
