<svg class="subtitle" width="698" height="18" viewBox="0 0 698 18" fill="none" xmlns="http://www.w3.org/2000/svg">
<path d="M5.72524 6.328H8.92224V5.431H5.72524V1.544H5.54124C4.52924 3.545 2.89624 5.155 0.52724 6.098V6.328H2.16024V12.538C2.16024 16.195 3.49424 17.667 9.45124 17V16.816C6.27724 16.126 5.72524 15.16 5.72524 12.745V6.328ZM67.3388 9.824C67.3388 5.684 64.4868 5.155 62.1178 5.155C60.3238 5.155 58.6448 5.569 57.5408 6.029L58.5988 10.284L58.8058 10.238C58.9898 7.11 60.2548 6.098 61.9798 6.098C63.1528 6.098 63.7508 6.535 63.7508 7.432C63.7508 10.905 56.5978 9.824 56.5978 14.286C56.5978 16.149 57.8398 17.276 59.7488 17.276C61.5428 17.276 62.9228 16.632 63.7508 15.505V17H68.9948V16.816C67.6838 16.103 67.3388 15.735 67.3388 14.953V9.824ZM61.5658 15.827C60.5308 15.827 60.0478 15.045 60.0478 13.711C60.0478 11.066 62.5778 11.089 63.7508 9.525V13.918C63.3368 15.206 62.4628 15.827 61.5658 15.827ZM121.174 6.328H124.371V5.431H121.174V1.544H120.99C119.978 3.545 118.345 5.155 115.976 6.098V6.328H117.609V12.538C117.609 16.195 118.943 17.667 124.9 17V16.816C121.726 16.126 121.174 15.16 121.174 12.745V6.328ZM176.9 6.328H180.097V5.431H176.9V1.544H176.716C175.704 3.545 174.071 5.155 171.702 6.098V6.328H173.335V12.538C173.335 16.195 174.669 17.667 180.626 17V16.816C177.452 16.126 176.9 15.16 176.9 12.745V6.328ZM233.924 17.276C229.968 17.276 227.484 14.907 227.484 11.204C227.484 7.593 229.968 5.155 233.924 5.155C237.88 5.155 240.341 7.593 240.341 11.204C240.341 14.907 237.88 17.276 233.924 17.276ZM233.924 6.098C232.199 6.098 231.21 7.892 231.21 11.204C231.21 14.562 232.199 16.333 233.924 16.333C235.626 16.333 236.638 14.562 236.638 11.204C236.638 7.892 235.626 6.098 233.924 6.098ZM294.838 17.276C290.882 17.276 288.398 14.907 288.398 11.204C288.398 7.593 290.882 5.155 294.838 5.155C298.794 5.155 301.255 7.593 301.255 11.204C301.255 14.907 298.794 17.276 294.838 17.276ZM294.838 6.098C293.113 6.098 292.124 7.892 292.124 11.204C292.124 14.562 293.113 16.333 294.838 16.333C296.54 16.333 297.552 14.562 297.552 11.204C297.552 7.892 296.54 6.098 294.838 6.098ZM352.188 11.457C353.315 11.457 354.235 10.56 354.235 9.387C354.235 8.26 353.315 7.363 352.188 7.363C351.015 7.363 350.118 8.26 350.118 9.387C350.118 10.56 351.015 11.457 352.188 11.457ZM413.619 9.824C413.619 5.684 410.767 5.155 408.398 5.155C406.604 5.155 404.925 5.569 403.821 6.029L404.879 10.284L405.086 10.238C405.27 7.11 406.535 6.098 408.26 6.098C409.433 6.098 410.031 6.535 410.031 7.432C410.031 10.905 402.878 9.824 402.878 14.286C402.878 16.149 404.12 17.276 406.029 17.276C407.823 17.276 409.203 16.632 410.031 15.505V17H415.275V16.816C413.964 16.103 413.619 15.735 413.619 14.953V9.824ZM407.846 15.827C406.811 15.827 406.328 15.045 406.328 13.711C406.328 11.066 408.858 11.089 410.031 9.525V13.918C409.617 15.206 408.743 15.827 407.846 15.827ZM471.089 5.224C469.824 5.224 468.582 5.753 467.892 7.547V5.431H462.671V5.615C463.959 6.098 464.327 6.604 464.327 7.455V14.953C464.327 15.781 463.982 16.149 462.671 16.816V17H470.215V16.816C468.605 16.195 467.892 15.827 467.892 14.815V10.261C468.191 7.524 469.088 6.811 469.939 6.811C470.928 6.811 471.457 8.03 470.882 11.066L471.089 11.112L473.32 5.983C472.768 5.546 472.009 5.224 471.089 5.224ZM525.157 6.328H528.354V5.431H525.157V1.544H524.973C523.961 3.545 522.328 5.155 519.959 6.098V6.328H521.592V12.538C521.592 16.195 522.926 17.667 528.883 17V16.816C525.709 16.126 525.157 15.16 525.157 12.745V6.328ZM579.456 4.373C580.56 4.373 581.434 3.499 581.434 2.372C581.434 1.268 580.56 0.370999 579.456 0.370999C578.329 0.370999 577.432 1.268 577.432 2.372C577.432 3.499 578.329 4.373 579.456 4.373ZM582.998 17V16.793C581.687 16.103 581.319 15.758 581.319 14.907V5.431H576.098V5.615C577.386 6.305 577.754 6.65 577.754 7.524V14.907C577.754 15.758 577.409 16.103 576.098 16.793V17H582.998ZM630.843 8.605C630.843 11.112 632.453 11.986 635.489 12.653C637.674 13.159 638.87 13.527 638.87 14.654C638.87 15.873 637.651 16.356 635.903 16.356C633.488 16.356 631.717 15.206 631.418 12.147L631.211 12.124L630.521 16.425C631.487 16.862 633.488 17.276 635.834 17.276C637.812 17.276 641.239 16.862 641.216 13.412C641.193 10.675 639.192 9.847 636.639 9.272C634.546 8.835 633.327 8.49 633.327 7.432C633.327 6.374 634.339 6.075 635.742 6.075C637.398 6.075 639.192 6.696 639.468 9.548L639.675 9.571L640.319 5.983C639.353 5.546 637.697 5.155 635.742 5.155C633.81 5.155 630.843 5.615 630.843 8.605ZM693.749 6.328H696.946V5.431H693.749V1.544H693.565C692.553 3.545 690.92 5.155 688.551 6.098V6.328H690.184V12.538C690.184 16.195 691.518 17.667 697.475 17V16.816C694.301 16.126 693.749 15.16 693.749 12.745V6.328Z" fill="#A47C6F"/>
</svg>
