<svg width="23" height="24" viewBox="0 0 23 24" fill="none" xmlns="http://www.w3.org/2000/svg">
<path fill-rule="evenodd" clip-rule="evenodd" d="M22.1739 21.0359C20.6681 19.0787 15.4345 16.8714 11.3593 16.8714C7.28405 16.8714 2.04849 19.0781 0.544617 21.0359C-0.386078 22.2452 0.49945 24 2.02559 24H20.6936C22.2191 24 23.1046 22.2471 22.1739 21.0359Z" />
<path fill-rule="evenodd" clip-rule="evenodd" d="M6.28789 9.79298C6.15366 10.7674 5.99525 11.2149 6.95903 11.5751C7.9228 11.9354 9.26191 11.2919 8.82487 12.8965C8.73072 13.2427 8.61049 13.6234 9.00745 13.8512C10.2664 14.5711 12.4535 14.5711 13.715 13.8512C14.1113 13.6246 13.9917 13.244 13.8976 12.8965C13.4605 11.2919 14.7939 11.9418 15.7628 11.5751C16.7316 11.2085 16.5688 10.7643 16.4346 9.79298C16.3277 9.03811 16.8302 8.66258 17.0783 7.98727C17.6585 6.40878 17.6553 3.92394 16.612 2.5695C13.9726 -0.856712 8.74726 -0.856712 6.10722 2.5695C5.06138 3.92394 5.06138 6.40878 5.64092 7.98727C5.88838 8.66258 6.39221 9.03811 6.28789 9.79298ZM13.6743 7.20503C14.7755 7.3075 15.6133 7.74604 15.4822 8.94518C15.3607 10.059 13.8804 9.9101 13.124 9.64086C12.6501 9.47283 12.2302 9.13613 12.2022 8.60912C12.1469 7.55446 12.6316 7.10765 13.6743 7.20503ZM10.5737 11.1958C10.6735 10.8464 10.9598 10.2818 11.1087 9.94065C11.1876 9.75925 11.5184 9.75352 11.603 9.94065C11.7595 10.2793 12.0483 10.8489 12.1456 11.1983C12.1946 11.3683 12.0686 11.4994 11.9128 11.5338C11.8378 11.5468 11.7608 11.5398 11.6895 11.5134C11.4255 11.4256 11.2792 11.4268 11.0304 11.5134C10.9592 11.5401 10.882 11.5471 10.8071 11.5338C10.6513 11.4969 10.5253 11.3657 10.5737 11.1958ZM9.04689 7.20439C10.0895 7.10765 10.5737 7.55446 10.5183 8.60912C10.491 9.13613 10.073 9.47283 9.59717 9.64086C8.84014 9.9101 7.35981 10.059 7.2383 8.94518C7.10662 7.74604 7.94443 7.3075 9.04562 7.20439H9.04689Z"/>
</svg>
