<svg xmlns="http://www.w3.org/2000/svg" viewBox="0 0 648.22 691.28"><defs><style>.cls-1{fill:#fff;}</style></defs><g id="Layer_1" data-name="Layer 1"><path d="M247.25,168.47c-1.13,1.47-2,2.6-3.92,5.06-1-3.27-2-5.37-2.27-7.55-.83-7.19-1.82-14.41-1.87-21.62a71.43,71.43,0,0,1,2.12-15.6c2.05-9.43,3.75-19,7-28.08,3.88-10.77,5.2-21.89,7-33,.77-4.79,3.42-8,7.78-9.49,9.15-3.07,11.09-9.88,10.3-18.38-.24-2.65.19-5.51-.67-7.92-1-2.75-2.95-5.19-4.67-7.63-2-2.8-5-5.2-6-8.28a11.82,11.82,0,0,1,1-9c.77-1.23,5.1-.22,8.89-.22,2.26-4.45,7.49-5.27,13.25-5.41C296.52,1.09,307.84.68,319.14,0c5.38-.3,9.17,1.54,11,6.59,1.55,4.28,4.63,6.05,8.67,7.87C356,22.21,366,40.7,356.29,60a10.55,10.55,0,0,0-.61,7.46c9,24.92,10.28,50.7,9.49,76.83-.24,7.77,1,15.57,1.55,23.36a54.38,54.38,0,0,1,.49,6.95c-.06,1.07-1.22,2.08-1.88,3.12-1-.73-2.55-1.28-2.81-2.2-2-7.18-4.48-14.33-5.44-21.67-1.84-14.17-1.91-28.61-4.34-42.66-2.11-12.16-6.47-23.93-10-36.33l-7.89,2.83c2.3,6.18,5.15,12.09,6.65,18.33,1.83,7.58,3.37,15.43,3.48,23.19.12,8.57-1.53,17.17-2.37,25.75a8.15,8.15,0,0,0,.29,2.44c2.52,11.27-1,22.22-4.12,32.39-4.76,15.72-12.55,30.52-19,45.72-.51,1.21-.54,2.63-1.1,3.81-.76,1.61-1.71,4.32-2.78,4.42-6.06.55-8.21,5.83-12,9.06-1.66,1.41-3.32,3.77-5.81,1-2.32-2.61-.93-4.34,1.11-6.27,5.23-5,10.32-10.05,15.46-15.09l-1-1c-4.14,3.34-8,7.11-12.48,9.92-7.36,4.61-11,4.51-15.33,0a71.3,71.3,0,0,0,7.72-4q9.6-6.48,18.88-13.43c.88-.66.77-2.64,1.19-4.32-10.29,5-19.78,9.7-29.35,14.23-8,3.76-13.47,2-18.32-5.36-2.18-3.33-4.91-6.4-6.56-10-1.48-3.2-2.69-7-2.5-10.41.46-8.34-1.19-15.81-6-22.63A57.23,57.23,0,0,1,247.25,168.47Zm76.86-55.33,6.91-2.49c-.22-.72-.43-1.45-.65-2.17l-7.56,1.09,1.39,3.67H313.72c.7,1.2,1.37,2.75,1.6,2.69C318.29,115.14,321.19,114.11,324.11,113.14Zm-42,108.07c4.22-2.09,8.49-4.09,12.64-6.31,6.22-3.31,12.43-6.64,18.47-10.26,1.47-.88,2.24-2.92,3.33-4.43-10,6-18.73,13.51-30.52,15.65-1.56.29-2.57,3.57-3.84,5.46-.73-1-1.26-2.42-2.23-2.85-4.37-1.95-8.87-3.62-12.79-5.18C270.18,223.63,274.48,226.15,282.14,221.21Zm-23.06-98.06c4.18,2.89,8.57,2,12.67.14,7.2-3.28,14.32-6.79,21.3-10.53,5.82-3.11,5.95-3.94,4-10.35-6.68,2.41-13.38,4.77-20.05,7.24-5.88,2.18-11.69,4.72-17.72,1.27-3.41,4.44-2.25,8.39-.1,12.32-5.13-2.46-4.89-7.76-6.42-12.13-.51-1.45-1.08-2.88-1.63-4.32a4.71,4.71,0,0,0-1.82,3.06c-.63,3.81,2.08,6.24,3.44,9.31,2.56,5.76,4,10.47,12.08,11a29.3,29.3,0,0,0,17-3.42l-7.25,1.36c.31-.91.36-1.44.53-1.48,8.66-2.06,14.59-10.2,24.19-10.56,2.74-.1,5.55-2.69,8-4.57,1.24-1,1.75-2.89,2.59-4.38l-1.34-1c-5.32,3-10.48,6.4-16,9-8.82,4.12-17.83,7.85-26.87,11.45C262.7,127.72,260.19,126.39,259.08,123.15Zm54.66,65.08-.31-.4c-11.73,5.3-23.44,10.66-35.21,15.87a15.09,15.09,0,0,1-6.26,1.49c-3.95-.13-6.17-2.48-5.69-6.56.26-2.19-1.5-6.5,3.09-5.53,10.05,2.14,16.07-5.86,24-9,4.32-1.71,7.8-5.51,11.69-8.3,9.08-6.52,17.58-13.62,24.66-23.82-4.09,3.27-7.38,5.75-10.51,8.42-13.8,11.77-29,21-46.32,26.78-3.78,1.26-6.16.74-7.21-3.27-.93-3.5-1.78-7-2.63-10.44,3.41.5,6.75,2,9.15,1.12,6.52-2.51,13.13-5.37,18.8-9.36,8.8-6.2,16.85-13.47,25.22-20.27,1.86-1.5,3.76-3,5.65-4.44l-1-1.27c-1.5,1-3,2-4.51,2.91-14,8.62-25.86,20.48-41.65,26.31-4.51,1.67-8.31,1.79-11.17-2.08-4.25-5.76-8-11.87-12.66-18.8-1.08,10,6.37,16.19,10,23.91-9-3.57-11.23-11.25-13.32-19.12-.12,1.78-.23,3.55-.35,5.33l-.63-.1L244.66,152l-1.48.26v17.14l1.36.12,2.34-8.84c2,2.85,3.93,5.59,5.91,8.28,2.54,3.42,5.44,6.61,7.63,10.24s3.66,7.65,5.45,11.49l-1,1.19-5-3.69c1.81,6.19,3.44,12.19,5.4,18.08.37,1.1,1.95,2.07,3.19,2.55,5.74,2.21,11.43-.6,15.87-2.73C294.64,201.19,304,194.32,313.74,188.23Zm-60.3-62.37c.44,4.25.46,7.25,1.1,10.12,2,8.73,8.29,12.06,16.56,8.76,5.69-2.28,11.32-4.74,16.91-7.26,7.91-3.56,8.48-4.91,6.17-13.77-2.67,1.42-5.24,2.89-7.9,4.19C275.3,133.26,264.29,139.27,253.44,125.86Zm73.65-10.21c-14,12.28-30.4,20.47-47.32,27.72-4.1,1.76-8.24,3.93-12.55,4.53-2.82.4-6.54-1-8.84-2.85s-3.58-5.46-5.41-8.21a23.29,23.29,0,0,0-2.62-2.88c.2-3.54.34-7.54.67-11.53.35-4.26-.06-4.7-3.84-4.47-.7,6.69-1.38,13.23-1.9,18.27l4.36,3.22v-2.64a8.17,8.17,0,0,1,2.66,4.07c2.52,7,8.43,12.43,14.37,11.86a45.11,45.11,0,0,0,14.22-3.87c5.05-2.32,9.49-5.94,14.32-8.77C306.84,133.28,319.31,127.61,327.09,115.65ZM255.7,150.38l-1.16.91c3.63,4.94,7,10.09,11,14.69,1.2,1.38,4.56,2.27,6.23,1.6a189.1,189.1,0,0,0,17.85-8.64,5.12,5.12,0,0,0,2.34-3.39,78,78,0,0,0,.11-9.11C280.38,152.17,269,161.18,255.7,150.38ZM263.8,104c11.6-1.35,21.7-6.58,31.6-12.24.78-.44,1.52-2.67,1.15-3.11-1.14-1.33-3-3.28-4.27-3-4,.78-7.8,2.46-11.69,3.75-2.32.77-4.63,2-7,2.1C265,91.82,262.42,94.82,263.8,104Zm7.48,108.55c0,.72-.09,1.45-.13,2.17,3.19.45,6.65,1.9,9.54,1.16,9.62-2.46,18.81-6.1,27-12,3.58-2.57,4.24-4.62,1.14-8C297.25,203.73,285.22,210.28,271.28,212.5ZM318.8,86.3l-.62-1.56a10,10,0,0,0-2.67.44c-9.83,4.46-19.56,9.14-29.46,13.44a165.34,165.34,0,0,1-17.29,6.31c-2.22.69-4.81.19-7.23.23l-3.46,0c.54,1.23.82,2.73,1.71,3.64s2.33,1.17,3.53,1.72C283.65,106.47,300.7,95.23,318.8,86.3ZM272.19,72.52c-.25,1-.56,2.38-1.14,4.82l24.48-13.52-.64-1.24c-6.85,3-16.94-.61-19.17,10.3l-6.42-5.55-9.45,7.9c1.53,1.44,3.25,3.06,5.62,5.31L258,81.2c1.35.61,2.65.79,3.22,1.53,2.67,3.49,4.52,5.17,4.87-1.19.07-1.42,1.51-2.76,1.93-3.47l-2.66-6.42Zm65.06-50.37C342,33.39,346.44,43.91,351,54.77,356.66,44,349.84,27.61,337.25,22.15ZM266.19,176.63c.19,9.21,1.6,10.32,8.78,8,1.89-.62,3.77-1.24,5.65-1.89,7.23-2.47,8.88-4.76,9.47-13.42C282.44,172.91,276.43,181,266.19,176.63ZM339.33,68c-2-4.26-3.72-8.38-5.92-12.2a4.91,4.91,0,0,0-4.11-1.92c-1.85.31-4.93,1.73-5,2.77-.12,3.42-.18,7.72,1.71,10.14C330.28,72.22,332.3,72,339.33,68ZM268.48,197.57c-.42,5.28,1.07,7,5.88,5.48,6.56-2,13-4.56,19.43-6.88v-1.85c-2.78-.7-5.76-2.39-8.32-1.89C279.85,193.51,274.43,195.69,268.48,197.57Zm2.51-115L272.11,85l19.71-6.41-4.54-9.37ZM269.1,59.52a19.56,19.56,0,0,1,2.35,3c2.94,5.88,7.15,1.56,10.81,1.39,4-.18,4.64-2.84,3.53-5.87-1-2.8-2.5-5.7-6.51-3.66C275.9,56.14,272.5,57.82,269.1,59.52ZM249.7,102l6.5,5.4,5.62-17.07C258.37,90.35,250.76,98.23,249.7,102Zm53.37-41.27c4,2.29,9.67-.58,11.66-6.28,2.11-6.06-.36-9.57-6.09-8.39-2.48.52-4.81,1.72-8.53,3.11,4.93.89,9-3.73,12.28,1.78ZM315,123l-8.13-7.89-1.06.85.53,3a12.86,12.86,0,0,0-3.41,1.22,23.45,23.45,0,0,0-3,3.2c1.13.87,2.37,2.6,3.36,2.47C306.73,125.35,310.05,124.25,315,123Zm7.17,4.73c4.57,4.72,5.69,4.58,10.64-1C328.84,121.87,328.54,121.89,322.2,127.7ZM265.9,87.33c8.85,4.42,14.3-1.34,20.44-4.47Zm91.7-2.77-1.29.37q3.31,17.14,6.61,34.27l1.18-.21ZM302.82,185.78c-3.44-1.2-6.61-2.1-8.09,1.85-.18.48,2.5,2.68,4.09,3.05C302.64,191.55,303.12,189,302.82,185.78ZM315,172.22l7.28,4.36c4.7-3.89,4.59-5.69-.9-9.48-.29,2.06-.54,3.83-.82,5.86-.89-.18-1.49-.33-2.1-.41S317,172.4,315,172.22Zm-7.38-28.56-1.66-.61c-2.14,3.08-2.73,3-8.8-1.36.7,3,.54,5.4,1.67,6.53,2.29,2.28,5,1,7-.95C306.72,146.37,307,144.88,307.63,143.66Zm4.56-120.41c-8.12,3-14.19,12.31-11.08,19.06C302.12,33.48,305.62,27.36,312.19,23.25Zm12.26,120.93,6.18,4.34,3.19-3.9C330.66,141.73,328,138.87,324.45,144.18Zm-40-120.1.7-.3V9.86l-4.25.67C282.19,15.29,283.34,19.68,284.49,24.08Zm-16.77,39.4L264.34,61A27.42,27.42,0,0,0,260,63.27a12.28,12.28,0,0,0-2,2.8c1,.37,2.27,1.32,3,1A60.68,60.68,0,0,0,267.72,63.48ZM250,144.73l-2.63-3.68a44.3,44.3,0,0,0-2.77,5.83c-.18.56,1.07,1.59,1.66,2.41Zm81.15,14c-5.85,3.69-.86,6.11-.14,9.13C335.56,164.72,333.05,162,331.12,158.72Zm-12.35-10c4.05.32,6.27,4.49,10.45,1.05C326,147.87,324,143.28,318.77,148.75Zm-23.55,26,6.58-3.69-.29-1h-9.62C293.29,172,294.18,173.27,295.22,174.75Zm-2-102.9,9.4-1.25.15-2C300.68,68,298.54,67,296.39,67,295.63,67,294.84,69.28,293.27,71.85Zm26.41,56.47-4.91,4.3,9.57,1.55.4-1.42Zm1.2,60.21c-6.16,1.87-6.78,4.19-3.07,8.93C318.93,194.21,319.7,192,320.88,188.53Zm-57.57,21.94c-1.55-4.56-3.18-9.34-4.92-14.47C257.9,202,258.79,207.05,263.31,210.47Zm71.27-85.4,1.77-.64c-.4-1.36-.41-3.38-1.3-3.92-1.15-.68-3-.16-4.56-.16,0,.48-.08,1-.13,1.46Zm-3.25-77.2-9.93,2C324.05,53,324.05,53,331.33,47.87Zm-2.44,52.72,6.72,2.2.72-1.08-2.78-5Zm-32-62.43h-.76V52.1h.76ZM298.16,166l7-4.37-1.35-1.77-7.66,4Zm28.65-3-2.11.69,2.73,7.69,2-.64Zm7.69-57c.16-.54.31-1.08.47-1.62l-9.81-2.15-.26,1.25Z"/><path d="M191.34,214.18A54.53,54.53,0,0,1,179.56,248c-10.26,13.28-20.84,26.32-31.32,39.43-7,8.7-14.09,17.23-20.9,26-3.07,4-6.72,5.28-11.35,4-3.5-1-7.28-1.72-10.31-3.59C90,304.12,73.51,295.47,60.47,282.06c-9.06-9.32-17.73-18.95-22.33-31.52C29.49,226.93,41,198,62.84,189a56,56,0,0,1,35.68-2.79c5.87,1.46,11.2.23,16.26-2.78,5.44-3.22,10.66-6.9,16.36-9.57,11.9-5.57,23.78-5.32,34.06,3.49a167,167,0,0,1,20.91,21.14c3.33,4.1,4.36,10.07,6.43,15.2Zm-70.11-14.13c-5.41,1-8.64-2.35-11.87-5.79-1.35-1.43-2.54-3.32-4.22-4.06-7.24-3.19-14.52-.22-21.76.48-.94.09-2,2.07-2.36,3.35-.13.55,1.48,2,2.48,2.24,2.19.45,4.69,1,6.71.35,8-2.53,15.44-2.31,22.35,2.81a16.4,16.4,0,0,1-5.18-.62c-9.8-2.38-19,.19-27.91,3.83a62.81,62.81,0,0,0-10.77,6.19c-2.59,1.73-5.54,3.53-7.14,6-5.94,9.32-9.14,19.55-7.94,30.78.27,2.55.93,5.05,1.4,7.58l-1.76.48C51.12,247,48.81,240.25,47,233.4c-.25-1,1.92-2.56,3-3.83a6.18,6.18,0,0,1,1.12-.8l-2.7-1.57,4.33-5-.75-.67-2.39,1.69c3.71-7.25,8-13.79,15.23-17.83a51.81,51.81,0,0,0,9.93-6.74c1.71-1.58,5.19-4.72,1.39-6.77C73,190.15,68,189.1,64.82,190.37c-5.35,2.16-9.9,6.33-14.68,9.8a5.17,5.17,0,0,0-1.56,3c-1,4.81-1.3,9.84-2.87,14.45-5,14.61-2.91,27.78,6.68,39.89a233.81,233.81,0,0,0,38.54,38.92c6.61,5.21,14.28,9.05,21.44,13.56,6,3.81,11.87,2.07,16.25-2.15,3.75-3.61,5.95-8.83,8.84-13.34l22.45-27.9a116.2,116.2,0,0,0,25.84-38.05c6.19-14.93,3.75-28.22-8.64-39.23-4.6-4.08-10-6.06-15.63-3.71-10.2,4.28-20,9.44-30,14.16-3.44,1.61-7,3-11.2,4.76.49-2.45.69-3.48.9-4.51,5.19-3.16,10.54-6.09,15.51-9.58a12.72,12.72,0,0,0,4.13-6,7.86,7.86,0,0,0-.39-6,5.87,5.87,0,0,0-5.08-2,48.42,48.42,0,0,0-11.16,4.11c-4.4,2.27-8.49,5.14-11.84,7.2A37.24,37.24,0,0,1,121.23,200.05Z"/><path d="M567.45,252.87l9.83,10.48A54.63,54.63,0,0,1,599,245.53c19.61-8.91,45,4.35,48.28,25.16,2.39,15.15.24,29.71-7.52,42.83a350.86,350.86,0,0,1-21.7,31.56c-4.23,5.62-9.71,10.29-14.63,15.4l-13.28,12.94-12.65,9.93c-2.58.32-5.34,1.08-6.52-2.62,13.92-7.13,25.45-17,35.64-28.65,6-6.89,12.54-13.35,18.68-20.15,14.93-16.57,22.76-35.7,20.71-58.34-.73-8.09-4.06-14-9.89-17.27,11.41,15.57,12.15,37.6,1.6,48-.11-.12-.35-.27-.33-.35.56-1.72,1.19-3.43,1.72-5.17,3.75-12.35,5-24.48-3.08-35.85-14.17-20-43.89-15.44-56.41.28a6.6,6.6,0,0,0-.79,1.27c-1.33,2.71-2.76,1.41-4.19.12l-8.38-10.18Z"/><path d="M567.45,252.87c-.39.52-.79,1-1.19,1.55l-7.53-4.77c-13.3-6.35-26-4.07-38,3.32s-16.6,19.15-15.71,32.91c.69,10.89,5.47,20.56,10.68,29.85,11.62,20.72,27.62,37.87,44.87,53.94,1.82,1.69,3.53,3.49,5.29,5.24l-.82.82-8.1-6.5-.37.51,8.86,9.39c-.18.18-.35.36-.52.55-2-1.73-4.17-3.29-6-5.19-18.47-19.63-37.83-38.63-49.46-63.53-7.51-16.08-9.07-32.67-1.34-49.21a35.4,35.4,0,0,1,46.93-17C559.52,246.79,563.35,250.13,567.45,252.87Z"/><path d="M577.51,383.35l12.65-9.93c.09.52.17,1,.25,1.56-4,3.44-8,6.83-11.87,10.36-2.83,2.56-5.44,2.71-8.13-.09-1.81-1.87-3.65-3.72-5.47-5.57.17-.19.34-.37.52-.55,2,1.63,4.06,3.22,6,4.9C573.77,386,575.81,386.26,577.51,383.35Z"/><path d="M590.41,375c-.08-.52-.16-1-.25-1.56l13.28-12.94Z"/><path class="cls-1" d="M313.74,188.23c-9.74,6.09-19.1,13-29.39,17.89-4.44,2.13-10.13,4.94-15.87,2.73-1.24-.48-2.82-1.45-3.19-2.55-2-5.89-3.59-11.89-5.4-18.08l5,3.69,1-1.19c-1.79-3.84-3.28-7.88-5.45-11.49s-5.09-6.82-7.63-10.24c-2-2.69-3.88-5.43-5.91-8.28l-2.34,8.84-1.36-.12V152.29l1.48-.26,1.89,5.61.63.1c.12-1.78.23-3.55.35-5.33,2.09,7.87,4.32,15.55,13.32,19.12-3.61-7.72-11.06-13.9-10-23.91,4.63,6.93,8.41,13,12.66,18.8,2.86,3.87,6.66,3.75,11.17,2.08,15.79-5.83,27.68-17.69,41.65-26.31,1.52-.94,3-1.94,4.51-2.91l1,1.27c-1.89,1.48-3.79,2.94-5.65,4.44-8.37,6.8-16.42,14.07-25.22,20.27-5.67,4-12.28,6.85-18.8,9.36-2.4.92-5.74-.62-9.15-1.12.85,3.42,1.7,6.94,2.63,10.44,1.05,4,3.43,4.53,7.21,3.27,17.31-5.73,32.52-15,46.32-26.78,3.13-2.67,6.42-5.15,10.51-8.42-7.08,10.2-15.58,17.3-24.66,23.82-3.89,2.79-7.37,6.59-11.69,8.3-7.89,3.11-13.91,11.11-24,9-4.59-1-2.83,3.34-3.09,5.53-.48,4.08,1.74,6.43,5.69,6.56a15.09,15.09,0,0,0,6.26-1.49c11.77-5.21,23.48-10.57,35.21-15.87Z"/><path class="cls-1" d="M253.44,125.86c10.85,13.41,21.86,7.4,32.84,2,2.66-1.3,5.23-2.77,7.9-4.19,2.31,8.86,1.74,10.21-6.17,13.77-5.59,2.52-11.22,5-16.91,7.26-8.27,3.3-14.6,0-16.56-8.76C253.9,133.11,253.88,130.11,253.44,125.86Z"/><path class="cls-1" d="M327.09,115.65c-7.78,12-20.25,17.63-31.88,24.45-4.83,2.83-9.27,6.45-14.32,8.77a45.11,45.11,0,0,1-14.22,3.87c-5.94.57-11.85-4.88-14.37-11.86a8.17,8.17,0,0,0-2.66-4.07v2.64l-4.36-3.22c.52-5,1.2-11.58,1.9-18.27,3.78-.23,4.19.21,3.84,4.47-.33,4-.47,8-.67,11.53a23.29,23.29,0,0,1,2.62,2.88c1.83,2.75,3,6.25,5.41,8.21s6,3.25,8.84,2.85c4.31-.6,8.45-2.77,12.55-4.53C296.69,136.12,313.07,127.93,327.09,115.65Z"/><path class="cls-1" d="M259.17,123.24c-2.15-3.93-3.31-7.88.1-12.32,6,3.45,11.84.91,17.72-1.27,6.67-2.47,13.37-4.83,20.05-7.24,2,6.41,1.83,7.24-4,10.35-7,3.74-14.1,7.25-21.3,10.53-4.1,1.86-8.49,2.75-12.67-.14Z"/><path class="cls-1" d="M255.7,150.38c13.34,10.8,24.68,1.79,36.41-3.94a78,78,0,0,1-.11,9.11,5.12,5.12,0,0,1-2.34,3.39,189.1,189.1,0,0,1-17.85,8.64c-1.67.67-5-.22-6.23-1.6-4-4.6-7.41-9.75-11-14.69Z"/><path class="cls-1" d="M263.8,104c-1.38-9.13,1.18-12.13,9.81-12.53,2.35-.11,4.66-1.33,7-2.1,3.89-1.29,7.7-3,11.69-3.75,1.23-.25,3.13,1.7,4.27,3,.37.44-.37,2.67-1.15,3.11C285.5,97.37,275.4,102.6,263.8,104Z"/><path class="cls-1" d="M259.08,123.15c1.11,3.24,3.62,4.57,6.6,3.39,9-3.6,18.05-7.33,26.87-11.45,5.52-2.58,10.68-6,16-9l1.34,1c-.84,1.49-1.35,3.42-2.59,4.38-2.45,1.88-5.26,4.47-8,4.57-9.6.36-15.53,8.5-24.19,10.56-.17,0-.22.57-.53,1.48l7.25-1.36a29.3,29.3,0,0,1-17,3.42c-8.08-.53-9.52-5.24-12.08-11-1.36-3.07-4.07-5.5-3.44-9.31a4.71,4.71,0,0,1,1.82-3.06c.55,1.44,1.12,2.87,1.63,4.32,1.53,4.37,1.29,9.67,6.42,12.13Z"/><path class="cls-1" d="M271.28,212.5c13.94-2.22,26-8.77,37.59-16.63,3.1,3.34,2.44,5.39-1.14,8-8.23,5.9-17.42,9.54-27,12-2.89.74-6.35-.71-9.54-1.16C271.19,214,271.24,213.22,271.28,212.5Z"/><path class="cls-1" d="M318.8,86.3c-18.1,8.93-35.15,20.17-55.49,24.26-1.2-.55-2.68-.84-3.53-1.72s-1.17-2.41-1.71-3.64l3.46,0c2.42,0,5,.46,7.23-.23a165.34,165.34,0,0,0,17.29-6.31c9.9-4.3,19.63-9,29.46-13.44a10,10,0,0,1,2.67-.44Z"/><path class="cls-1" d="M272.19,72.52l-6.88-.87L268,78.07c-.42.71-1.86,2.05-1.93,3.47-.35,6.36-2.2,4.68-4.87,1.19-.57-.74-1.87-.92-3.22-1.53l7.52-.66c-2.37-2.25-4.09-3.87-5.62-5.31l9.45-7.9,6.42,5.55C278,62,288,65.55,294.89,62.58l.64,1.24L271.05,77.34C271.63,74.9,271.94,73.57,272.19,72.52Z"/><path class="cls-1" d="M337.25,22.15C349.84,27.61,356.66,44,351,54.77,346.44,43.91,342,33.39,337.25,22.15Z"/><path class="cls-1" d="M266.19,176.63c10.24,4.41,16.25-3.72,23.9-7.34-.59,8.66-2.24,11-9.47,13.42-1.88.65-3.76,1.27-5.65,1.89C267.79,187,266.38,185.84,266.19,176.63Z"/><path class="cls-1" d="M339.33,68c-7,4-9.05,4.19-13.28-1.21-1.89-2.42-1.83-6.72-1.71-10.14,0-1,3.11-2.46,5-2.77a4.91,4.91,0,0,1,4.11,1.92C335.61,59.65,337.31,63.77,339.33,68Z"/><path class="cls-1" d="M268.48,197.57c5.95-1.88,11.37-4.06,17-5.14,2.56-.5,5.54,1.19,8.32,1.89v1.85c-6.47,2.32-12.87,4.87-19.43,6.88C269.55,204.52,268.06,202.85,268.48,197.57Z"/><path class="cls-1" d="M271,82.58l16.29-13.41,4.54,9.37L272.11,85Z"/><path class="cls-1" d="M269.1,59.52c3.4-1.7,6.8-3.38,10.18-5.1,4-2,5.5.86,6.51,3.66,1.11,3,.47,5.69-3.53,5.87-3.66.17-7.87,4.49-10.81-1.39A19.56,19.56,0,0,0,269.1,59.52Z"/><path class="cls-1" d="M249.7,102c1.06-3.79,8.67-11.67,12.12-11.67l-5.62,17.07Z"/><path class="cls-1" d="M303.07,60.75,312.39,51c-3.28-5.51-7.35-.89-12.28-1.78,3.72-1.39,6.05-2.59,8.53-3.11,5.73-1.18,8.2,2.33,6.09,8.39C312.74,60.17,307.11,63,303.07,60.75Z"/><path class="cls-1" d="M282.22,221.32c1.27-1.89,2.28-5.17,3.84-5.46,11.79-2.14,20.5-9.63,30.52-15.65-1.09,1.51-1.86,3.55-3.33,4.43-6,3.62-12.25,7-18.47,10.26-4.15,2.22-8.42,4.22-12.64,6.31Z"/><path class="cls-1" d="M315,123c-5,1.28-8.3,2.38-11.71,2.84-1,.13-2.23-1.6-3.36-2.47a23.45,23.45,0,0,1,3-3.2,12.86,12.86,0,0,1,3.41-1.22l-.53-3,1.06-.85Z"/><path class="cls-1" d="M282.14,221.21c-7.66,4.94-12,2.42-14.94-7.92,3.92,1.56,8.42,3.23,12.79,5.18,1,.43,1.5,1.87,2.23,2.85Z"/><path class="cls-1" d="M322.2,127.7c6.34-5.81,6.64-5.83,10.64-1C327.89,132.28,326.77,132.42,322.2,127.7Z"/><path class="cls-1" d="M265.9,87.33l20.44-4.47C280.2,86,274.75,91.75,265.9,87.33Z"/><path class="cls-1" d="M357.6,84.56,364.1,119l-1.18.21q-3.3-17.13-6.61-34.27Z"/><path class="cls-1" d="M302.82,185.78c.3,3.19-.18,5.77-4,4.9-1.59-.37-4.27-2.57-4.09-3.05C296.21,183.68,299.38,184.58,302.82,185.78Z"/><path class="cls-1" d="M315,172.22c2,.18,2.72.22,3.46.33s1.21.23,2.1.41c.28-2,.53-3.8.82-5.86,5.49,3.79,5.6,5.59.9,9.48Z"/><path class="cls-1" d="M307.63,143.66c-.59,1.22-.91,2.71-1.83,3.61-2,2-4.67,3.23-7,.95-1.13-1.13-1-3.53-1.67-6.53,6.07,4.41,6.66,4.44,8.8,1.36Z"/><path class="cls-1" d="M312.19,23.25c-6.57,4.11-10.07,10.23-11.08,19.06C298,35.56,304.07,26.24,312.19,23.25Z"/><path class="cls-1" d="M324.45,144.18c3.58-5.31,6.21-2.45,9.37.44l-3.19,3.9Z"/><path class="cls-1" d="M284.49,24.08c-1.15-4.4-2.3-8.79-3.55-13.55l4.25-.67V23.78Z"/><path class="cls-1" d="M267.72,63.48a60.68,60.68,0,0,1-6.7,3.61c-.75.3-2-.65-3-1a12.28,12.28,0,0,1,2-2.8A27.42,27.42,0,0,1,264.34,61Z"/><path class="cls-1" d="M250,144.73l-3.74,4.56c-.59-.82-1.84-1.85-1.66-2.41a44.3,44.3,0,0,1,2.77-5.83Z"/><path class="cls-1" d="M331.12,158.72c1.93,3.31,4.44,6-.14,9.13C330.26,164.83,325.27,162.41,331.12,158.72Z"/><path class="cls-1" d="M318.77,148.75c5.24-5.47,7.21-.88,10.45,1.05C325,153.24,322.82,149.07,318.77,148.75Z"/><path class="cls-1" d="M295.22,174.75c-1-1.48-1.93-2.74-3.33-4.71h9.62l.29,1Z"/><path class="cls-1" d="M293.27,71.85c1.57-2.57,2.36-4.9,3.12-4.89,2.15,0,4.29,1,6.43,1.62l-.15,2Z"/><path class="cls-1" d="M319.68,128.32l5.06,4.43-.4,1.42-9.57-1.55Z"/><path class="cls-1" d="M320.88,188.53c-1.18,3.42-1.95,5.68-3.07,8.93C314.1,192.72,314.72,190.4,320.88,188.53Z"/><path class="cls-1" d="M263.31,210.47c-4.52-3.42-5.41-8.49-4.92-14.47C260.13,201.13,261.76,205.91,263.31,210.47Z"/><path class="cls-1" d="M324.2,113.24l-1.39-3.67,7.56-1.09c.22.72.43,1.45.65,2.17l-6.91,2.49Z"/><path class="cls-1" d="M324.11,113.14c-2.92,1-5.82,2-8.79,2.79-.23.06-.9-1.49-1.6-2.69H324.2Z"/><path class="cls-1" d="M334.58,125.07l-4.22-3.26c.05-.49.09-1,.13-1.46,1.55,0,3.41-.52,4.56.16.89.54.9,2.56,1.3,3.92Z"/><path class="cls-1" d="M331.33,47.87c-7.28,5.16-7.28,5.16-9.93,2Z"/><path class="cls-1" d="M328.89,100.59l4.66-3.92,2.78,5-.72,1.08Z"/><path class="cls-1" d="M296.85,38.16V52.1h-.76V38.16Z"/><path class="cls-1" d="M298.16,166l-2-2.1,7.66-4,1.35,1.77Z"/><path class="cls-1" d="M326.81,163l2.61,7.74-2,.64-2.73-7.69Z"/><path class="cls-1" d="M334.5,106l-9.6-2.52.26-1.25,9.81,2.15C334.81,105,334.66,105.5,334.5,106Z"/><path class="cls-1" d="M163.12,514.76l2.08-4,3.7,1.75c-.72-2.25-1.27-3.95-1.82-5.65l1.44-.26,2,11.3-1.28.74Z"/><path class="cls-1" d="M121.15,200c-.21,1-.41,2.06-.9,4.51,4.21-1.78,7.76-3.15,11.2-4.76,10-4.72,19.83-9.88,30-14.16,5.59-2.35,11-.37,15.63,3.71,12.39,11,14.83,24.3,8.64,39.23a116.2,116.2,0,0,1-25.84,38.05c3.13-4.86,6.42-9.63,9.35-14.61,4.27-7.28,8.79-14.47,12.2-22.15,2.39-5.36,2.12-11.4-.63-17.77-.93,4.82-1.69,8.71-2.44,12.6l-1.53-.32a7,7,0,0,1,.13-1.38c2.8-9.25-.13-16.93-7.22-22.77-7.35-6-16-8.9-25-4.16-6.43,3.37-12.2,8-18.29,12-.82.55-1.9,1.29-2.72,1.14-5.2-.93-10.33-2.29-15.54-3.11-6.2-1-12.5-2.38-18.68-2.1-17.46.77-32.11,17.26-31.36,34.51a13.3,13.3,0,0,0,.77,2.82l1.3.16c-.73-9.69,2.22-17.76,8.81-23.49-2.19,4.88-5.44,10.15-7,15.88-4.2,15.67,2.25,28.8,11.7,40.57,3.47,4.31,6.15,10.16,12.88,11,.61.07,1.69,1.35,1.56,1.75-1.3,4.08,2.29,5.2,4.4,6.44,6.55,3.87,13.38,7.28,20.2,10.68,3.26,1.62,6.75,2.81,10.47,4.34-.17-2.81-.27-4.6-.37-6.38l-.08.06c2.43-1.88,5.12-3.51,7.23-5.69,3.58-3.71,6.79-7.78,10.15-11.69l.81.69-16,19.91,1.08.94,11.4-12c-2.89,4.51-5.09,9.73-8.84,13.34-4.38,4.22-10.21,6-16.25,2.15-7.16-4.51-14.83-8.35-21.44-13.56a233.81,233.81,0,0,1-38.54-38.92c-9.59-12.11-11.65-25.28-6.68-39.89,1.57-4.61,1.86-9.64,2.87-14.45a5.17,5.17,0,0,1,1.56-3c4.78-3.47,9.33-7.64,14.68-9.8,3.14-1.27,8.13-.22,11.35,1.52,3.8,2.05.32,5.19-1.39,6.77a51.81,51.81,0,0,1-9.93,6.74c-7.25,4-11.52,10.58-15.23,17.83L52,221.54l.75.67-4.33,5,2.7,1.57a6.18,6.18,0,0,0-1.12.8c-1.09,1.27-3.26,2.88-3,3.83,1.81,6.85,4.12,13.56,6.26,20.32l1.76-.48c-.47-2.53-1.13-5-1.4-7.58-1.2-11.23,2-21.46,7.94-30.78,1.6-2.52,4.55-4.32,7.14-6a62.81,62.81,0,0,1,10.77-6.19c8.92-3.64,18.11-6.21,27.91-3.83a16.4,16.4,0,0,0,5.18.62c-6.91-5.12-14.36-5.34-22.35-2.81-2,.63-4.52.1-6.71-.35-1-.2-2.61-1.69-2.48-2.24.31-1.28,1.42-3.26,2.36-3.35,7.24-.7,14.52-3.67,21.76-.48,1.68.74,2.87,2.63,4.22,4.06,3.23,3.44,6.46,6.83,11.87,5.79Z"/><path d="M122.91,302.2c.11,1.78.21,3.57.38,6.38-3.72-1.53-7.21-2.72-10.47-4.34-6.82-3.4-13.65-6.81-20.2-10.68-2.11-1.24-5.7-2.36-4.4-6.44.13-.4-1-1.68-1.56-1.75-6.73-.82-9.41-6.67-12.88-11-9.45-11.77-15.9-24.9-11.7-40.57,1.53-5.73,4.78-11,7-15.88-6.59,5.73-9.54,13.8-8.81,23.49l-1.3-.16a13.3,13.3,0,0,1-.77-2.82c-.75-17.25,13.9-33.74,31.36-34.51,6.18-.28,12.48,1.13,18.68,2.1,5.21.82,10.34,2.18,15.54,3.11.82.15,1.9-.59,2.72-1.14,6.09-4,11.86-8.65,18.29-12,9-4.74,17.66-1.88,25,4.16,7.09,5.84,10,13.52,7.22,22.77a7,7,0,0,0-.13,1.38l1.53.32c.75-3.89,1.51-7.78,2.44-12.6,2.75,6.37,3,12.41.63,17.77-3.41,7.68-7.93,14.87-12.2,22.15-2.93,5-6.22,9.75-9.35,14.61l-22.45,27.9-11.4,12-1.08-.94,16-19.91-.81-.69c-3.36,3.91-6.57,8-10.15,11.69-2.11,2.18-4.8,3.81-7.22,5.69,3.6-4.15,7.54-8,10.71-12.48,12.26-17.19,24.27-34.57,36.4-51.86a9.55,9.55,0,0,1,1.75-1.49l.77,3.41,3.72-8.41-1-.46-2.83,3.81c-.29-1.78-.46-2.85-.89-5.56l-12.65,15c2.48-6.66,4.41-11.87,6.34-17.07l-1.55-.62c-1.37,2.61-2.47,5.41-4.16,7.78-3.6,5-7.51,9.86-11.29,14.76,3.9-6.3,7.86-12.57,11.7-18.91s3.84-13.05,2.51-20.22c-2-10.65-8.29-11.79-16.43-8.64-5.69,2.2-10.84,6.31-15.58,10.33-8,6.77-13.12,7.5-21.86,1.84-9.35-6.06-21.66-5.54-31.88,1.58S61.34,232,63.3,244.18c3,19.05,22.61,38.08,41.45,41.47a12.8,12.8,0,0,0,11.13-2.8c5.21-4.26,10.88-8,16.36-11.92a1.29,1.29,0,0,1,0,.49c-2.55,4.84-10.1,5.75-10.06,12.74,0,.35-2,.75-3,1s-2.29.5-3.62.78c1.39,2,3.55,3.72,3.25,4.81C117.44,295.76,121.09,298.59,122.91,302.2Zm-8.42-2.57-13-7.5C103.48,299.09,108.28,300.55,114.49,299.63Z"/><path class="cls-1" d="M121.23,200.05a37.24,37.24,0,0,0-8.91-12.3c3.35-2.06,7.44-4.93,11.84-7.2a48.42,48.42,0,0,1,11.16-4.11,5.87,5.87,0,0,1,5.08,2,7.86,7.86,0,0,1,.39,6,12.72,12.72,0,0,1-4.13,6c-5,3.49-10.32,6.42-15.51,9.58Z"/><path d="M574.65,264.6a7.89,7.89,0,0,1,.44,1.38c0,.28-.19.58-.27.78L556,250.18l2.73-.53,7.53,4.77Z"/><path d="M487,371H459.59c1.28-6.6,2.78-13.11,3.73-19.69.73-5.09-3.68-9.92-9.47-10.25-5.46-.32-2.41,4.71-3.81,7a2.52,2.52,0,0,0-.3.95c-1.1,7.37-6.16,12.09-11.22,16.82v0a36.09,36.09,0,0,0,14.82-10.47c2.63-3.35,4.08-7,3.78-10.66,3.92,1.44,4.43,2.39,4.47,6.74.09,10.09-3.16,18.51-11.65,24.52a15.22,15.22,0,0,0-2.42,2.79h0l-.09.09.07-.08c-.8.28-1.65.48-2.43.8a5.28,5.28,0,0,0-.76.36c-20.22,11.82-42.62,12.21-64.94,13-.1-.51-.2-1-.29-1.52,2.26-.39,4.51-.84,6.77-1.17,14.77-2.14,29.66-3.69,44.26-6.67a19,19,0,0,0,3.23-1c.71-.27,1.41-.59,2.1-.92,1.39-.68,2.76-1.46,4.12-2.28s2.71-1.68,4.07-2.49l1-.61c.68-.4,1.36-.78,2.05-1.15h0l-.55-.59c-19.17,12-40.9,12.43-62.3,14.39-.27-.61-.55-1.22-.83-1.83,1.3-.72,2.56-2,3.89-2.08,13.84-.72,27.48-2.43,40.72-6.82,10.71-3.54,19.76-9.2,25.85-19.16-4,2.64-8,5.34-12,7.9-1.24.79-3,1.92-3-1.1l-.08,0,.08-.08c-.78.18-1.75.13-2.3.59-3.3,2.76-6.2,1.93-9.83.12a63.79,63.79,0,0,0-16.27-5.92c-13.13-2.46-26.41-4.12-40-6.16.72-5.78-2.58-10.11-9-12.74,3.58-2.52,6.89-4.24,9.42-6.74,5.56-5.5,10.73-11.4,16.06-17.13,7.28-7.05,10.92-16,12.81-25.67,2.8-14.23-9.6-29.12-23.86-27.68a23.18,23.18,0,0,1-3.4-.15,66.35,66.35,0,0,0,.47-28.47c-2.74-13.06-12.09-20.83-25.31-20.46a111.41,111.41,0,0,1,5.48,9.7c1.71,3.83,3.92,7.84,4.12,11.86,1.05,21.14-7,40-15.85,58.95-7.56-6.72-16.27-9-25.69-6.67a15.63,15.63,0,0,1-11.49-1.16c-5-2.56-9.26-1.47-12.42,2.71-3.84,5.1-7.14,10.62-10.81,16.15-.51-.46-1.46-1.31-2.38-2.18-17.89-17-42.28-19.24-61.68-5.56a10.31,10.31,0,0,1-7.66,1.91c-15.17-1.29-22.87,2.59-24.28,15.21a6.86,6.86,0,0,0,1.81,5.21c.88.78,3.45.33,4.91-.34,7.38-3.45,13.48-2.41,19,3.56,3.16,3.4,6.1,3.36,8.27-.22,3.11,1.57,6.29,3,9.32,4.76s5.87,3.65,8.88,5.54c-14,14.3-11.53,24.22,8.38,34.27l-7.82,6.63,13.66,3.72c-2.42,1.14-3.81,2.16-5.34,2.45-6.53,1.25-13.08,2.52-19.67,3.28-2.71.31-5.57-.65-8.36-1,1-2.65,2-5.3,3-8a2.85,2.85,0,0,0,0-1c-7.11-5-12.9-1.38-16.18,10.39-7.88-1.86-15.8-3.63-23.64-5.7-1.26-.33-3-1.94-3.09-3.11-.46-4.56-4.57-4.26-5.91-2.94a20.82,20.82,0,0,0-5.33,9.61c-.93,3.86-1.27,8.47,3.93,10.48h0l-.1-.09.06,0c-2.56-4.23-3.28-8.47-1.85-12.62a16,16,0,0,1,2.18-4.13c.78-1.1,2.56-1.49,4.36-1.74-2.16,4.87-2.32,9.22.27,13.52l.07-.08h0c.39.24.77.5,1.16.77,9.38,5,20.11,2.53,30.06,4.34l-.15,1.34c-7.71-.56-15.47-.75-23.1-1.86-2.41-.35-4.58-2.28-6.81-3.82-.4-.22-.81-.43-1.21-.68-.77,1.51-.57,2.41.05,3a3.45,3.45,0,0,0,1,.64c.75.35,1.62.57,2.22.86,5.49,2.66,9.41,8.13,16.49,8.09,6.41,0,12.84,1.14,19.21,2.05-14.12.52-28-.27-40.51-8.07a29.93,29.93,0,0,0-3.43-1.63l0,.06c1.9,1.65,3.62,3.64,5.77,4.86,9.09,5.15,19.25,6.34,29.4,6.82,7.25.35,13.57.74,19.81,6.13,4.73,4.09,12.38,4.81,18.36,6.9,2.4,3.71,4.45,8.08,7.61,11.4,2.79,2.94,4.43,4.91,2.45,9.22-3.77,8.21-3.45,8.35,3.37,13.43.75.56,1.41,1.24,2.34,2.06-1.91,2.46-3.57,4.74-5.36,6.9-13.25,16-22.68,18.79-42.23,12.68-6.05-1.89-9.48.78-9.06,7.07.52,7.95,8.43,14.72,17.55,14.44,12.89-.38,23.87-5.53,33.05-14.49a105.28,105.28,0,0,0,23.15-34.06c1.26-2.95,3.1-4.45,6.08-5.83,5.66-2.62,11.81-5.37,15.92-9.77s8.17-5.11,12.51-5.21c2.49,11,5,21.71,7.22,32.44a8.1,8.1,0,0,1-.95,5.48c-4.75,7.56-16.53,10.67-24.3,6.32-3.66-2-4.68-.06-5,2.71-.49,4.7,1.61,8.36,5.48,11.06,9,6.29,17.82,6.14,26.78-.4,1.85-1.35,3.87-2.46,6.19-3.92,5.35,12.27,14.44,21.4,23.74,30.12,5.22,4.89,11.61,8.79,18,12.09s12.28.09,17.16-4.38c2.8-2.57,2.42-6.77-.62-9.2-1.55-1.23-3.56-1.89-5.07-3.14a240.84,240.84,0,0,1-37.75-39.76,10.39,10.39,0,0,1-1.61-7.79c4.28-16.67,2-32.65-4-48.44-1.79-4.72-3-9.64-4.18-13.37,3.82-1.82,6.3-3.17,8.91-4.15a11.21,11.21,0,0,1,4.95-.72c2.11.22,4.14,1.35,6.25,1.53,21.76,2,43.55,2.85,65.07-1.86,9.9-2.17,19-2.21,29,.88,15.45,4.77,28.81-.48,38.81-13.38C487.48,375.94,489,372.92,487,371Zm-86.45,6.59-15,1.49c.12-2.27.21-3.85.34-6.29l14.77,3.87C400.63,376.93,400.6,377.24,400.58,377.55Zm29.74-6.4c-4.32,0-7.73.57-10.86-.11-9.26-2-18.39-4.59-27.61-6.78a18,18,0,0,0-8-.07l34.76,8.75c0,.83-.07,1.65-.11,2.48-4,.4-8.47,2.12-12,1A182.75,182.75,0,0,0,358,368.35c17-2.82,32.9,2.11,48.93,6.34-13.31-5.58-27-9.42-41.68-10.06l15.5-.84c0-.41,0-.83,0-1.25l-13.69-1.93C374,353.88,417.7,361.32,430.32,371.15Zm-62,2.47-13.73,4.59c-.17-.48-.34-1-.5-1.46,3.37-5,9.12-3.15,13.68-4.73C368,372.55,368.17,373.09,368.35,373.62Zm-1.94-15.5c-.55,1-1.19,1.94-2.44,3.94-2.18-10.36-12.46-10.51-18.21-16l.83-.93c5.41,1.44,10.83,2.85,16.23,4.33C369.05,351.18,369.55,352.41,366.41,358.12Zm-37.47-29.56c-8.06,3.63-13.19,10.57-18,18.56a34,34,0,0,1,1.17-4.47,30.84,30.84,0,0,1,2-4.64c.26-.49.53-1,.82-1.42s.44-.7.66-1c6.11-9.06,16.63-13.45,26.85-10.83l.21-.06-.06.09,6.9,2.11-.1-.1.07,0c-2.27-4.38-1.87-9-.43-13.16.21-.6.44-1.18.68-1.76a218,218,0,0,1,15.47-29.42l8.27-5.87c1.68,6.23,2.58,12,0,17.09-5.57,10.87-11.9,21.37-17.78,32.09a4,4,0,0,1-1.42,1.63c-1.46.88-3.1-.13-4.75-.6l0,.09-.11-.11.11.11h0q3,3.14,6,6.29c-6.69-3.47-15.61-2.86-20.8,1.13,4.23,0,9.37,0,14.52.05.5,0,1,.69,2.61,1.9h-9.43l-.06.92,2.89,1.08c-12.85.78-23.73,5.32-31.82,15.86,0-5.86,3-10.06,6.79-13.44s8.51-6.28,12.84-9.33c3.15-2.23,6.34-4.4,9.52-6.59l-.1,0C337.92,326,333.16,326.66,328.94,328.56ZM346,358.42c7.52,4.34,9.34,9.51,6.06,17.44-2.42-5.56-1.69-12.89-8.89-15.69-6.06-2.36-12.12-4.68-17.08-6.59C332.22,352.68,339.28,354.55,346,358.42Zm20.21-12.89-.42,1.51-17.92-5.71-.06-1.07Zm-6.26-22.78q6.53-11,13-21.91l1.16.68-12.87,22ZM372.43,244l.45,0q-1.22,10.86-2.42,21.72l-1.16-.12Q370.86,254.82,372.43,244Zm4.9,21.91c10.66-.12,22.88,11.95,20.28,24.11-1.67,7.81-5.55,15.14-8.52,22.66-.71,1.8-1.73,3.49-2.61,5.23l.1-.1c-2.39,2.45-4.66,5-7.19,7.34-4.28,3.9-8.73,7.64-13.33,11.63a6.43,6.43,0,0,1-.35-1.39c10.49-6.6,15.67-17.8,23-27.05,2.74-3.44,3.08-8.8,3.82-13.56l-6.86,12.31-.76-.39c1.85-3.9,4-7.71,5.5-11.74,2-5.29,3-10.76-1.71-15.38-5-4.88-11.1-4.79-17.3-3.64-1.46.26-2.7,1.74-4,2.66C366.06,271.58,370.61,266,377.33,265.91Zm-24.94-48.57c5.12-.39,7.15.73,8.55,5.73l-5.64-4.46-.77.82,3.21,4-.55.6Zm-10.8,82.28a.34.34,0,0,0,.16.12,5.32,5.32,0,0,0,.66.16.24.24,0,0,0,0-.08l.09.09-.09-.09.11.05h0c1.33-3.93,2.44-7.95,3.94-11.8.22-.55.44-1.1.67-1.65,6.25-14.57,12.06-29.22,12-45.7l2,3.55c.59-2.25,1-3.8,1.41-5.35h.82q-.32,6.52-.62,13.07v1.27l-.15.79-.09.91c3.4-6.89,3.3-14.27,3.8-21.56a86.73,86.73,0,0,1-9,52l1.47.51,5.8-10.88.8.42q-8.37,17.34-16.73,34.7l-1.8-.43c.42-2.52.52-5.15,1.31-7.54,3.87-11.64,8.1-23.16,11.82-34.85,1.35-4.25,1.8-8.8,2.58-13.24,0-.29.07-.59.1-.88h0l.06-1.17v-6.42l-1.58-.13c-.3,2.16-.46,4.35-.94,6.47-1.61,7.08-2.94,14.27-5.13,21.17-2.61,8.22-6,16.19-9,24.26-.2.52-.36,1.11-.58,1.62a3,3,0,0,1-.29.57,2.06,2.06,0,0,1-.38.45l-.1.07-.13.09-.1,0-.16.07a2.6,2.6,0,0,1-1.86-.39l0,0h-.06c.81,2.56,1.81,5.09,2.53,7.67.24.87.45,1.75.61,2.63a44.89,44.89,0,0,1,.36,12.91c.43-10.86-1.68-20.57-12.38-25.6-6.71-3.16-14.06-4.38-21.32-.68,9.75-1.23,19.17-1.13,25.31,8.07,3.35,5,4.25,10.85,3.07,17.1-9.16-4.16-16.57-.91-23.63,3.53-3.29,2.07-6.14,4.84-9.62,7.63,1.41-8.39,17.28-16.73,29.38-16.11-.79-12.8-11.65-17.33-31.23-12.41l3.27-5.54-.57-.74c-2,1.5-4,2.92-5.87,4.54a31.81,31.81,0,0,1-6,4.68,41.82,41.82,0,0,1,3.27-5.83C311,287.27,331.48,285.67,341.59,299.62Zm-27.25,10.5c.88,2.29,1.26,3.29,2.1,5.46-4.93-4.09-7.91-1-11,1.77l-.68-1.21Zm-17.64,4.26,8.61-8C306.3,311.35,303.8,313.68,296.7,314.38ZM321.19,303l11.75,11.12C323.69,316.78,320.87,314.25,321.19,303Zm-29.42-7.81-.67-1.21c4.74-6.6,7.13-6.94,16.69-2.19-1.89,1.54-3.7,2.95-5.43,4.45s-3.1,2.88-5.75,5.35c1.49-2.48,2.2-3.67,2.91-4.87l-.75-.67-7.19,8.07-1.11-.74c2.86-4,5.72-7.92,9.36-12.94Zm-2.23,78.66q1.35,8.85,2.71,17.69l-1,.25q-1.91-8.75-3.8-17.5Zm-7.72-62.87a65.64,65.64,0,0,1-1.21,7.68,9,9,0,0,1-3,3.81c.45-1.49.9-3,1.36-4.45l-1.3-.35c-2.7,5.73-3,12.08-4.35,18.31q.45-8.08.91-16.17l-1.28-.22c-.69,5.08-1.38,10.16-2.06,15.12-2.63-5.52-2.31-11.39-.65-17.19.56-2,1.8-4.43,3.43-5.21C276.07,311.13,279.08,311.32,281.82,310.94Zm-26.55,83-1.14-.21c.67-3.06,1.25-6.15,2.05-9.19.69-2.61,1.19-5.46,2.62-7.65,1-1.52,3.42-2.11,6-3.57l-7.44,30.95c-2.07-5.77,1-11.95,1.3-18.57Zm-11-75.35c-4.37-3.25-9-6.21-13.92-9.61,4.67-2.94,9.41-5,14.34-3.48a172.92,172.92,0,0,1,20.8,8.18c1.33.6,2.12,3.2,2.43,5s-.49,3.61-.56,5.43c-.3,8-5.78,7.41-10.18,4.64C252.57,325.9,248.66,321.9,244.27,318.62Zm8.37,10.82c-6.47.56-25.44-13.8-25.81-18.84Zm17.92,82.4-4.14,4.84-6.11-4.38Zm-4.82-32.47c2.16-4.52,5.1-7.69,11.14-7.14C273,378,269,380.56,265.74,379.37Zm-12.07-87.16L271.91,301l-.51,1.09-18.12-9Zm-53.16,18.27c-6,0-8.2,1.75-10,7.42-.34,1.06-1.79,1.75-2.73,2.62-.57-1.07-1.76-2.23-1.61-3.18,1.42-9.28,3.48-13.58,13.58-14.18-2.82,1.67-6,3.6-9.28,5.53l.39.45,15.52-4.26c-.17.65-.35,1.31-.53,2l2,3.63Zm12.73,7.83c-.18,2.24.84,4.57,1.27,6.65a9.17,9.17,0,0,1-5.69-10.64c1.1-5.7,3.71-10.66,9-13.76,18.68-10.95,42-7.81,56.91,8.82a21.12,21.12,0,0,1-3.93-1.64,52.13,52.13,0,0,0-31.41-9.64,22.66,22.66,0,0,0-9.41,2.63c7.18.65,14.49.67,21.51,2.11s13.7,4.32,18.81,9.61l-.63,1.24c-2.56-1.27-5.19-2.41-7.65-3.85-9.5-5.53-20-6.7-30.66-7.14C222,302.31,213.93,309.43,213.24,318.31Zm22.51,13.78c-5.68-3.92-12-6.87-18.1-10.23,0-.3,0-.59,0-.89l10.05,1.39-3.19-5,1.07-1.06L245,331.54C241.7,334.67,239.29,334.54,235.75,332.09ZM231,346.62l-.3-.55c2-4.67,4.34-9.11,10.26-9.89Zm9.43,2.72c2.9-1.9,5.22-4.5,7.79-4.78,2.27-.25,5.31,1.59,7.12,3.4s2.6,4.77,3.76,7.09Zm-27.55,44.41c-3.24-7.18-1.11-13.74,4.83-18.21a122.66,122.66,0,0,0-2.6,12.38c-.23,1.93.71,4.17,1.6,6.05,3.8,8,10.5,13.08,18,17.25l7.68,4.28C226.74,414.67,218.34,405.91,212.85,393.75Zm29.28,15.9c-9.9-.79-19.65-7.87-24-17.64,6.7,9.16,16.42,13,27.17,16.53C244.26,408.93,243.16,409.73,242.13,409.65Zm-16-17.86,10-2.47L237.3,393C236.14,395,229.44,394.53,226.09,391.79Zm13.62-5.06c-5.33-.3-10.75.91-16.13,1.44,9.88-3.66,21-1.86,30-8.09C249.34,387.65,249.36,387.27,239.71,386.73ZM274,449.41c-5.76,12.36-13.37,23.43-23.57,32.52-9.17,8.18-19.86,12.73-32.36,11.89-8.25-.56-13.75-7-13.14-15,2.56,7.08,3.91,6.62,11.89,6.72,10.59.13,19.34-3.53,27.91-8.81-8.1,7-17.68,10.25-28.2,11.22-.08.42-.17.84-.26,1.26a39.24,39.24,0,0,0,6,.91c8.93,0,17.86-1.78,23.55-8.84,10-12.4,23-22.52,29.38-37.77.1-.23.54-.32,1.77-1C275.72,445.36,274.88,447.4,274,449.41ZM284.86,436c-13.59.87-31.41-12.85-30.78-28.9,6.45,10.51,17,14.83,27.22,19.33,2.78,1.22,6.75-.23,10.16-.52a44.52,44.52,0,0,1,9.11-.27C297.47,433,292.1,435.5,284.86,436Zm12-14.55c1.61.26,3.21.51,4.81.79s3.46.63,6.28,1.14c-6.6-3.29-12.58-5.37-17.46-9s-8.76-8.72-13.08-13.17l1-1,22.12,17.48,1.12-1.33c-9.94-7.43-19.95-14.78-26.92-25.15l1.15-1.42c5.19,3.64,10.49,7.14,15.54,11,9,6.82,15.66,8.58,25.86,6.23-3.8,5-8.54,4.51-13.12,2.87-4.27-1.54-8.25-3.89-12.56-6a20,20,0,0,0,27.94,4.24c-.44,6.1-3.67,8.34-8.23,8.4.4,1.73.76,3.32,1.15,5.05h1.9C309.72,426.07,303.25,426.24,296.83,421.42ZM315,384.72l1.39-1.29,10.24,13.62a6.63,6.63,0,0,0,3.69,1.05l-1.67,1.64-2-2.69C322.26,394.73,316.62,389.08,315,384.72ZM313.19,425l2.3-.44q3.4,16.61,6.83,33.22l-2.78.41Q316.36,441.63,313.19,425Zm43,76c4.39,4.2,8.66,8.56,13.24,12.55,2.38,2.08,5,3.64,7.68-.49,1-1.5,4-1.69,6.67-2.71,2.74,2.41,2.53,5-1,7.86-7.3,6-14.77,4.47-23.19-2.11-11.8-9.2-22.46-19.87-29.69-33.32a9,9,0,0,1-.67-5.79c6.24,8.27,11.88,17.07,18.88,24.63,6,6.51,13.26,12.09,20.6,17.17,5.53,3.82,9.68,2.28,12.59-3.51-9.58,5-15.59-1.06-21.91-6.13-11.69-9.36-19.76-21.47-26.4-34.68a4.4,4.4,0,0,1-.3-1.89c0-.28.32-.55.42-.7l22.65,33.21,1.47-.81C356.89,503.16,356.53,502.05,356.18,501Zm-10.05-15.41-1,.48L338,471l1-.59Q342.57,478,346.13,485.58ZM331.1,461a45.48,45.48,0,0,0,7-27.67c-.49-9.36-3.28-18.6-5-27.69,6.59,15.56,10.61,31.71,6.23,48.83C336.09,467.29,329,477.45,317.27,484c-4.57,2.54-9.44,2.58-15.42.35l5.54-1.77c-3.32-1-6.49-1.32-9-2.76s-4.41-3.94-6.2-6.34c19.29,6.73,38.08-14.12,39.4-30.16a115.22,115.22,0,0,0-.77-22.52c-.28,1.71-.56,3.43-.7,4.25-1.56-6.39-3.31-13.52-5.05-20.64l1-.62c1,1.24,2.39,2.33,2.95,3.75,7.81,19.63,7.05,38.14-4.58,56.7-3.82,6.1-7,11.87-13.14,15.65-.3.18-.38.74-1,2C320.93,477.72,325.8,469.09,331.1,461Zm7.85-69L308.4,377.55c.32-.69.65-1.37,1-2.05,3.72,1.25,7.41,2.64,11.19,3.71,5.18,1.47,10.51,2.45,15.61,4.13,2.47.81,4.57,2.76,7.22,4.43Zm10.31-1.6c-2.24-.61-4-2.86-5.59-5.32,7.94,2.73,15.45,6.35,23.76,0l-15.59-1.46c10.83-2.18,22.16-1.39,32.13-9.17-1.14,7.57-7.22,8.08-12,10l.61,1.11,8.29-2.16c.85,4.79-.8,7.11-6,8.07A57.3,57.3,0,0,1,349.26,390.48ZM464.89,374,451,378.26C454.9,371.85,459.91,373,464.89,374Zm-24.25,14.27c5.91-.33,11.54-.3,17.05-1.1a9.81,9.81,0,0,0,1.05-.22c2.37-.64,4.61-2.18,6.91-3.25l-.57-.15c-5.1-.64-10.21-1.2-15.27-2.06-.85-.15-1.46-1.64-2.17-2.61l-.19,0,.09-.09a1.13,1.13,0,0,0,.1.13l17.4,4.66h0l.71.09-.09.07h11.44C476.78,390.6,453.89,395.16,440.64,388.28Z"/><path class="cls-1" d="M132.24,270.93c-5.48,3.95-11.15,7.66-16.36,11.92a12.8,12.8,0,0,1-11.13,2.8c-18.84-3.39-38.4-22.42-41.45-41.47-2-12.2,3.14-22.11,13.29-29.17s22.53-7.64,31.88-1.58c8.74,5.66,13.88,4.93,21.86-1.84,4.74-4,9.89-8.13,15.58-10.33,8.14-3.15,14.44-2,16.43,8.64,1.33,7.17,1.32,13.88-2.51,20.22S152,242.73,148.13,249l.11-.1L132.14,271Z"/><path class="cls-1" d="M148.13,249c3.78-4.9,7.69-9.72,11.29-14.76,1.69-2.37,2.79-5.17,4.16-7.78l1.55.62c-1.93,5.2-3.86,10.41-6.34,17.07l12.65-15c.43,2.71.6,3.78.89,5.56l2.83-3.81,1,.46-3.72,8.41-.77-3.41a9.55,9.55,0,0,0-1.75,1.49c-12.13,17.29-24.14,34.67-36.4,51.86-3.17,4.44-7.11,8.33-10.71,12.48l.07-.06c-1.83-3.61-5.48-6.44-4.16-11.42.3-1.09-1.86-2.84-3.25-4.81,1.33-.28,2.49-.47,3.62-.78s3-.68,3-1c0-7,7.51-7.9,10.06-12.74a1.29,1.29,0,0,0,0-.49l-.1.11c8.09-5.39,11.09-14.48,16.1-22.11Zm-20.79,36.63,1.84,1.43,14-18.72-1.69-1.28ZM156,250l-1.56-1.82L146,255.35l1.63,1.87Z"/><path class="cls-1" d="M114.49,299.63c-6.21.92-11-.54-13-7.5Z"/><path d="M554.19,276.4c.37-.24,1-.77,1.09-.67,5.84,4.43,12,4.39,18.25,1.17,3.7-1.91,6.05,1.54,9.14,1.82,4.67.41,9.47,1.41,14,.69,2-.31,3.32-4.29,4.15-7.14-1.43,1.73-2.86,3.47-4.88,5.94,0-4.64-.07-8,0-11.41.12-4.53,1.67-7.91,6.61-9.21,21.2-5.56,36.65,8.11,33.33,30.66a67.09,67.09,0,0,1-8.7,24.63c-13.28,21.7-30.19,40.5-49.72,56.89-1,.84-1.56,2.25-2.81,4.14a76.53,76.53,0,0,1-7-5c-20.25-17.69-37.35-37.89-49.12-62.27A62.2,62.2,0,0,1,512.65,280c-.15-10.94,6.4-17.25,15.23-22l.63.7c-.24,1.38-1.12,3.07-.62,4.07,3.66,7.31,7.68,14.36,14.39,19.51,5.54,4.25,10.87,8.79,16.15,13.37,4.37,3.79,8.53,7.82,12.8,11.72,1.93,1.77,3.91,3.47,5.87,5.2l1.15-.92-4-30.11c-8.06,3-14.83,3.21-20.52-3Zm63.63-4,1.12.94c-6.92,10.39-15.74,19.07-25,27.35-1.48,1.32-2.36,3.32-3.52,5,1.9,1.12,3.67,2.64,5.72,3.26a102.72,102.72,0,0,0,10.22,2.07c-6,2.68-9.52,5.77-11.2,12.36-1.81,7.08,1.77,10.93,6.57,15.54h-3.83l3.66,5.41,22.79-28.67-13.86-3.62a27.51,27.51,0,0,1,10.44.12c3.39.61,5.54-.32,7.22-3.53A52.55,52.55,0,0,0,634,276.33c-1.65-11.68-14-20.59-25.52-18.85-6.16.94-9.19,5.79-6.87,11.29,1.92,4.56.57,8.67-2.91,11.17-3.8,2.72-8.54,4.13-14,6.64v15.89c3.14-1.49,5.77-2.09,7.47-3.67,5.34-5,10.35-10.35,15.45-15.6C611,279.64,614.42,276,617.82,272.42Zm-75.54,25.07-17.12-12.21,1.16-1.47,33.09,24.5.86-.62-36.51-44.08c-15.66,18.55-1.16,51.6,19.68,71.66l14.95-14.21a73.46,73.46,0,0,1-10.46,13.39c-2.44,2.56-3.17,4.53-.15,7.4,3.61,3.42,6.5,7.57,9.94,11.18,5.32,5.58,10.83,11,16.26,16.43a27.89,27.89,0,0,0,1.14-9.87c-.24-6.11.41-12.49-1.12-18.27-2.25-8.47-5.91-16.59-9.37-24.69a10.49,10.49,0,0,0-5-5c-10.81-4.72-21.79-9.05-32.7-13.54-1.34-.55-2.63-1.22-3.95-1.84C529.4,295.82,535,300.3,542.28,297.49Zm57.71,48c-2.26-3.65-4.35-7-6.46-10.43a15.3,15.3,0,0,0-1.12-1.64c-3.72-4.61-7.91-3.92-11,.87-6.59,10.05-3.62,20.2-1.73,30.44l1.49,1Zm-20.37-38.82,1,0q1.2-9.8,2.41-19.6c.44-3.5-1.43-5-5.06-5.79ZM515.18,290c.65-6.39,1.47-14.45,2.19-21.56C513.38,275.13,513.72,283.32,515.18,290Z"/><path d="M601,353.93l34.89-45.51c.43.35.87.69,1.31,1C628.25,326.74,615.3,340.91,601,353.93Z"/><path d="M554.19,276.4l-.45,2.21c-3.57-3.38-4.58-7.67-2.19-11.73,2.75-4.69.27-6.59-3.11-8.63-6.76-4.08-13.36-2.71-19.93.51l-.63-.7c7.61-5.49,17.65-5.21,24.2.68,2.42,2.18,3.69,4.29,1.52,7.69C551.58,269.59,551.21,273.24,554.19,276.4Z"/><path d="M148.24,248.93c-5,7.63-8,16.72-16.1,22.11Z"/><path d="M127.34,285.66l14.16-18.57,1.69,1.28-14,18.72Z"/><path d="M156,250l-8.39,7.22L146,255.35l8.46-7.17Z"/><path class="cls-1" d="M579.62,306.64,578,281.27c3.63.75,5.5,2.29,5.06,5.79q-1.21,9.79-2.41,19.6Z"/><path class="cls-1" d="M515.18,290c-1.46-6.63-1.8-14.82,2.19-21.56C516.65,275.5,515.83,283.56,515.18,290Z"/></g><g id="Layer_4" data-name="Layer 4"><path d="M.39,469.81c.87.14,1.76.2,2.61.42,3.89,1,5.72-.05,5.94-4.17.46-8.4.68-16.81.89-25.23.18-7.58.2-15.16.32-22.74.06-3.34.19-6.68.29-10.22C18,411,23,416.74,28.69,422.24,31.26,413.29,38.2,408,42.74,401c6.87-10.51,17.66-13.64,29.63-13.47,9.57.14,17.71,4.18,25.25,9.7a4.62,4.62,0,0,0,2.45,1c-.7-3-1.26-6.06-2.15-9-4.07-13.61-8.46-27.1-14.48-40-.84-1.79-.92-3.93-1.35-5.91l.84-.4a25.54,25.54,0,0,1,1.88,2c6.24,8.14,12.53,16.25,18.66,24.48,4.31,5.81,8.7,11.59,12.5,17.74,8.56,13.86,13,28.86,12.6,45.38a102.07,102.07,0,0,1-10.44,43.18c-4.17,8.46-4.61,17-3.24,25.93,2.12,13.86,8.45,26.12,15,38.17,8.8,16.08,18,32,27.24,47.78A60.86,60.86,0,0,0,166,599.06c2.78,2.84,6.78,3.71,10.86,3.65,8.13-.12,15.57-3,23.14-5.53,7.21-2.36,14.53-4.44,21.8-6.64a4.41,4.41,0,0,1,.8-.18c2.95-.37,6.13-.88,8,2.1s-.42,5.26-2.25,7c-6,5.66-12,11.32-18.37,16.46-12.62,10.11-26.45,18.46-40.63,26.17-13.13,7.14-26.58,13.64-41,17.95a26.45,26.45,0,0,1-5.67.94c-4.39.33-6.58-2.76-4.43-6.7a32.48,32.48,0,0,1,5.82-7.59c6.36-6.19,13.16-11.94,19.39-18.26A69.8,69.8,0,0,0,153.25,616c2.25-3.66,3.13-8.11,1-12.32-3.68-7.15-7.2-14.42-11.39-21.27-9.57-15.63-19.31-31.16-29.35-46.49C107.75,527.11,101,519.11,92.35,513c-6.67-4.76-13.81-8.14-22.25-8.41-20.16-.65-38.41-7.2-55-18.5A54.78,54.78,0,0,1,0,470.52Zm77.88,18.38h.09v-2.8c-1.78-3.64-2.67-3.66-5-.08a23,23,0,0,0-1.6,2.87c-1.37,2.92-1.09,3.43,2.06,4.11.54.11,1.23.16,1.54.51,2,2.29,4.47,1.63,6.92,1.45,1.63-.11,2.35-.76,2.57-2.5a30.48,30.48,0,0,1,1.68-6.8c1.11-2.94,2.57-5.75,3.89-8.64-2.7-.86-4.55.07-5.67,2.8-.14.35.68,1.1,1,1.66C85.47,485.29,83.25,488.15,78.27,488.19Zm23.81-74a15.77,15.77,0,0,0-2.57,2.48,3,3,0,0,0-.38,2.45,30.31,30.31,0,0,0,3,3.92c1.64,2.06,3.1,1.93,3.91-.55s1.11-4.82,1.71-7.21c1-3.86.68-7.05-2.62-10.09-7.77-7.17-15.88-13.57-26.57-15.7-10.07-2-20.06-1.12-28,5.35-6.15,5-10.64,12.05-15.87,18.18l.68.7c2.16-.72,4.33-1.41,6.47-2.18.47-.17,1.17-.56,1.23-.94.58-3.54,2.52-1.62,3.92-.93A36.34,36.34,0,0,1,51,412.31l.5-1.34c1.65.27,3,.43,4.27.71.95.2,2.32.28,2.72.92,2.55,4,6,2,8.4.66,3.7-2.07,6.9-1.62,10.7-.27l-1.37,1.57c2.71,1.37,5.27,2.77,7.92,4,4.1,1.87,5.77,4.5,4.84,8.39-.33,1.37-1.84,2.6-1.81,3.87.08,3.5-2.06,4.59-4.77,5.41a9.53,9.53,0,0,0-1.53.77l.19.65,7-1.54c3.37-.75,5.5-2.58,5.62-6.26,0-1.9.13-3.8.33-5.68a36.73,36.73,0,0,1,1-7C96,414.46,99,413.22,102.08,414.16ZM8.33,475.68l14.79,5.37,3.17-8.32a6.78,6.78,0,0,0,.68-1.79c.37-5.58.77-11.17.92-16.76,0-1-1-2.81-1.66-2.91-1.94-.27-2.16-1.54-2.34-2.86-.35-2.53-.59-5.08-.73-7.63-.25-4.8,2.66-8.45,4.67-12.42s2-3.88-1.23-6.61c-1-.88-1.93-1.95-3-2.83-3.13-2.65-6.29-5.28-9.49-7.85a10,10,0,0,0-2.45-.95c.28,3.48.62,6.48.76,9.48a117.7,117.7,0,0,1-1.16,21.61c-1.06,7.76-.68,15.71-1.17,23.56C9.91,468.08,9.06,471.35,8.33,475.68ZM159.82,597.12c-.46-1-.71-1.69-1.06-2.31q-22.22-38.92-44.51-77.8c-1-1.72-3-2.88-4.47-4.3-.34-1,0-2.43,0-3.9a5,5,0,0,0-.91-2.84c-1.22-1.58-2.46-3.46-4.15-4.27a3.52,3.52,0,0,0-4.76,2c1.72-.23,3.36-.91,4.66-.5s2.78,1.91,2.78,2.95c0,2.23-.19,5.12-1.55,6.56-2.38,2.51-2.87,2.76-.64,5.66,1.62,2.11,3.43,4.09,4.83,6.33q20.88,33.13,41.62,66.37C153.54,594.05,155.78,596.39,159.82,597.12Zm63.4-4.77-.32-.69a36.16,36.16,0,0,0-4.17.82c-9.23,3-18.44,6.06-27.67,9.06-3.57,1.17-7.4,1.77-10.69,3.45-13.22,6.75-26.31,13.66-36.61,24.88-5.24,5.71-11.46,10.53-17.11,15.89-2.2,2.08-4.07,4.5-6.09,6.77l.5.63c1.75-.64,4.64-.89,5-2,.84-2.39,2.69-2.51,4.28-3.17a69,69,0,0,0,25-16.94c-1.94-.08-3.85.24-5.75.26-.73,0-1.47-.64-2.2-1,1.76-2.18,1.33-5.8,5.07-6.77a19,19,0,0,0,6.15-3.36c2-1.42,3.44-3.52,5.45-4.84,4.24-2.78,8.69-5.24,13.5-8.09l.31,2.71a4.42,4.42,0,0,0,1.21-.41c1.89-1.45,4.29-1.91,5.56-4.69.68-1.48,4.38-1.64,6.75-2.24a2,2,0,0,1,1.78.73,2.34,2.34,0,0,1-.47,1.92c-1.29,1.55-2.87,2.87-4,4.49-.63.88-.65,2.21-.95,3.33l1.11.74,24.81-16,.48.62c-2.09,1.65-4.16,3.32-6.28,4.93s-4.26,3.14-6.95,5.11A136.24,136.24,0,0,0,223.22,592.35ZM96.07,449.05c-1.48.87-2.82,1.59-4.07,2.44-.72.49-1.61,1.84-1.9,1.71-1.67-.8-3.81-.29-5-2.74-1.08-2.27-1.95-5.11-5.21-5.95a8.25,8.25,0,0,0-5.48.38c-1.53.57-4.1.71-5.12-.19-2.2-1.95-3.93-2.89-6.74-1.91-.46.16-1,.42-1.42.26-3.78-1.57-7.54-1.29-11.48-.22.77,3.33.27,6.51,2.08,9.65,1.13,2,1.45,3,3.69,2a19.41,19.41,0,0,1,2.58-.7l-.36,2.78,1.48-.39c1.27,1.26,2.53,3,2.93,2.83,1.94-.86,2,1.73,3.3,1.51,2.49-.44,3.52.69,3.74,3a5.92,5.92,0,0,0,.78,1.76l3.68-4c-1.82.45-3.85,1.35-4.17-1.27-.3-2.46-.45-5.17,1.73-7.21,1.1-1,2.09-2.17,3.41-3.56-2.91.28-5.69,1-7.3-1.62,3,0,5.92-.15,8.85.12a5.83,5.83,0,0,1,3.43,1.83c2.94,3.27,7,3.81,10.88,4.94a2.25,2.25,0,0,0,1.58-.23c2.45-1.38,4.85-2.84,7.47-4.4-2.61-4.64-8.73-7.11-6.7-13.77l-14.15,5.06c1.86,1.4,3.83,2.26,4.88,3.77,2.36,3.42,6,1.65,8.75,2C94.29,447.23,95,447.65,96.07,449.05Zm25.51-11.4a6.46,6.46,0,0,0,.94-1.46c4.38-14.69,2.45-28.92-4.16-42.41-3.12-6.35-7.47-12.14-11.61-17.94-6.33-8.86-13-17.51-19.48-26.23-.81-1.07-1.79-2-2.69-3a41,41,0,0,0,4.06,8.11c2.51,4.16,4.86,8.43,7.61,12.41,3.42,4.95,7.17,9.66,10.79,14.46a10.94,10.94,0,0,0,1.58,1.87c4.18,3.55,4.25,6,.7,9.15.72,5,1.73,9.69,1.92,14.39a14.83,14.83,0,0,0,1.79,6.68c2.11,4,3.91,8.21,5.71,12.39a40,40,0,0,1,1.43,4.78l.64,0L122.65,420C124.22,426.07,122.56,431.76,121.58,437.65ZM112,413.43l-1,.23a20.47,20.47,0,0,0-.74,2.21,24.76,24.76,0,0,1-10.27,15.4c-2.33,1.68-3.21,3.74-4,6.16-.49,1.45-.12,2.13,1.36,2.63a50.07,50.07,0,0,0,10.77,2.5,8.2,8.2,0,0,0,6.64-1.81c3.23-2.55,5.23-5.59,4-10-.55-1.92-.6-4-1.37-5.85C115.78,421,113.83,417.25,112,413.43ZM42.2,485.29c7.31,3.62,14,6.53,21.68,6.5a6.75,6.75,0,0,0,6-3.33A66.23,66.23,0,0,0,74,482c.72-1.49.63-3.38.9-5.09-1.8-.23-3.64-.83-5.38-.62-2.78.34-5.48,1.27-8.23,1.86-1.44.31-3,1.05-4.21-.69-.18-.27-1.27-.2-1.73.07C51.17,479.94,47,482.43,42.2,485.29ZM25.06,437.13l10.28-3.33,1,.86-1.85,1.53h4.82c-1.14,1.83-1.86,3.11-2.7,4.31-2.4,3.44-2.88,3.46-6.16,1a6.33,6.33,0,0,0-2.43-.53l-.33,1.29,7.36,2.7-2.56,1c-.4,1.92-.76,3.62-1.12,5.32l.78.14,1.36-2.12c1.41,2.31,2.82,1.83,4.3-.09,2.14,3.72,5.18,1.57,7.79,1.5l1.11,2.55,1,.19c.48-1.38,1.32-2.74,1.38-4.14a55.89,55.89,0,0,0-.56-6.28,22.5,22.5,0,0,1,.17-3l-4.61-.79-.17.7,2,.94L43,444.38c-.12-3.47-.7-6.34-.18-9s2.13-5.23,3.41-8.17c-2.09,1.47-3.84,2.77-5.65,4-2.66,1.76-4.89-.5-7.25-1-.47-.1-.45-2.19-.71-3.35-.42-1.89-.89-3.77-1.33-5.65C31.79,427.36,26.19,431.07,25.06,437.13Zm53.3,1.1c-9.7-4-15.17-9.26-14.81-14.17l2.94,4,.77-.5a48.14,48.14,0,0,0-2.5-4.71c-2-2.93-4.15-5.74-6.21-8.63-1.4-2-3.56-1.92-4.88,0s-2.79,3.9-4.18,5.82c.2.14.78.85,1.24.78,3.59-.57,2.86,2.12,3.09,4s0,4.1.6,5.95c1,3,2.64,5.83.75,9.34Zm30-31.06a16.29,16.29,0,0,0,.15-2.37c-.42-3.43-1-6.86-1.29-10.3-.09-1,0-2.43.66-2.94,1.83-1.49,1.54-3.12.54-4.6a84.77,84.77,0,0,0-5.4-6.86c-3.18-3.75-6.44-7.44-10.12-11.67,2.72,9.41,5.86,17.88,7.44,26.63C101.31,400.54,105.07,403.07,108.34,407.17ZM37,469c-.31.35-1.13,1.78-1.57,1.67-2.41-.6-4.06.78-6,1.67-2.12,1-4.58,4.24-4.16,6.46.11.57,1.11,1.26,1.78,1.38a61.72,61.72,0,0,0,6.51.73c2.62.18,5.29.39,7.61-1.72l-1.18-2,.31-.56,3,1.73,2.51-9.69-2.31-1.09c0,1.3.32,2.76,0,2.91a4.85,4.85,0,0,1-3.07.31A18,18,0,0,1,37,469Zm3.49-14.57c-.4-1-1-1.15-4.91-.91l-1.39-1.68-4.73,5.54,1,.81,1.76-2.84,1.33,2.78,2.2-1.6c1.2,2.6,2.76,1.66,4.4.11,1,2.43,2.57,3,4.58,1.53.66.73,1.15,1.73,1.76,1.81.81.11,2.37-.36,2.46-.81a39.21,39.21,0,0,0,.3-6.09l-3.59,3.76C44.9,451.52,44.9,451.52,40.45,454.47Zm43.41-30.8a5.38,5.38,0,0,0-3.66-5,41,41,0,0,1-6.91-3.91c-1.86-1.24-3.31-1.19-4.81.63.76.89,1.32,2,2.21,2.47a10.26,10.26,0,0,1,4.51,4.89c.56,1.07,2.56,1.78,4,1.92S82.18,424.08,83.86,423.67ZM49.92,470.29c-.55,1.08-.85,2.5-1.4,2.61-3.23.61-2.89,3.54-4.56,5.81,1.91.41,3.53,1.3,4.66.88A41.68,41.68,0,0,0,56,475.53a2.64,2.64,0,0,0-.44-2.21A60.65,60.65,0,0,0,49.92,470.29Zm121.17,152c-.55.49-1.34,1.21-2.66,2.38l3.92-.17v1.83l5.54-3.28-3.9-1.71,9.83-7.82-.68-.85c-1.92,1.39-3.76,2.92-5.79,4.13-1.35.8-2.83,2.37-4.6.45-.24-.26-1.2-.12-1.65.14-1.1.63-2.11,1.43-3.46,2.38ZM112.38,464.52c0-.69,4.9-9.82,5.94-11a5.94,5.94,0,0,0-1.42.39c-5.82,3.56-8.89,2.81-12.23-3a2.78,2.78,0,0,0-.24-.49c-.41-.41-.79-1-1.28-1.13-.31-.07-1.15.61-1.12.9a2.66,2.66,0,0,0,.87,1.53c4,3.66,4.44,6.31,1.95,11.08a5.18,5.18,0,0,0-.26,1.5C107.49,458.21,109.91,464.16,112.38,464.52Zm-2.63,12.42,1.2.42a28.71,28.71,0,0,0,7-14.14c.29-1.7-.66-3.61-1-5.43-.93,1.54-2.21,3-2.73,4.64-1.35,4.33-2.35,8.76-3.54,13.13A5.15,5.15,0,0,1,109.75,476.94Zm-27,24.75a50.16,50.16,0,0,0,27.63-17C102.32,492.22,92.86,497.43,82.73,501.69ZM90.59,470c.62.13,1.2.44,1.44.27,2.07-1.51,4.1-3.09,6.09-4.72.18-.15.07-1-.17-1.21a1.7,1.7,0,0,0-1.44-.28c-2.56,1.31-4.8.8-6.85-1.34-.22,3.8-.22,3.8,1.83,5ZM27.9,486.4l.3-1c-3.35-.86-6.83-1.39-10-2.66s-6.16-3.27-9.22-5l-.62,1c3.19,2.08,6.38,4.18,9.58,6.25.14.09.43.16.53.08,2.11-1.63,3.9.26,5.83.54C25.5,485.76,26.69,486.12,27.9,486.4Zm28.47-25.35c-.93-1.58-1.72-3.93-2.43-3.91-2.06.06-3,1.89-3.54,5.32,1.77.06,3.53.05,5.28.21a19.29,19.29,0,0,1,2.85.67l.75-4Zm-11.58-43.2c-1.63-4.13-3.28-4.77-7.4-3.33-1.77.62-1.78,1.69-1.22,2.91Zm34.14,59,1.19.37c1.22-2.49,2.51-4.95,3.58-7.5.19-.46-.5-1.3-.79-2-.57.43-1.39.73-1.66,1.3a50.22,50.22,0,0,0-2.18,5.57A8.61,8.61,0,0,0,78.93,476.9ZM66.07,466.7l-.39-3.13c-.58.08-1.46-.05-1.69.27a14.3,14.3,0,0,0-1.73,3.45c-.07.2.91.94,1.5,1.13a17.65,17.65,0,0,0,3.08.38L68,467Zm40.29,26.69-.52-.9a68,68,0,0,0-14.25,9.66ZM156.08,610c4.36,1.38,12.47-3.6,13.21-8.08A19.13,19.13,0,0,1,156.08,610ZM94.72,366.79l-.92.79,9.47,11,.71-.6Zm-1,113.83-.89-.11c-.1,1.67-.21,3.35-.32,5.08,6.13-.89,6.13-.89,6.49-3l-4.64,1.33ZM209.26,609.33l-.46-.65-13.45,9.5.36.51ZM97.3,461.24c.7-.88,1.75-1.71,2.11-2.78a2.69,2.69,0,0,0-1-2.45c-1-.38-2.24,0-3.09,0Zm-80,19.49c4.09,2,8.28,3.39,12.77,2.38Zm60-40.23-.09-.92-10.5.91.09,1ZM54.74,466.05l-.93-.74a3.08,3.08,0,0,0-3.08,3c0,.34.8.74,1.23,1.11Zm44-36.12.59.54,4.42-4.17C100.81,426.1,99.28,427.46,98.78,429.93Zm54.55,212-.51-.74c-2.64.24-4.5,2.17-6.52,3.14l4.41-.87.26.78Zm-23.85,15.75.22.63,9.42-3.14-.29-.84ZM61.58,466c.24-1.45.41-2.46.58-3.47-.6-.08-1.64-.38-1.74-.19a7.7,7.7,0,0,0-.85,2.77C59.55,465.3,60.61,465.6,61.58,466ZM160.24,642.5l.2.3L171.87,636l-.18-.3ZM45.92,482.05l-.09-1c-1.6-.77-3.22-1.68-5.08,1.2Zm115,150.26-4.37,3.54.24.46,5.14-2.3ZM58.51,468.45c-3.69-.29-4.19.28-3,3.3ZM162.75,600.62l-5.38,1.28C158.41,603.57,160.57,603.19,162.75,600.62Z"/><path class="cls-1" d="M102.08,414.16c-3.1-.94-6.12.3-7,3a36.73,36.73,0,0,0-1,7c-.2,1.88-.28,3.78-.33,5.68-.12,3.68-2.25,5.51-5.62,6.26l-7,1.54-.19-.65a9.53,9.53,0,0,1,1.53-.77c2.71-.82,4.85-1.91,4.77-5.41,0-1.27,1.48-2.5,1.81-3.87.93-3.89-.74-6.52-4.84-8.39-2.65-1.22-5.21-2.62-7.92-4L77.63,413c-3.8-1.35-7-1.8-10.7.27-2.35,1.31-5.85,3.38-8.4-.66-.4-.64-1.77-.72-2.72-.92-1.29-.28-2.62-.44-4.27-.71l-.5,1.34A36.34,36.34,0,0,0,47,409.64c-1.4-.69-3.34-2.61-3.92.93-.06.38-.76.77-1.23.94-2.14.77-4.31,1.46-6.47,2.18l-.68-.7c5.23-6.13,9.72-13.17,15.87-18.18,7.94-6.47,17.93-7.35,28-5.35,10.69,2.13,18.8,8.53,26.57,15.7,3.3,3,3.6,6.23,2.62,10.09-.6,2.39-.95,4.87-1.71,7.21s-2.27,2.61-3.91.55a30.31,30.31,0,0,1-3-3.92,3,3,0,0,1,.38-2.45A15.77,15.77,0,0,1,102.08,414.16Z"/><path class="cls-1" d="M8.33,475.68c.73-4.33,1.58-7.6,1.78-10.91.49-7.85.11-15.8,1.17-23.56a117.7,117.7,0,0,0,1.16-21.61c-.14-3-.48-6-.76-9.48a10,10,0,0,1,2.45.95c3.2,2.57,6.36,5.2,9.49,7.85,1.05.88,1.94,1.95,3,2.83,3.24,2.73,3.23,2.69,1.23,6.61s-4.92,7.62-4.67,12.42c.14,2.55.38,5.1.73,7.63.18,1.32.4,2.59,2.34,2.86.7.1,1.68,1.91,1.66,2.91-.15,5.59-.55,11.18-.92,16.76a6.78,6.78,0,0,1-.68,1.79l-3.17,8.32Z"/><path class="cls-1" d="M159.82,597.12c-4-.73-6.28-3.07-8.13-6q-20.76-33.21-41.62-66.37c-1.4-2.24-3.21-4.22-4.83-6.33-2.23-2.9-1.74-3.15.64-5.66,1.36-1.44,1.57-4.33,1.55-6.56,0-1-1.6-2.59-2.78-2.95s-2.94.27-4.66.5a3.52,3.52,0,0,1,4.76-2c1.69.81,2.93,2.69,4.15,4.27a5,5,0,0,1,.91,2.84c0,1.47-.37,2.94,0,3.9,1.51,1.42,3.47,2.58,4.47,4.3q22.37,38.84,44.51,77.8C159.11,595.43,159.36,596.11,159.82,597.12Z"/><path class="cls-1" d="M223.22,592.35a136.24,136.24,0,0,1-22.36,16.18c2.69-2,4.84-3.51,6.95-5.11s4.19-3.28,6.28-4.93l-.48-.62-24.81,16-1.11-.74c.3-1.12.32-2.45.95-3.33,1.17-1.62,2.75-2.94,4-4.49a2.34,2.34,0,0,0,.47-1.92,2,2,0,0,0-1.78-.73c-2.37.6-6.07.76-6.75,2.24-1.27,2.78-3.67,3.24-5.56,4.69a4.42,4.42,0,0,1-1.21.41l-.31-2.71c-4.81,2.85-9.26,5.31-13.5,8.09-2,1.32-3.49,3.42-5.45,4.84a19,19,0,0,1-6.15,3.36c-3.74,1-3.31,4.59-5.07,6.77.73.35,1.47,1,2.2,1,1.9,0,3.81-.34,5.75-.26a69,69,0,0,1-25,16.94c-1.59.66-3.44.78-4.28,3.17-.38,1.12-3.27,1.37-5,2l-.5-.63c2-2.27,3.89-4.69,6.09-6.77,5.65-5.36,11.87-10.18,17.11-15.89,10.3-11.22,23.39-18.13,36.61-24.88,3.29-1.68,7.12-2.28,10.69-3.45,9.23-3,18.44-6.07,27.67-9.06a36.16,36.16,0,0,1,4.17-.82Z"/><path class="cls-1" d="M96.07,449.05c-1-1.4-1.78-1.82-3.83-2.07-2.77-.33-6.39,1.44-8.75-2-1-1.51-3-2.37-4.88-3.77l14.15-5.06c-2,6.66,4.09,9.13,6.7,13.77-2.62,1.56-5,3-7.47,4.4a2.25,2.25,0,0,1-1.58.23c-3.85-1.13-7.94-1.67-10.88-4.94a5.83,5.83,0,0,0-3.43-1.83c-2.93-.27-5.9-.11-8.85-.12,1.61,2.63,4.39,1.9,7.3,1.62-1.32,1.39-2.31,2.54-3.41,3.56-2.18,2-2,4.75-1.73,7.21.32,2.62,2.35,1.72,4.17,1.27l-3.68,4a5.92,5.92,0,0,1-.78-1.76c-.22-2.34-1.25-3.47-3.74-3-1.28.22-1.36-2.37-3.3-1.51-.4.18-1.66-1.57-2.93-2.83l-1.48.39L58,453.8a19.41,19.41,0,0,0-2.58.7c-2.24,1-2.56-.05-3.69-2-1.81-3.14-1.31-6.32-2.08-9.65,3.94-1.07,7.7-1.35,11.48.22.37.16,1-.1,1.42-.26,2.81-1,4.54,0,6.74,1.91,1,.9,3.59.76,5.12.19a8.25,8.25,0,0,1,5.48-.38c3.26.84,4.13,3.68,5.21,5.95,1.16,2.45,3.3,1.94,5,2.74.29.13,1.18-1.22,1.9-1.71C93.25,450.64,94.59,449.92,96.07,449.05Z"/><path class="cls-1" d="M121.58,437.65c1-5.89,2.64-11.58,1.07-17.64l-1.84,10.86-.64,0a40,40,0,0,0-1.43-4.78c-1.8-4.18-3.6-8.37-5.71-12.39a14.83,14.83,0,0,1-1.79-6.68c-.19-4.7-1.2-9.37-1.92-14.39,3.55-3.17,3.48-5.6-.7-9.15a10.94,10.94,0,0,1-1.58-1.87c-3.62-4.8-7.37-9.51-10.79-14.46-2.75-4-5.1-8.25-7.61-12.41a41,41,0,0,1-4.06-8.11c.9,1,1.88,1.93,2.69,3,6.53,8.72,13.15,17.37,19.48,26.23,4.14,5.8,8.49,11.59,11.61,17.94,6.61,13.49,8.54,27.72,4.16,42.41A6.46,6.46,0,0,1,121.58,437.65Z"/><path class="cls-1" d="M112,413.43c1.82,3.82,3.77,7.58,5.4,11.48.77,1.82.82,3.93,1.37,5.85,1.25,4.4-.75,7.44-4,10a8.2,8.2,0,0,1-6.64,1.81,50.07,50.07,0,0,1-10.77-2.5c-1.48-.5-1.85-1.18-1.36-2.63.81-2.42,1.69-4.48,4-6.16a24.76,24.76,0,0,0,10.27-15.4,20.47,20.47,0,0,1,.74-2.21Z"/><path class="cls-1" d="M42.2,485.29c4.82-2.86,9-5.35,13.16-7.76.46-.27,1.55-.34,1.73-.07,1.22,1.74,2.77,1,4.21.69,2.75-.59,5.45-1.52,8.23-1.86,1.74-.21,3.58.39,5.38.62-.27,1.71-.18,3.6-.9,5.09a66.23,66.23,0,0,1-4.16,6.46,6.75,6.75,0,0,1-6,3.33C56.25,491.82,49.51,488.91,42.2,485.29Zm7.58-3.14c.53,1.48.85,2.36,1.21,3.35l4.85-1.87-.21-.68Z"/><path class="cls-1" d="M25.06,437.13c1.13-6.06,6.73-9.77,6.24-16,.44,1.88.91,3.76,1.33,5.65.26,1.16.24,3.25.71,3.35,2.36.54,4.59,2.8,7.25,1,1.81-1.2,3.56-2.5,5.65-4-1.28,2.94-2.88,5.45-3.41,8.17s.06,5.52.18,9l2.91-3.47-2-.94.17-.7,4.61.79a22.5,22.5,0,0,0-.17,3,55.89,55.89,0,0,1,.56,6.28c-.06,1.4-.9,2.76-1.38,4.14l-1-.19-1.11-2.55c-2.61.07-5.65,2.22-7.79-1.5-1.48,1.92-2.89,2.4-4.3.09l-1.36,2.12-.78-.14c.36-1.7.72-3.4,1.12-5.32l2.56-1-7.36-2.7.33-1.29a6.33,6.33,0,0,1,2.43.53c3.28,2.45,3.76,2.43,6.16-1,.84-1.2,1.56-2.48,2.7-4.31H34.53l1.85-1.53-1-.86Z"/><path class="cls-1" d="M78.36,438.23l-23.19,1.95c1.89-3.51.22-6.33-.75-9.34-.6-1.85-.36-4-.6-5.95s.5-4.58-3.09-4c-.46.07-1-.64-1.24-.78,1.39-1.92,2.85-3.83,4.18-5.82s3.48-2,4.88,0c2.06,2.89,4.23,5.7,6.21,8.63a48.14,48.14,0,0,1,2.5,4.71l-.77.5-2.94-4C63.19,429,68.66,434.24,78.36,438.23ZM63.71,434.8l-6.2-10.45a38.06,38.06,0,0,0,1.84,9C60.29,436.41,61.39,436.69,63.71,434.8Z"/><path class="cls-1" d="M108.34,407.17c-3.27-4.1-7-6.63-8-12.11-1.58-8.75-4.72-17.22-7.44-26.63,3.68,4.23,6.94,7.92,10.12,11.67a84.77,84.77,0,0,1,5.4,6.86c1,1.48,1.29,3.11-.54,4.6-.62.51-.75,2-.66,2.94.33,3.44.87,6.87,1.29,10.3A16.29,16.29,0,0,1,108.34,407.17Z"/><path class="cls-1" d="M37,469a18,18,0,0,0,3.48,1.81,4.85,4.85,0,0,0,3.07-.31c.31-.15,0-1.61,0-2.91l2.31,1.09-2.51,9.69-3-1.73-.31.56,1.18,2c-2.32,2.11-5,1.9-7.61,1.72a61.72,61.72,0,0,1-6.51-.73c-.67-.12-1.67-.81-1.78-1.38-.42-2.22,2-5.49,4.16-6.46,1.93-.89,3.58-2.27,6-1.67C35.83,470.82,36.65,469.39,37,469Zm-2.31,7.54a35.84,35.84,0,0,0-5.25-2.14c-.57-.13-1.49.73-2,1.34-.2.23.25,1.49.36,1.49C29.84,477.13,31.93,476.88,34.65,476.58Z"/><path class="cls-1" d="M78.27,488.19c5,0,7.2-2.9,7.48-7.41-.36-.56-1.18-1.31-1-1.66,1.12-2.73,3-3.66,5.67-2.8-1.32,2.89-2.78,5.7-3.89,8.64a30.48,30.48,0,0,0-1.68,6.8c-.22,1.74-.94,2.39-2.57,2.5-2.45.18-5,.84-6.92-1.45-.31-.35-1-.4-1.54-.51-3.15-.68-3.43-1.19-2.06-4.11a23,23,0,0,1,1.6-2.87c2.37-3.58,3.26-3.56,5,.08,0,.93,0,1.87,0,2.8l-3.29,2.92c1.6,1.29,2.54,3.14,4.56,2.44Z"/><path class="cls-1" d="M40.45,454.47c4.45-3,4.45-3,5.21,2.41l3.59-3.76a39.21,39.21,0,0,1-.3,6.09c-.09.45-1.65.92-2.46.81-.61-.08-1.1-1.08-1.76-1.81-2,1.51-3.54.9-4.58-1.53-1.64,1.55-3.2,2.49-4.4-.11l-2.2,1.6-1.33-2.78-1.76,2.84-1-.81,4.73-5.54,1.39,1.68C39.45,453.32,40.05,453.44,40.45,454.47Z"/><path class="cls-1" d="M83.86,423.67c-1.68.41-3.22,1.17-4.67,1s-3.43-.85-4-1.92a10.26,10.26,0,0,0-4.51-4.89c-.89-.45-1.45-1.58-2.21-2.47,1.5-1.82,3-1.87,4.81-.63a41,41,0,0,0,6.91,3.91A5.38,5.38,0,0,1,83.86,423.67Z"/><path class="cls-1" d="M49.92,470.29a60.65,60.65,0,0,1,5.62,3,2.64,2.64,0,0,1,.44,2.21,41.68,41.68,0,0,1-7.36,4.06c-1.13.42-2.75-.47-4.66-.88,1.67-2.27,1.33-5.2,4.56-5.81C49.07,472.79,49.37,471.37,49.92,470.29Z"/><path class="cls-1" d="M171.09,622.28l-3.46-2.52c1.35-1,2.36-1.75,3.46-2.38.45-.26,1.41-.4,1.65-.14,1.77,1.92,3.25.35,4.6-.45,2-1.21,3.87-2.74,5.79-4.13l.68.85L174,621.33l3.9,1.71-5.54,3.28v-1.83l-3.92.17C169.75,623.49,170.54,622.77,171.09,622.28Z"/><path class="cls-1" d="M112.38,464.52c-2.47-.36-4.89-6.31-7.79-.24a5.18,5.18,0,0,1,.26-1.5c2.49-4.77,2-7.42-1.95-11.08a2.66,2.66,0,0,1-.87-1.53c0-.29.81-1,1.12-.9.49.12.87.72,1.28,1.13a2.78,2.78,0,0,1,.24.49c3.34,5.81,6.41,6.56,12.23,3a5.94,5.94,0,0,1,1.42-.39C117.28,454.7,112.38,463.83,112.38,464.52Z"/><path class="cls-1" d="M109.75,476.94a5.15,5.15,0,0,0,.91-1.38c1.19-4.37,2.19-8.8,3.54-13.13.52-1.67,1.8-3.1,2.73-4.64.39,1.82,1.34,3.73,1,5.43a28.71,28.71,0,0,1-7,14.14Z"/><path class="cls-1" d="M82.73,501.69c10.13-4.26,19.59-9.47,27.63-17A50.16,50.16,0,0,1,82.73,501.69Z"/><path class="cls-1" d="M90.59,470l.9-2.31c-2-1.17-2-1.17-1.83-5,2,2.14,4.29,2.65,6.85,1.34a1.7,1.7,0,0,1,1.44.28c.24.18.35,1.06.17,1.21-2,1.63-4,3.21-6.09,4.72C91.79,470.48,91.21,470.17,90.59,470Z"/><path class="cls-1" d="M27.9,486.4c-1.21-.28-2.4-.64-3.62-.81-1.93-.28-3.72-2.17-5.83-.54-.1.08-.39,0-.53-.08-3.2-2.07-6.39-4.17-9.58-6.25l.62-1c3.06,1.69,6,3.69,9.22,5s6.67,1.8,10,2.66Z"/><path class="cls-1" d="M56.37,461.05l2.91-1.72-.75,4a19.29,19.29,0,0,0-2.85-.67c-1.75-.16-3.51-.15-5.28-.21.52-3.43,1.48-5.26,3.54-5.32C54.65,457.12,55.44,459.47,56.37,461.05Z"/><path class="cls-1" d="M44.79,417.85l-8.62-.42c-.56-1.22-.55-2.29,1.22-2.91C41.51,413.08,43.16,413.72,44.79,417.85Z"/><path class="cls-1" d="M78.93,476.9a8.61,8.61,0,0,1,.14-2.23,50.22,50.22,0,0,1,2.18-5.57c.27-.57,1.09-.87,1.66-1.3.29.67,1,1.51.79,2-1.07,2.55-2.36,5-3.58,7.5Z"/><path class="cls-1" d="M66.07,466.7l2,.3-1.18,1.8a17.65,17.65,0,0,1-3.08-.38c-.59-.19-1.57-.93-1.5-1.13A14.3,14.3,0,0,1,64,463.84c.23-.32,1.11-.19,1.69-.27Z"/><path class="cls-1" d="M106.36,493.39l-14.77,8.76a68,68,0,0,1,14.25-9.66Z"/><path class="cls-1" d="M156.08,610A19.13,19.13,0,0,0,169.29,602C168.55,606.44,160.44,611.42,156.08,610Z"/><path class="cls-1" d="M94.72,366.79,104,377.94l-.71.6-9.47-11Z"/><path class="cls-1" d="M93.71,480.62l.64,3.3L99,482.59c-.36,2.11-.36,2.11-6.49,3,.11-1.73.22-3.41.32-5.08Z"/><path class="cls-1" d="M209.26,609.33l-13.55,9.36-.36-.51,13.45-9.5Z"/><path class="cls-1" d="M97.3,461.24l-2-5.21c.85,0,2.11-.4,3.09,0a2.69,2.69,0,0,1,1,2.45C99.05,459.53,98,460.36,97.3,461.24Z"/><path class="cls-1" d="M17.26,480.73,30,483.11C25.54,484.12,21.35,482.76,17.26,480.73Z"/><path class="cls-1" d="M77.29,440.5l-10.5,1-.09-1,10.5-.91Z"/><path class="cls-1" d="M54.74,466.05,52,469.43c-.43-.37-1.25-.77-1.23-1.11a3.08,3.08,0,0,1,3.08-3Z"/><path class="cls-1" d="M98.78,429.93c.5-2.47,2-3.83,5-3.63l-4.42,4.17Z"/><path class="cls-1" d="M153.33,641.93,151,644.24l-.26-.78-4.41.87c2-1,3.88-2.9,6.52-3.14Z"/><path class="cls-1" d="M129.48,657.68l9.35-3.35.29.84-9.42,3.14Z"/><path class="cls-1" d="M61.58,466c-1-.41-2-.71-2-.89a7.7,7.7,0,0,1,.85-2.77c.1-.19,1.14.11,1.74.19C62,463.55,61.82,464.56,61.58,466Z"/><path class="cls-1" d="M160.24,642.5l11.45-6.79.18.3-11.43,6.79Z"/><path class="cls-1" d="M45.92,482.05l-5.17.24c1.86-2.88,3.48-2,5.08-1.2Z"/><path class="cls-1" d="M160.87,632.31l1,1.7-5.14,2.3-.24-.46Z"/><path class="cls-1" d="M58.51,468.45l-3,3.3C54.32,468.73,54.82,468.16,58.51,468.45Z"/><path class="cls-1" d="M162.75,600.62c-2.18,2.57-4.34,3-5.38,1.28Z"/><path d="M49.78,482.15l5.85.8.21.68L51,485.5C50.63,484.51,50.31,483.63,49.78,482.15Z"/><path d="M63.71,434.8c-2.32,1.89-3.42,1.61-4.36-1.45a38.06,38.06,0,0,1-1.84-9Z"/><path d="M34.65,476.58c-2.72.3-4.81.55-6.92.69-.11,0-.56-1.26-.36-1.49.54-.61,1.46-1.47,2-1.34A35.84,35.84,0,0,1,34.65,476.58Z"/><path d="M78.27,488.19l1.35,5.37c-2,.7-3-1.15-4.56-2.44l3.29-2.92Z"/></g><g id="Layer_3" data-name="Layer 3"><path d="M398.91,168a13.27,13.27,0,0,1-.09,1.84c-.61,2.68.37,4.66,2.44,6.37,3,2.47,6.11,4.92,6.87,8.69a13.35,13.35,0,0,0-2,2.29c-1.32,2.55-2.23,2.86-4.89,1.06l.26,4.06c5,.16,9.68-.91,14,3,3.55,3.26,8.47,5,12.65,7.57,5.08,3.15,10,6.53,15,9.77,1.14.73,2.4,1.28,4.22,2.23,0-5.37.16-10.18,0-15-.46-11.5-1.05-23-1.63-34.5-.2-3.94-.72-4.4-4.44-4.07-1.25.12-2.43.53-2.89-1.22-.07-.27-.88-.31-1.31-.53-1-.53-2.33-.86-2.91-1.7-1.07-1.56-.88-3,.94-4.37.74-.53,1-2.3.83-3.36-.42-2.1-1.5-4.06-2-6.16-.57-2.34.34-3,2.76-3a10.68,10.68,0,0,0,4.41-.82c6.45-2.93,13.07-2.6,19.59-.79,3.78,1,7.34,3,10.92,4.67a27.18,27.18,0,0,0,19.74,1.62c6.14-1.77,12.31-3.45,18.31-5.62,4.92-1.78,5.54-3.85,3-8.37-2.87-5.09-2.23-9.74.5-14.72,2.81-5.14,5-10.62,7.41-16a18.8,18.8,0,0,0,.72-3.17A21.13,21.13,0,0,0,510.37,106a35.12,35.12,0,0,0-6,18.56c-.21,11.21-11,20.43-21.87,18a117.61,117.61,0,0,1-17.26-5.65,46.58,46.58,0,0,0-31.3-1.27,8.94,8.94,0,0,0-3.55,1.95c-2.95,2.88-4.21,2.8-6.32-.74-.39-.66-.74-1.34-.9-1.65,2-1.81,3.68-3.55,5.57-5.05a8.6,8.6,0,0,1,3.29-1.38,42.21,42.21,0,0,1,31.11,4.32,139.41,139.41,0,0,0,16.57,7.33c11.25,4.38,22.05-3.63,22.7-15.16A47.08,47.08,0,0,1,517.21,93a123.13,123.13,0,0,1,11.28-9.47c.92-.7,3.27-.92,3.89-.3a9.65,9.65,0,0,1,2.07,4.7,4.46,4.46,0,0,1-.94,2.89,21.51,21.51,0,0,0-3.58,10.44c-.1,1.44,0,3.65-2.85,2.56-.61-.23-2.05.86-2.64,1.67-2.92,4-5.68,8-8.49,12.07l.34.63c4-1.47,8.13-2.63,11.92-4.5s3.63-2.18,3.13-6.31a6.06,6.06,0,0,1,1.85.8,3.46,3.46,0,0,0,4.25.75,2.31,2.31,0,0,1,3.3,1c.49.78,1.72,1.11,3.4,2.12-2.14,1-3.8,1.76-5.21,2.41a7.44,7.44,0,0,1,1.68.38c.42.18,1.06.86,1,1-.52,1.08-1.65,2-1.74,3.1-.15,1.74-.92,2-2.34,1.91-.26,0-.68-.11-.75,0-1.17,1.88-3.32,1.52-4.89,2.29a4,4,0,0,1-4.25-.16c-2-1-4-2-6.41-.9-.51.24-1.45-.54-2.22-.72-1.08-.25-2.19-.38-3.29-.56-.15,1-.62,2.11-.41,3a12.62,12.62,0,0,0,7.13,8.74c2.46,1.26,4.83,2.72,7.21,4.13a5.4,5.4,0,0,1,2,1.57c.68,1.2,1.57,2.7,1.33,3.86-.2,1-1.8,2.09-3,2.33-4.39.92-8.88,1.39-13.29,2.24-9.27,1.79-18.53,3.58-27.74,5.62a44.34,44.34,0,0,1-13.11.71,78.38,78.38,0,0,0-15,.59c-2.26.27-4,2.07-5.31,4.33-3.89,6.93-4.38,14.48-4.44,22.12-.09,11.16-.09,22.33-.06,33.49,0,3.35.66,3.78,4,4,10,.69,16.7-4.88,22.85-11.76,4.1-4.58,8.57-8.82,12.84-13.24,4.85-5,11.16-5.89,17.65-6.19a55.79,55.79,0,0,1,7.54,0,32.5,32.5,0,0,0,23.8-7.14C548,172.8,556.21,166.15,564,159c5.81-5.34,9.33-12.44,12.21-19.74a3.78,3.78,0,0,0-.17-3.08c-1.83-2.68-3.95-5.17-6-7.82-1.64,1.31-3.44,2.89-5.39,4.26-1.54,1.09-3.38,1.76-4.88,2.88a24.49,24.49,0,0,0-4.05,3.9c-4.71,5.64-8.78,11.94-14.12,16.88-6.37,5.88-13.32,11.69-21.95,13.89-5.35,1.36-11.15,1.12-16.76,1.27a52.34,52.34,0,0,0-23.4,5.9,4.17,4.17,0,0,1-1,.35c-.15,0-.33-.05-1.13-.21,1.21-.87,2-1.81,3-2.09,6.21-1.8,12.39-3.85,18.72-5a57.77,57.77,0,0,1,13.73-.48c6,.34,11-2.06,15.7-5.26a121.84,121.84,0,0,0,12.95-9.52c3.44-3.09,6.17-7,9.13-10.57,1.43-1.73,2.63-3.65,4-5.46,1.76-2.35,3.46-4.6,6.56-5.62a6.67,6.67,0,0,0,3.59-3.74,14.61,14.61,0,0,1,6-7.56,14.19,14.19,0,0,0,2.71-2c2.92-3.22,2.38-6.64-1.36-8.89-1.46-.87-3-1.56-5.21-2.66,1.13-.1,1.71-.34,2.09-.15a42.7,42.7,0,0,1,6.56,3.56c2.25,1.68,2.31,4.63.51,7.55a43,43,0,0,1-3.44,4.89,3,3,0,0,0-.31,4,49.82,49.82,0,0,0,5.49,7.11c3.63,3.53,4.09,4.85,1.9,9.53-.44.92-.88,1.84-1.47,3.1.85,0,1.34,0,1.82,0,4.77.24,7,3.29,5.89,7.93s.38,8.85,3.29,12.54c1.07,1.36,2.47,2.48,3.4,3.91,3.42,5.28,2.16,11.28-3.52,15.07a120.5,120.5,0,0,1-15.64,9.21c-9.41,4.39-19,8.62-29.39,10.07-6.49.9-13.09,1-19.64,1.4-4.84.28-9.69.32-14.53.66a7.41,7.41,0,0,0-6.31,4c-6.36,11.46-16,18.86-28.4,22.83-5.45,1.73-10.48,4.34-13.82,9.18a25.06,25.06,0,0,0-3.28,7.19c-.61,2.05-1.42,2.71-3.26,1.73s-4-1.85-5.44-3.31c-4.92-4.89-11.08-6.44-17.61-7.35-6.16-.87-12.41-1.5-18.43-3-6.4-1.56-10.11-8.07-9.25-14.61a44,44,0,0,0,.5-7.24,10,10,0,0,0-1.31-5.19,8.55,8.55,0,0,1-1.63-6.35c.94-6.84-2.25-13.35-1.64-20.06a22.19,22.19,0,0,0-2.4-12.58A4.69,4.69,0,0,1,398.91,168ZM580,188.05l-29.93,10.22c2.88-.41,7.39-.75,11.76-1.73,6.68-1.51,13.18-3.64,18.71-7.94l6.85-4.18-.35-.55ZM427.3,216.43l-.39,1.19a25.59,25.59,0,0,1-4.32-1.25c-4.4-2.13-8.77-1.64-13.09,0a3.89,3.89,0,0,0-2.15,2.37c-.5,2.62-.5,5.33-.83,8-.53,4.21,1.35,7.38,5.51,7.94a42.78,42.78,0,0,0,11.89.36c14.19-2.13,28.36-4.46,42.45-7.15,13.06-2.5,24.68-8,33.45-18.43,4.09-4.87,9.35-6.72,15.52-7.07s12.48-.61,18.55-1.8a203.19,203.19,0,0,0,22.56-6c8.55-2.73,17-5.87,25.35-9.14a16,16,0,0,0,8.69-7.83c1.1-2.2.67-3.91-.93-5.64a24.38,24.38,0,0,1-3.66-4.67c-1.08-2-2.38-2.32-4.26-1.51a31.8,31.8,0,0,0-11.29,7.68,93.88,93.88,0,0,1-7.35,7.31c-5,4.43-10.27,8.51-17.07,9.94a37.69,37.69,0,0,0-4.45,1.42c-6.43,2.18-12.91,4.1-19.82,2.8-4.76-.89-9.5-1.84-14.25-2.78s-9.62-.79-13.67,2.27a64.41,64.41,0,0,0-9.46,8.44c-4.56,5.13-8.92,10.49-14.92,13.94-7.5,4.31-15.37,5.83-23.34.92-4.72-2.9-9.42-5.83-14.06-8.86a17.55,17.55,0,0,0-8.91-3.22c-2.5-.12-5-.69-7.48-.76a41.63,41.63,0,0,0-8.51.38c-1,.19-1.8,1.9-2.69,2.91a18.08,18.08,0,0,0,3.1,1.14c2.31.4,5.2-.77,6.32,2.62.12.34,1.06.45,1.64.59,1.77.43,3.59.68,5.31,1.25C423,214.54,425.12,215.54,427.3,216.43Zm86-94.66-.75.2a22.64,22.64,0,0,0,.33,3.61,50.49,50.49,0,0,0,1.69,5.18c2.57,7.09,2.08,8.27-4.85,11.48a8.85,8.85,0,0,1-1,.38c-6,1.78-11.89,3.7-17.91,5.27A29.12,29.12,0,0,1,472,146.83c-6-2.4-11.81-5.49-18.49-5.69-4-.12-8-.18-10.89,3.39-2.31,2.86-.95,7.1,2.64,7.48a31.45,31.45,0,0,0,8.45-.13c6.27-1,12.5-1.88,18.84-.93a52.44,52.44,0,0,0,21.81-1.51c7.08-1.91,14.41-2.86,21.64-4.17,4.17-.76,8.38-1.29,12.53-2.14a3.81,3.81,0,0,0,2.63-2c.19-.71-.94-2-1.79-2.67a51,51,0,0,0-4.54-2.5C519.3,132.68,513.63,129.47,513.31,121.77Zm-7.13,67.94L518,192.17c5.17,1.06,10.28,1.29,15.3-.81,4.3-1.81,8.67-3.46,13-5.32a51.13,51.13,0,0,0,18.42-13.2,55,55,0,0,1,5.69-5.3c3.54-3,7.23-5.91,10.68-9,2.09-1.89,2-4.24.26-5.63s-3.69-.71-5.47,1.51A27.45,27.45,0,0,1,571,159c-2.69,2-5.67,3.67-8.34,5.73-7.8,6-15.45,12.23-23.29,18.19a34.19,34.19,0,0,1-22.64,6.83C513.06,189.59,509.35,189.71,506.18,189.71Zm-57,25.9.36,0a11,11,0,0,0,.27-1.86c-.12-3.29-.5-6.58-.43-9.85.2-9.08.7-18.15.81-27.23.07-5.69.43-11.21,3.09-16.4.3-.6-.36-1.7-.68-3-2.35,3.7-3.15,4.08-5.75,2.73C447.63,178.71,448.41,197.16,449.18,215.61Z"/><path d="M410.06,113.3c-1.35,5.4-2.62,10.82-4.1,16.18-.47,1.74-.24,2.87,1.4,3.58,5.17,2.26,6.3,7,7.23,11.83a3.75,3.75,0,0,1-.35,2.5c-3.45,5.38-7,10.7-10.54,16-.21.31-.71.42-1.15.67-1.64-1.94-1.24-3.78.17-5.36,2.39-2.68,3.5-7.7,1.75-11-2.91-5.48-2.74-10.74-.49-16.47,1.81-4.64,2.54-9.7,3.87-14.53a23.57,23.57,0,0,1,1.74-3.71Zm-3.79,35.26a21,21,0,0,0,.59,2.92,12,12,0,0,0,1.08,1.9,7.56,7.56,0,0,0,1.87-1.44,14.62,14.62,0,0,0,1.95-3.6,13.73,13.73,0,0,0,.31-3.23c-1.22.13-2.69-.11-3.59.5C407.41,146.32,406.82,147.77,406.27,148.56Z"/><path d="M552.22,100.66c-2.47-1.27-4.89-2.68-7.45-3.78-3-1.3-3.95-3.74-4.59-6.68a79.34,79.34,0,0,0-3-10.47,9.92,9.92,0,0,0-3.06-4c-4.6-3.68-9.35-7.16-14-10.74a9.18,9.18,0,0,1-1.24-1.39l.48-.57c2,1.38,4.05,2.74,6.05,4.15,3.95,2.8,7.92,5.57,11.78,8.49A5.65,5.65,0,0,1,539,78.56c.84,3.08,1.5,6.22,2.08,9.36,1,5.24,4.45,8.21,8.93,10.36.9.44,1.77.92,2.66,1.39Z"/><path d="M419.2,181.48l-13.93-3.94c5.81-3.85,9.61,1.16,14.17,2.86Z"/><path d="M421.61,161.57l4.18-5.12.83.66-4.14,5.15Z"/><path class="cls-1" d="M427.3,216.43c-2.18-.89-4.33-1.89-6.56-2.64-1.72-.57-3.54-.82-5.31-1.25-.58-.14-1.52-.25-1.64-.59-1.12-3.39-4-2.22-6.32-2.62a18.08,18.08,0,0,1-3.1-1.14c.89-1,1.65-2.72,2.69-2.91a41.63,41.63,0,0,1,8.51-.38c2.5.07,5,.64,7.48.76a17.55,17.55,0,0,1,8.91,3.22c4.64,3,9.34,6,14.06,8.86,8,4.91,15.84,3.39,23.34-.92,6-3.45,10.36-8.81,14.92-13.94a64.41,64.41,0,0,1,9.46-8.44c4.05-3.06,8.82-3.23,13.67-2.27s9.49,1.89,14.25,2.78c6.91,1.3,13.39-.62,19.82-2.8a37.69,37.69,0,0,1,4.45-1.42c6.8-1.43,12.06-5.51,17.07-9.94a93.88,93.88,0,0,0,7.35-7.31,31.8,31.8,0,0,1,11.29-7.68c1.88-.81,3.18-.46,4.26,1.51a24.38,24.38,0,0,0,3.66,4.67c1.6,1.73,2,3.44.93,5.64a16,16,0,0,1-8.69,7.83c-8.36,3.27-16.8,6.41-25.35,9.14a203.19,203.19,0,0,1-22.56,6c-6.07,1.19-12.35,1.45-18.55,1.8s-11.43,2.2-15.52,7.07c-8.77,10.41-20.39,15.93-33.45,18.43-14.09,2.69-28.26,5-42.45,7.15a42.78,42.78,0,0,1-11.89-.36c-4.16-.56-6-3.73-5.51-7.94.33-2.65.33-5.36.83-8a3.89,3.89,0,0,1,2.15-2.37c4.32-1.66,8.69-2.15,13.09,0a25.59,25.59,0,0,0,4.32,1.25Z"/><path class="cls-1" d="M513.31,121.77c.32,7.7,6,10.91,11.55,14.19a51,51,0,0,1,4.54,2.5c.85.63,2,2,1.79,2.67a3.81,3.81,0,0,1-2.63,2c-4.15.85-8.36,1.38-12.53,2.14-7.23,1.31-14.56,2.26-21.64,4.17A52.44,52.44,0,0,1,472.58,151c-6.34-.95-12.57-.12-18.84.93a31.45,31.45,0,0,1-8.45.13c-3.59-.38-5-4.62-2.64-7.48,2.88-3.57,6.87-3.51,10.89-3.39,6.68.2,12.51,3.29,18.49,5.69a29.12,29.12,0,0,0,18.82,1.06c6-1.57,11.95-3.49,17.91-5.27a8.85,8.85,0,0,0,1-.38c6.93-3.21,7.42-4.39,4.85-11.48a50.49,50.49,0,0,1-1.69-5.18,22.64,22.64,0,0,1-.33-3.61Z"/><path class="cls-1" d="M506.18,189.71c3.17,0,6.88-.12,10.58,0a34.19,34.19,0,0,0,22.64-6.83c7.84-6,15.49-12.18,23.29-18.19,2.67-2.06,5.65-3.7,8.34-5.73a27.45,27.45,0,0,0,4.79-4.6c1.78-2.22,3.68-2.92,5.47-1.51s1.83,3.74-.26,5.63c-3.45,3.13-7.14,6-10.68,9a55,55,0,0,0-5.69,5.3A51.13,51.13,0,0,1,546.24,186c-4.28,1.86-8.65,3.51-13,5.32-5,2.1-10.13,1.87-15.3.81Z"/><path class="cls-1" d="M449.18,215.61c-.77-18.45-1.55-36.9-2.33-55.54,2.6,1.35,3.4,1,5.75-2.73.32,1.27,1,2.37.68,3-2.66,5.19-3,10.71-3.09,16.4-.11,9.08-.61,18.15-.81,27.23-.07,3.27.31,6.56.43,9.85a11,11,0,0,1-.27,1.86Z"/><path class="cls-1" d="M580.52,188.6c-5.53,4.3-12,6.43-18.71,7.94-4.37,1-8.88,1.32-11.76,1.73L580,188.05Z"/><path class="cls-1" d="M580.52,188.6l-.54-.55,7-4.18.35.55Z"/><path class="cls-1" d="M406.27,148.56c.55-.79,1.14-2.24,2.21-2.95.9-.61,2.37-.37,3.59-.5a13.73,13.73,0,0,1-.31,3.23,14.62,14.62,0,0,1-1.95,3.6,7.56,7.56,0,0,1-1.87,1.44,12,12,0,0,1-1.08-1.9A21,21,0,0,1,406.27,148.56Z"/></g><g id="Layer_2" data-name="Layer 2"><path d="M370.32,674.28c-1.82,5.91-3.55,11.51-5.25,17,4.75-6.37,9.09-13.31,14.53-19.24,10.14-11.08,20.86-21.63,31.46-32.29,9.69-9.74,19.54-19.33,29.49-29.16,15.64,20.46,34,38.94,52.48,57.33L495,667c-1-1.86-2.4-3.62-2.85-5.61-.78-3.37-1.62-7-1.17-10.32a8.67,8.67,0,0,0-2.33-7.43c-9.42-10.91-18.91-21.76-28.29-32.71-2.93-3.43-5.51-7.14-8.41-10.59-1.33-1.58-1.27-2.81.06-4.23,8.28-8.78,13.09-19.49,17.14-30.65.34-.94,2-1.68,3.17-2s2.47.26,3.71.25a7.21,7.21,0,0,0,6.85-10.2c-.6-1.51-1.37-2.95-2.2-4.72,6.92-3.08,5.18-8.41,3.52-13.66,7.85-2.25,8.26-4.25,3.27-15.3l48.28,12.92c-3.61-3.19-8.05-6-11-10s-6.75-5.19-11.15-6c-8.33-1.61-16.62-3.39-25-5.11,4.8-5.42,9.67-10.25,13.79-15.66,12.55-16.45,20.31-35.21,24.21-55.38,1.49-7.71,5.2-13.74,9.8-19.5,3.4-4.25,7.38-8,11.74-12.72l-10.06,6c-1.77-7.79,1.44-13.72,3.9-20-33.87,29.6-56.41,67-73.79,108.47-9-9.41-17.27-18-25.49-26.57-5.55-5.8-10.92-11.77-16.66-17.36-2-1.94-4.86-3-7.34-4.41-5.83-3.35-11.68-6.68-17.32-9.9,4.35,11.51,11.4,21.88,20.2,31.17s17.33,18.4,25.65,27.24l-5.81,9.55c-4,.85-9.18,2.46-10.2,8.6-3.17.67-6.19.94-8.91,2-4,1.54-5.07,4.31-4.06,8.49a3.85,3.85,0,0,0,.43,1.44c4.12,5.41,1.25,9.38-2.34,13.61a47.87,47.87,0,0,0-6.72,10.39c-1.42,3-3.23,3.61-6.16,3.29C391,559,378.48,557.83,366,556.52c-12.71-1.34-25.42-2.77-38.14-4.1a10.79,10.79,0,0,0-4.09.12c-6.3,1.85-12.56,3.87-19.58,6.07,5.83,1.22,11.11,2.67,16.5,3.39,26.32,3.53,52.67,6.86,79,10.27.6.08,1.2.21,2.25.4-1.76,5.19-3.52,10.23-5.18,15.29C390.87,606.08,385,624.22,379,642.31a22,22,0,0,1-3.51,6.07c-7,9.3-14.14,18.53-21.24,27.77a105,105,0,0,0-8.82,12.59c.89-.89,1.83-1.73,2.66-2.68,3.73-4.27,8-7.19,14-7.91C364.83,677.82,367.37,675.72,370.32,674.28ZM321,560.81l-10.72-2C315.07,556.2,318.17,558,321,560.81Zm45.4-1.32-.15,1-45.66-4.91a19.7,19.7,0,0,1,8.28-1.39c10.71,1,21.4,2.22,32.08,3.5C362.84,558,364.62,558.89,366.43,559.49ZM404.58,448.3c3.52,2.05,7.29,4.2,11,6.43,3.55,2.14,8.37,2.37,10.67,6.77C414.22,464.28,408.82,460.44,404.58,448.3Zm110.23-23.2.86.61L501.3,446l-.88-.48Zm-12.52,27.09c-7.55,11.05-14.12,22.75-21.58,34.89,1.94-5.55,3.27-10.6,5.43-15.27,2.77-6,5.37-12.4,9.55-17.37a315.45,315.45,0,0,0,25.59-35.64c3.65-5.81,8.71-10.74,13.13-16.07l1.46,1c-2.4,4.29-4.43,8.85-7.29,12.82C520,428.53,510.62,440,502.29,452.19Zm3.31,8-.85-.59,16-23.26.84.58C516.78,445.06,512.33,453.43,505.6,460.21Zm-35.47,45.08c-2-2-.47-3,.34-4.46s1.55-2.87,2.27-4.33c2.34-4.72,4.65-9.45,7-14.18l1.19.5c-2.19,6.05-4.39,12.1-6.78,18.72l17.49-22.33.65.41-6.73,12.24.61.45L511.84,459c-1.57,3.2-3.07,6.21-4.54,9.23-7.37,15.16-17.27,28.13-32,36.95C473.51,506.26,472.2,507.33,470.13,505.29Zm22.5,14.85c.1-.38.2-.75.31-1.13l10.77,3.06-.24.95Zm-30.4-13.83q-11.69-12.53-23.36-25.07c7.58,4.54,17,6.81,20.6,17.46l-5-5.5-.46.39,8.84,12.22ZM384.15,642l16.12-15.15.88.92-15.88,15.39Zm2-11.68-2.94,10-1.4-.41,3.39-9.85ZM422.36,542c3.72,4.8,3.61,4.75.42,9.27a103.07,103.07,0,0,0-7.68,12c-8.1,15.67-13.16,32.45-17.59,49.45-1.1,4.22-3.73,8.41-3.54,12.52.22,4.93-2,7.32-6.49,9.59.47-5.55-.11-11.45,1.59-16.59,6.28-19,12.77-38,23.28-55.3.62-1,1.07-2.15,1.6-3.23l-1.17-.53-9.59,19.49-1.11-.61C406.88,565,412.9,552.6,422.36,542Zm-19.58,78.71c4.43-13.54,8.82-27.08,13.35-40.58.36-1.08,1.85-2.77,2.41-2.62,2,.51,4.61,1.22,5.49,2.73a89.94,89.94,0,0,1,5.78,13,4.36,4.36,0,0,1-.59,3.69c-2.86,3.29-5.94,6.41-9.08,9.45-5.25,5.11-10.61,10.1-15.92,15.15Zm42.91-103.06c-1.2-2.53-3.11-5.92.32-8.07,3.66-2.29,5.59.91,7.46,3.45a1.1,1.1,0,0,0,.31.2l-.06-.18,0,.07c-.08-1-.16-2.05-.25-3.28l-.11-1.35,15.52,12.18-.44.73-11.35-6.23,5.72,6.79-1.25,1-7.84-9.84v0c2,3.56,3.93,7.12,5.52,10l-6.45-3.17-.37.41L463,532.42C454.16,531,449.23,525,445.69,517.63ZM474.9,551.3l-11-11C467.47,543.66,474.59,543.14,474.9,551.3ZM444.34,538a44,44,0,0,1-4.09-3.73c-2.5-2.94-5.39-5.77-7-9.18-.88-1.86.32-4.89,1.09-7.22.21-.63,2.58-1.27,3.45-.85,6.16,3,11.07,7.18,12.5,15l-13.05-4.84,7.92,9.91Zm-14.75,3.54c-.72,2.14-.18,3.11.94,4.56,4.31,5.6,8.34,11.33,5.89,19-5-10-10.05-19.93-14.92-30-1.05-2.16-1.46-4.64-2.22-7.14A10.36,10.36,0,0,1,429.59,541.51Zm14.87,25.67c-1-4.21-1.82-8-2.77-12.19,3.7,2.33,3.9,6.39,4.78,10C446.61,565.55,445.1,566.51,444.46,567.18Zm3.22-5.55,5.19,1-3.35,6.81C448.85,566.62,448.33,564.43,447.68,561.63Zm8.47-12.46-12.85,1.29c-.83-2.05-1.66-4.08-2.8-6.86,2.67-.43,5.27-1.7,6.9-.93C450.51,544.15,453.08,546.79,456.15,549.17Zm-11.36,36.38c.41-2.1.33-4.46,1.31-6.25,5-9.09,10.29-18,11.29-28.73,2.88.79,3.69,2.46,3,5.07-1.33,4.83-2.36,9.75-3.93,14.49A37.38,37.38,0,0,1,446,585.84Zm-4.64-.79c-1.27-4.36-2.21-7.63-3.15-10.88l8.23,4C443.77,579.88,442.3,581.86,440.15,584.76Zm-8.38,8c-4.08-6.67-6.79-13.88-6.86-22,0-3.84,1.59-6.22,4.14-8.33l4.38,8.74c-3.68,7.12,2.18,12.52,5.1,18.7-2.72-.55-2.72-.55-8.47-9.32l-1,.39c1.85,4.64,3.39,9.43,5.65,13.86a138.5,138.5,0,0,0,8.26,13.42c2.74,4.13,5.75,8.1,8.64,12.13l-1.35.9C444.05,611.79,437.68,602.42,431.77,592.76Zm-73.66,80.5c4.48-5.56,8.33-10.83,12.71-15.61,4.19-4.57,8.32-9.68,13.55-12.7,11.11-6.42,18.69-16,26.63-25.55,6.31-7.62,13.88-14.19,20.89-21.23l1.7,1c-.34,1.25-.35,2.74-1.08,3.7a289.42,289.42,0,0,1-39,41.58c-6.54,5.81-13.43,11.48-18.74,18.32C370.39,668.43,365.49,671.84,358.11,673.26Z"/></g></svg>