<svg id="Hand" xmlns="http://www.w3.org/2000/svg" viewBox="0 0 2072.52 1892.52"><defs><style>.cls-1{fill:#0e0f16;}.cls-2{fill:#fffefe;}.cls-3{fill:#fff;}</style></defs><path class="cls-1" d="M573.27,1865.55s-121.21-44.49-244.84-148.07L11,1507s-50.12-133.65,63.49-260.62c0,0,43.43-93.56,26.73-217.18s140.33-170.4,140.33-170.4S552.29,611.53,522.22,548.05s-143.67-210.5,90.22-357.51S990,6.77,990,6.77s50.12,20.05,86.87,10S1154.73,51.72,1317.53,204c0,0,245.11-5.29,356.21,172.81,0,0-47.61,127,186.92,236.3,0,0,88.17,10.58,33.5,255.69,0,0,77.59,121.67,146.36,144.6,0,0,58.19,30,17.64,151.65s-33.51,213.37-33.51,213.37-172.81,328-460.24,474.35c0,0-269.8-7.06-358-134,0,0-21.16-1.76-49.38,28.21S844.94,1637.58,841.42,1597l-38.8,17.63s-19.39,239.82-176.34,269.8C626.28,1884.46,582,1911.88,573.27,1865.55Z"/><path class="cls-2" d="M598.29,1869.31h16.65a8,8,0,0,0,8-7.42l2.41-33.79a91.8,91.8,0,0,1,28.83-60.45c31.9-30,83.17-88.14,95.46-161.9C767.79,1496.69,531.92,1115,232,1192.26c-216.09,55.66-215.38,177.35-198.09,241a60.36,60.36,0,0,0,52.23,44.32h0a8,8,0,0,0,8.79-8c-.47-27.38,2.19-110,49.07-138.8a8,8,0,0,1,12,8.33L146,1393a8,8,0,0,0,1.76,6.64l69.2,81.42a8,8,0,0,0,11.71.5h0a8,8,0,0,1,13.55,6.6c-4,36.42-2.48,104,58.26,130.06a7.94,7.94,0,0,0,11-7.15c.84-30.56,13-111.86,120.33-96.44a8.33,8.33,0,0,1,3.3,1.24l143.05,92.56a8,8,0,0,1,3.64,6.43l8.59,246.76A8,8,0,0,0,598.29,1869.31Z"/><path class="cls-2" d="M708,861.23l-25.57,32.55L663.86,745s-30.23,223.23,7,237.18l-83.71,188.35L468.54,1056.55s-7-107-41.86-104.64,25.58,153.47,113.94,223.23l-65.11,11.63s-86-81.39-109.29-79.06-39.53,58.13-39.53,58.13-95.34-13.95-230.2,65.11c0,0,83.71-162.77,46.5-186l-25.58,39.53s0-144.17,116.27-207S545.27,558.94,545.27,558.94,622,624,661.54,640.32C661.54,640.32,680.14,796.12,708,861.23Z"/><path class="cls-2" d="M822,844l2.18,43.68s-205.27,251.12-13.1,371.23,244.57,100.45,382.14-126.66c0,0-141.94,255.49-240.2,303.54,0,0-194.35-198.72-246.76-192.17s-96.08-2.18-96.08-2.18l-26.21,24S642.91,990.26,822,844Z"/><path class="cls-2" d="M872.2,1575.49l152.86-155s115.74,349.39,487-78.61c0,0-207.45,351.57-338.47,338.47,0,0-131-148.49-181.25-137.57s-61.52,52.21-61.52,53.44c0,.87-6.17-5.4-41.11-7.59S872.2,1575.49,872.2,1575.49Z"/><path class="cls-2" d="M1896.35,1419.05s83-45.86-8.73,78.61c0,0,76.43-30.57,80.8-113.55,0,0,4.36-30.57,28.38-32.76s19.66,159.41-384.33,430.19c0,0-56.77,26.21-93.9,32.76s-63.32-32.76-157.22-34.94-148.49-83-148.49-83l30.57-28.39s200.9,131,312.27,91.72S1911.64,1440.89,1896.35,1419.05Z"/><path class="cls-2" d="M1582.59,1522.26s62.36-16.79,141.51-129.52S1856,1239.24,1856,1239.24l76.75-7.19s124.72-194.28,95.94-211.07c0,0-57.56,107.93-100.74,124.72s95.94-136.72-52.76-235.05c0,0,4.79,48-19.19,62.36s-62.36,45.57-76.75,100.73,45.57,57.57-98.34,275.83C1680.93,1349.57,1635.36,1462.3,1582.59,1522.26Z"/><path class="cls-2" d="M1381.93,1326.73s189.63-218.36,272-427.14c0,0,28.73,9.57,42.14-11.5s9.58,23,9.58,23S1914.42,767.42,1878,664c0,0-44-40.22-80.45,32.57,0,0-17.24,3.83,3.83-49.81,0,0-3.83-59.37-17.24-59.37s-147.49-101.52-134.08-126.43c0,0-11.49,32.57-44,49.81s65.12,74.7-109.19,386.92S1349.36,1175.41,1381.93,1326.73Z"/><path class="cls-2" d="M1571.24,369s-37.19-4.65-73.28,77.37a10.9,10.9,0,0,1-17,4.08l-.25-.21a11.22,11.22,0,0,0-16.08,1.72l-152.5,197.93a11,11,0,0,0-2.16,4.88c-1.93,11.32-7.34,54.44,19.39,69.29,24.78,13.77,37.41-80.78,75.14-126.6,8-9.76,23.58-.29,18.88,11.44-18.12,45.14-48.71,125.83-60.67,183.83-2.56,12.39,14.22,18.81,20.61,7.9C1419.21,739.34,1484,634.9,1509.49,634.9c0,0-75.47,84-89.19,142.36a300.73,300.73,0,0,0-7,41c-3.18,34.39-15.88,67.15-35.84,95.33-33.72,47.61-84.1,105.7-125.82,99.61a11.13,11.13,0,0,1-9.51-10.87c-.13-13.89-2.53-40.21-19-36.4-21.81,5-53.46,110.15-184.82,52.19a11.27,11.27,0,0,1-6.32-13.4c16-55.29,97.68-341.25,89.94-378.41-8.57-41.17,108.06-320.75,85.77-344.77-21.71-23.37-1.16-48.37-58.58-87.65a10.92,10.92,0,0,0-11-.79c-7,3.53-18.65,11.59-26.66,28.58a11.11,11.11,0,0,1-16.85,3.95C1068,205,1002.13,157.69,944.61,149a11.22,11.22,0,0,0-10.15,18.5c9.69,11.13,26.77,23.13,55.84,24.7a11.07,11.07,0,0,1,5.71,1.89c9.27,6.41,39.23,31.71,56.61,100.39a11.39,11.39,0,0,1,.05,5.32c-2.68,11.84-16.61,57.45-74.91,77.79a11,11,0,0,1-9.65-1.26c-13.69-9-53.81-35.95-53.81-41.64,0-6.86,12,61.75,27.44,72l6.89,4.59a11.16,11.16,0,0,1,3.65,14.6c-11,20.37-36.16,69.49-29.41,80.29C931.45,520,813.1,350.16,749.63,345s-101.2-10.29-102.91-41.17S614.13,333,629.56,334.73,893.71,456.51,871.42,506.25c0,0,8.5,37.09-74.55,33.28-66.9-3.06-226.13-46.6-244.49-50.43-41.17-8.58,195.54,214.41,324.18,142.37,0,0,55.12-22.7,75.53-110.66a11,11,0,0,1,9.49-8.57l13.09-1.45a11.18,11.18,0,0,0,10-11.12v-12.8A11.2,11.2,0,0,1,987.9,479l22.53-22.53a11.1,11.1,0,0,0,2.46-3.7c6-14.86,43.18-104.85,74.65-111.14,31.81-6.36-166.5,359-259.77,429.9A11.13,11.13,0,0,1,810,762.06c1.84-40.34-6.12-126.14-108.08-120.54a11,11,0,0,1-6.78-1.8C668.76,622,481.18,494.19,492.34,447.93c12-49.7-34.23-149.06,116.27-234.77.25-.14.46-.26.72-.38l101.5-49.17a10.92,10.92,0,0,0,6.25-10.54c-.31-4.69,1-10.91,8.54-15.6C739.34,128.9,941.74-6.61,1000.06.25S1020.64,14,1061.81,27.7s53.17-10.3,87.48,20.58,85.76,135.5,175,163c88.41,27.2,146.48-26.48,294.47,119.53a11.31,11.31,0,0,1,2.84,11.33C1618.59,351.81,1608.11,367.84,1571.24,369Z"/><path class="cls-1" d="M678.38,288.83S688.74,242.21,782,259.47c0,0,108.79,48.36,122.6,103.62,0,0-105.34-88.07-122.6-88.07S723.27,314.73,678.38,288.83Z"/><path class="cls-3" d="M339.38,1643.07s-8.53-87,34.11-95.51l184.19,98.92s20.47,158.61,15.35,180.78S538.92,1714.7,339.38,1643.07Z"/></svg>