<svg id="Ñëîé_1" data-name="Ñëîé 1" xmlns="http://www.w3.org/2000/svg" viewBox="0 0 100 120"><defs><style>.cls-1{fill:#fff;}.cls-2{fill:#231b1d;}</style></defs><rect class="cls-1" width="100" height="120"/><path class="cls-2" d="M72.17,107.94a.76.76,0,0,1-.52-.22s0,0-.05,0a.54.54,0,0,1-.46,0c-.08-.06-.11-.06-.11-.07l-.06,0a.51.51,0,0,1-.54.09.36.36,0,0,1-.13-.11.53.53,0,0,1-.54,0,.44.44,0,0,1-.1-.08s0,0-.07,0a.5.5,0,0,1-.17,0,.39.39,0,0,1-.27-.26,1.35,1.35,0,0,1,.24-1.12l.35-.46a3.2,3.2,0,0,0,.58-.94,6.55,6.55,0,0,1,.23-.9c0-.1,0-.18,0-.27a1.81,1.81,0,0,1,.15-.84,1.85,1.85,0,0,0,.08-.94s-.07-.29-.14-.62-.22-.89-.36-1.49c0-.11-2.32-10.38-1.73-17.24a5.67,5.67,0,0,0,0-.82,87.58,87.58,0,0,1-2.18-10.41c-.16-.94-.32-1.87-.48-2.76-.67-3.75-1.13-12.25,1.91-17.54a2.78,2.78,0,0,0,.24-.56,2.74,2.74,0,0,0,.13-.84c0-1,.06-6.3-1.59-9.41l-.06.65a32.42,32.42,0,0,1-1,5.85,2,2,0,0,0,0,.24,19.77,19.77,0,0,1-.25,2c0,.35-.1.67-.12.88s-.1.67-.16,1l-2,10a1.07,1.07,0,0,0,0,.56,11.74,11.74,0,0,1,.5,1.92c.11.59.45,2.53.09,2.67a.2.2,0,0,1-.15,0,3.15,3.15,0,0,1-.54-1.35c0,.46-.06.88-.11,1.23a9.89,9.89,0,0,1,.24,1.3c.09.23.65,1.61.37,1.87a.22.22,0,0,1-.17,0c-.29-.06-.69-.89-.85-1.24a5.43,5.43,0,0,1-.53-1.18,10.2,10.2,0,0,1-.61-3.41c0-.3,0-.62,0-1l0-2.24s.16-9.71.16-9.71c0-.34,0-.69.09-1A12.05,12.05,0,0,1,62,46.81a1.35,1.35,0,0,0,.07-.44,47.28,47.28,0,0,1,.3-6.2c.61-5.57,1.75-9.46,3-10.16a35,35,0,0,1,4.7-1.67,3.1,3.1,0,0,0,.61-.25,2.26,2.26,0,0,0,1-2.74,5.46,5.46,0,0,1-1.09-1.56,6.77,6.77,0,0,1-.78-2.59,2.45,2.45,0,0,1-.39-1,2.7,2.7,0,0,1,0-1c.06-.31.19-.5.38-.54v-.72A4.25,4.25,0,0,1,74,13.69h.48a4.25,4.25,0,0,1,4.25,4.25v.72c.18,0,.31.23.38.54a2.72,2.72,0,0,1,0,1,2.45,2.45,0,0,1-.39,1,6.75,6.75,0,0,1-.78,2.6,5.32,5.32,0,0,1-1.08,1.55,2.25,2.25,0,0,0,1,2.74,3.1,3.1,0,0,0,.61.25A35.12,35.12,0,0,1,83.11,30c1.23.7,2.37,4.59,3,10.16a49.09,49.09,0,0,1,.3,6.2,1.35,1.35,0,0,0,.07.44A12.74,12.74,0,0,1,87,49.29c0,.33.06.68.08,1L87.24,60s0,2.19,0,2.19v.08c0,.33,0,.65,0,1a9.66,9.66,0,0,1-.62,3.43,5.37,5.37,0,0,1-.53,1.18c-.15.33-.55,1.16-.84,1.22a.18.18,0,0,1-.16,0c-.28-.26.27-1.64.37-1.87a7.41,7.41,0,0,1,.24-1.3,10.21,10.21,0,0,1-.11-1.23A3.15,3.15,0,0,1,85.07,66a.2.2,0,0,1-.15,0c-.36-.14,0-2.08.09-2.67a11.74,11.74,0,0,1,.5-1.92,1.06,1.06,0,0,0,0-.56l-2-10c-.06-.32-.11-.66-.15-1s-.08-.52-.13-.88c-.1-.7-.24-1.58-.25-2a1,1,0,0,0,0-.24,32.42,32.42,0,0,1-1-5.85c0-.22,0-.44-.07-.65-1.64,3.11-1.61,8.38-1.59,9.41a3.22,3.22,0,0,0,.13.85,3.87,3.87,0,0,0,.25.55c3,5.29,2.57,13.79,1.9,17.54-.16.89-.32,1.82-.48,2.76a85.94,85.94,0,0,1-2.17,10.41,7.54,7.54,0,0,0,0,.82c.59,6.86-1.7,17.13-1.72,17.24-.14.6-.27,1.11-.36,1.49l-.15.62a1.75,1.75,0,0,0,.09.94,1.93,1.93,0,0,1,.14.84.87.87,0,0,1,0,.25c.09.29.17.59.24.92a3.2,3.2,0,0,0,.58.94l.34.44a1.41,1.41,0,0,1,.24,1.14.38.38,0,0,1-.26.26.52.52,0,0,1-.17,0h-.07a.43.43,0,0,1-.1.09.55.55,0,0,1-.55,0,.45.45,0,0,1-.13.11.51.51,0,0,1-.54-.09h-.06s0,0-.09,0a.46.46,0,0,1-.44,0c-.06,0-.08,0-.09,0a.73.73,0,0,1-.55.22l-.22,0c-.41,0-1.07-.78-1.12-1.19,0,0,0-.09,0-.13a1.2,1.2,0,0,1,0-.35,8,8,0,0,1,.08-.84,2,2,0,0,0,0-.35.67.67,0,0,1,0-.2c0-.31,0-.58,0-.83v-.12a1.66,1.66,0,0,1-.1-.56,2.48,2.48,0,0,1,.28-1.11,1.53,1.53,0,0,0,.21-.73c0-.11,0-.21,0-.32s0-.59-.09-1.46c0-.43-.88-10.56-.88-10.83A20.07,20.07,0,0,1,74.75,85,10.05,10.05,0,0,0,75,83.07a7.14,7.14,0,0,0-.06-1.14,42,42,0,0,1-.27-5.22A125.86,125.86,0,0,0,74.24,64a123,123,0,0,0-.4,12.75,46.3,46.3,0,0,1-.27,5.22,5.45,5.45,0,0,0-.06,1.14A10.94,10.94,0,0,0,73.72,85a20.71,20.71,0,0,1,.36,3.94c0,.27-.85,10.4-.89,10.83-.07.87-.08,1.21-.08,1.46s0,.21,0,.32a1.41,1.41,0,0,0,.2.73,2.35,2.35,0,0,1,.29,1.11,2,2,0,0,1-.1.56V104c0,.25,0,.52,0,.83v.2a1.35,1.35,0,0,0,0,.35,8,8,0,0,1,.08.84,1.23,1.23,0,0,1,0,.35.51.51,0,0,0,0,.13c-.06.41-.72,1.17-1.12,1.19l-.22,0Zm2.07-45.71a.12.12,0,0,1,.12.11,141.49,141.49,0,0,1,.53,14.39,41.36,41.36,0,0,0,.27,5.17,7.65,7.65,0,0,1,.06,1.18A12.41,12.41,0,0,1,75,85a19.33,19.33,0,0,0-.35,3.9c0,.21.58,7.16.88,10.81.08.88.08,1.23.09,1.48s0,.2,0,.31a1.67,1.67,0,0,1-.23.85,2.16,2.16,0,0,0-.26,1,1.56,1.56,0,0,0,.09.5,1.58,1.58,0,0,1,0,.19c0,.25,0,.52,0,.84a.54.54,0,0,0,0,.18,2.6,2.6,0,0,1,0,.4,7.74,7.74,0,0,0-.08.82.77.77,0,0,0,0,.27l0,.16c0,.32.62,1,.88,1l.22,0a.49.49,0,0,0,.37-.15.31.31,0,0,1,.2-.09.3.3,0,0,1,.16,0,.28.28,0,0,0,.21,0,.39.39,0,0,1,.21-.09.32.32,0,0,1,.21.06c.12.07.22.1.29.06a.06.06,0,0,0,0-.05.21.21,0,0,1,.17-.1.2.2,0,0,1,.13,0,.27.27,0,0,0,.32,0,.34.34,0,0,1,.33-.11s0,0,.06,0,.08-.07.1-.11a1.14,1.14,0,0,0-.21-.9c-.1-.12-.22-.27-.34-.44a3.41,3.41,0,0,1-.63-1,5.1,5.1,0,0,0-.24-.9v-.12a1.38,1.38,0,0,0,0-.2,1.6,1.6,0,0,0-.12-.73,2.09,2.09,0,0,1-.11-1.08s0-.15.16-.65.21-.89.35-1.49c0-.1,2.31-10.33,1.72-17.16a8.42,8.42,0,0,1,0-.87,86.18,86.18,0,0,0,2.17-10.42c.17-.94.33-1.87.49-2.76.77-4.33.91-12.52-1.88-17.38a2.66,2.66,0,0,1-.26-.6,3.28,3.28,0,0,1-.15-.92c0-1.45,0-6.44,1.62-9.52a1,1,0,0,1,.14-.2l.08-.1a.12.12,0,0,1,.22.07c0,.31.06.63.1,1a32.15,32.15,0,0,0,1,5.82,1.55,1.55,0,0,1,0,.29,19.79,19.79,0,0,0,.25,2c0,.35.1.67.13.89s.09.67.15,1l2,10a1.38,1.38,0,0,1-.06.7,12.32,12.32,0,0,0-.49,1.88A10.14,10.14,0,0,0,85,65.64a9.87,9.87,0,0,0,.58-2.11l0-.11a.12.12,0,0,1,.14-.1.14.14,0,0,1,.11.13A12.92,12.92,0,0,0,86,65.82a.07.07,0,0,1,0,.05,10.31,10.31,0,0,0-.24,1.31,5.54,5.54,0,0,0-.45,1.59,3.61,3.61,0,0,0,.62-1,5.15,5.15,0,0,0,.53-1.16A9.9,9.9,0,0,0,87,63.21c0-.3,0-.62,0-1v-.07l0-2.14s-.17-9.74-.17-9.74c0-.33,0-.66-.08-1a11.57,11.57,0,0,0-.53-2.43,1.59,1.59,0,0,1-.08-.53,48.48,48.48,0,0,0-.3-6.16c-.59-5.41-1.71-9.32-2.86-10a35.34,35.34,0,0,0-4.65-1.65,3,3,0,0,1-.66-.28,2.49,2.49,0,0,1-1.06-3.06l0,0a4.88,4.88,0,0,0,1-1.5,6.5,6.5,0,0,0,.77-2.54.14.14,0,0,1,0-.07,2.28,2.28,0,0,0,.37-.94,2.67,2.67,0,0,0,0-.89c0-.24-.13-.33-.19-.35a.16.16,0,0,1-.14,0,.14.14,0,0,1,0-.1v-.85a4,4,0,0,0-4-4H74a4,4,0,0,0-4,4v.85a.13.13,0,0,1-.16.12c-.1,0-.18.1-.23.34a2.7,2.7,0,0,0,0,.89,2.28,2.28,0,0,0,.36.94s0,0,0,.07a6.39,6.39,0,0,0,.76,2.53,4.83,4.83,0,0,0,1.06,1.51l0,0a2.51,2.51,0,0,1-1.06,3.06,3.14,3.14,0,0,1-.67.28,35.34,35.34,0,0,0-4.65,1.65c-1.14.65-2.26,4.56-2.85,10a46.7,46.7,0,0,0-.3,6.16,1.6,1.6,0,0,1-.09.53,13,13,0,0,0-.53,2.43c0,.33-.06.66-.08,1L61.48,60s0,2.25,0,2.25c0,.34,0,.65,0,.94a9.9,9.9,0,0,0,.59,3.33,5.25,5.25,0,0,0,.52,1.16,3.82,3.82,0,0,0,.64,1.08,5,5,0,0,0-.45-1.56,8.7,8.7,0,0,0-.25-1.35v-.05a13.87,13.87,0,0,0,.11-2.37.13.13,0,0,1,.11-.13.14.14,0,0,1,.14.1v.11a10.53,10.53,0,0,0,.58,2.11,9.55,9.55,0,0,0-.24-2.29,12.5,12.5,0,0,0-.48-1.88,1.2,1.2,0,0,1-.06-.7l2-10c.06-.33.11-.66.15-1s.07-.54.13-.9c.1-.69.23-1.56.24-2a1.6,1.6,0,0,1,.05-.29,33.06,33.06,0,0,0,1-5.82q0-.49.09-1a.12.12,0,0,1,.09-.11.12.12,0,0,1,.14,0,.86.86,0,0,0,.07.1,1,1,0,0,1,.15.2c1.63,3.08,1.65,8.07,1.61,9.52a3,3,0,0,1-.14.92,4,4,0,0,1-.26.6c-2.79,4.86-2.66,13.05-1.88,17.38.16.89.32,1.82.48,2.76a85.47,85.47,0,0,0,2.17,10.38,5.43,5.43,0,0,1,0,.91c-.59,6.83,1.7,17.06,1.72,17.16.14.6.27,1.12.36,1.49s.15.62.15.66a1.88,1.88,0,0,1-.11,1.07,1.72,1.72,0,0,0-.12.72c0,.08,0,.14,0,.2v.06a.09.09,0,0,1,0,.07,8.31,8.31,0,0,0-.24.9,3.31,3.31,0,0,1-.62,1c-.12.17-.24.32-.35.45a1.1,1.1,0,0,0-.2.89.14.14,0,0,0,.1.11s0,0,.06,0a.31.31,0,0,1,.3.09c.16.09.25.09.34,0a.2.2,0,0,1,.14,0,.18.18,0,0,1,.16.11s0,0,.06,0,.17,0,.28-.06a.25.25,0,0,1,.21-.06.49.49,0,0,1,.22.08s.11,0,.2,0a.27.27,0,0,1,.15,0,.29.29,0,0,1,.22.09.47.47,0,0,0,.36.15l.22,0c.26,0,.84-.65.89-1a.77.77,0,0,1,0-.15.77.77,0,0,0,0-.27c0-.37,0-.64-.07-.82a1.33,1.33,0,0,1,0-.4v-.18c0-.32,0-.59,0-.84v-.14a2.22,2.22,0,0,0,.1-.55,2.17,2.17,0,0,0-.27-1,1.76,1.76,0,0,1-.22-.85c0-.11,0-.21,0-.31s0-.6.08-1.48c.31-3.65.88-10.6.89-10.81a20.93,20.93,0,0,0-.35-3.9,10.38,10.38,0,0,1-.22-1.93,5.7,5.7,0,0,1,.06-1.17,43.37,43.37,0,0,0,.27-5.17,139.5,139.5,0,0,1,.52-14.39A.13.13,0,0,1,74.24,62.23Z"/><path class="cls-2" d="M25.19,108.19a1.1,1.1,0,0,1-.7-.27.12.12,0,0,0-.1,0H24.3a.66.66,0,0,1-.56,0c-.19-.1-.19-.09-.2-.09a.19.19,0,0,0-.12,0,.78.78,0,0,1-.72.11.43.43,0,0,1-.21-.18.69.69,0,0,1-.76,0,.44.44,0,0,1-.15-.1s-.06,0-.15,0a.49.49,0,0,1-.21,0,.52.52,0,0,1-.37-.34,1.73,1.73,0,0,1,.33-1.45l.51-.6a4.21,4.21,0,0,0,.82-1.28,10.41,10.41,0,0,1,.34-1.21,1.51,1.51,0,0,1-.06-.35,2.31,2.31,0,0,1,.19-1.11,2.18,2.18,0,0,0,.11-1.27s-.1-.38-.21-.8c-.57-2-2.08-7.5-2.22-9.92A22.42,22.42,0,0,1,21,83.51a7.27,7.27,0,0,1,.11-1.25,57.35,57.35,0,0,1,.18-5.77c0-.23-.06-.49-.07-.74a1.7,1.7,0,0,1,0-.22v-.11a26.16,26.16,0,0,1-1.32-7,23.88,23.88,0,0,1,.82-8.28c.22-1.52.41-2.65.59-3.59a17.9,17.9,0,0,1-.13-2.22,16.46,16.46,0,0,1,.64-4.71V45.45A5.28,5.28,0,0,0,21.45,43c-.15-.32-.3-.67-.45-1V42a10.76,10.76,0,0,1-.82,3.68,1.41,1.41,0,0,0-.16.8,7,7,0,0,1-.14,2.26c0,.08-.06.24-.1.44-.13.61-.32,1.53-.4,1.75l-2.88,7.18A11,11,0,0,1,17.2,61c.18,1.36.23,3-.1,3.43a.27.27,0,0,1-.2.12c-.5,0-.89-1.48-1.1-2.67a11.42,11.42,0,0,1-.61,2.29,8.52,8.52,0,0,1,.22,1.8A4.45,4.45,0,0,1,16,68.4a.33.33,0,0,1-.17.18c-.54.23-1.44-1.48-1.61-1.83A6.14,6.14,0,0,1,13.34,65a8.84,8.84,0,0,1-.55-4.72A11.55,11.55,0,0,1,13.53,57l.67-8.4a7.36,7.36,0,0,1,.15-.94,7.74,7.74,0,0,1,.75-1.95,1.47,1.47,0,0,0,.17-1.06,13.21,13.21,0,0,1-.06-4.81,37.41,37.41,0,0,1,1.06-5.16,6,6,0,0,1,.53-3.23c1.19-2.57,2.48-3,4.18-3.35A17.11,17.11,0,0,0,24.27,27a7.27,7.27,0,0,1,1-.49,2.66,2.66,0,0,0,.9-.61,2.17,2.17,0,0,0,.52-1.48v-.48A7.43,7.43,0,0,1,25,19.86a2.78,2.78,0,0,1-.42-1.1c-.13-.72,0-1.53.39-1.62v-.78a4.55,4.55,0,0,1,4.55-4.55H30a4.55,4.55,0,0,1,4.54,4.55v.78c.2,0,.34.24.4.57a2.86,2.86,0,0,1,0,1.05,2.78,2.78,0,0,1-.42,1.1,7.52,7.52,0,0,1-1.71,4.08v.48a2.12,2.12,0,0,0,.52,1.48,2.48,2.48,0,0,0,.9.61,6.64,6.64,0,0,1,1,.49,17.13,17.13,0,0,0,3.3,1.13c1.69.34,3,.78,4.17,3.35a5.9,5.9,0,0,1,.54,3.23,39.31,39.31,0,0,1,1,5.16,13,13,0,0,1,0,4.81,1.46,1.46,0,0,0,.16,1.06,7,7,0,0,1,.75,1.95,7.36,7.36,0,0,1,.15.94L46,57a11.93,11.93,0,0,1,.73,3.27A8.65,8.65,0,0,1,46.16,65a6.38,6.38,0,0,1-.86,1.74c-.16.32-1,2-1.6,1.8a.33.33,0,0,1-.17-.18A4.54,4.54,0,0,1,44.1,66a8.52,8.52,0,0,1,.22-1.8,10.82,10.82,0,0,1-.6-2.29c-.22,1.19-.61,2.67-1.08,2.67a.26.26,0,0,1-.22-.12c-.33-.41-.29-2.07-.1-3.43A11,11,0,0,1,43,58.15L40.15,51c-.08-.22-.28-1.13-.4-1.73,0-.21-.08-.38-.1-.46a6.74,6.74,0,0,1-.15-2.26,1.33,1.33,0,0,0-.16-.8A11,11,0,0,1,38.52,42V42c-.15.36-.3.71-.45,1a3.74,3.74,0,0,0-.37,1.66v4.93a16.5,16.5,0,0,1,.63,4.7,17.9,17.9,0,0,1-.13,2.22c.19.94.37,2.07.59,3.55a24.22,24.22,0,0,1,.82,8.32,26.16,26.16,0,0,1-1.32,7v.1a1.85,1.85,0,0,1,0,.23c0,.25,0,.51-.07.77a54.07,54.07,0,0,1,.18,5.77,6.8,6.8,0,0,1,.12,1.25,22.91,22.91,0,0,1,.36,5.86c-.14,2.42-1.65,7.86-2.22,9.91-.12.43-.21.77-.22.81a2.18,2.18,0,0,0,.11,1.27,2.32,2.32,0,0,1,.2,1.11,1.52,1.52,0,0,1-.06.32c.12.39.24.8.33,1.24a4.14,4.14,0,0,0,.83,1.28c.17.21.34.42.49.59a1.7,1.7,0,0,1,.34,1.46.53.53,0,0,1-.36.34.54.54,0,0,1-.22,0c-.09,0-.11,0-.15,0a.48.48,0,0,1-.15.1.72.72,0,0,1-.77,0,.4.4,0,0,1-.2.17.78.78,0,0,1-.72-.11.21.21,0,0,0-.12,0,.53.53,0,0,0-.17.08.66.66,0,0,1-.58,0,.12.12,0,0,0-.08,0,.16.16,0,0,0-.12,0,1.09,1.09,0,0,1-.76.26h-.32a2.46,2.46,0,0,1-1.55-1.56c0-.08,0-.15,0-.21a1.41,1.41,0,0,1-.05-.43,10.06,10.06,0,0,1,.13-1.11,1.9,1.9,0,0,0,0-.46,1.31,1.31,0,0,1,0-.28c0-.47,0-.86,0-1.21v-.07a2.24,2.24,0,0,1-.14-.74,3.06,3.06,0,0,1,.43-1.45,1.85,1.85,0,0,0,.31-1c0-.15,0-.28,0-.43a42.92,42.92,0,0,0-.35-4.56,28.91,28.91,0,0,1-.26-9.2c0-.71,0-1.47,0-2.24,0-.33,0-.66.07-1-.28-1.57-.51-3.27-.67-5a7.38,7.38,0,0,1-.36-1.19,14.93,14.93,0,0,1-.69-3.22c-.32-1.36-.59-2.82-.8-4.32-.14-1-.25-1.9-.32-2.81-.08.91-.19,1.85-.32,2.81-.22,1.5-.49,3-.81,4.33a14.75,14.75,0,0,1-.7,3.23,7,7,0,0,1-.35,1.17c-.16,1.76-.38,3.45-.67,5,0,.31.05.64.07,1C27,84,27,84.77,27,85.5a25.56,25.56,0,0,1,.24,3.78,23.81,23.81,0,0,1-.51,5.42c-.34,3.24-.34,4-.35,4.54,0,.15,0,.28,0,.43a1.85,1.85,0,0,0,.31,1,2.86,2.86,0,0,1,.43,1.45,2,2,0,0,1-.14.74v.1c0,.34,0,.73,0,1.18v.28a1.83,1.83,0,0,0,0,.46,9.76,9.76,0,0,1,.13,1.11,1.8,1.8,0,0,1,0,.43,1.55,1.55,0,0,0,0,.21,2.49,2.49,0,0,1-1.56,1.56h-.38Zm-.82-.56a.44.44,0,0,1,.29.1.79.79,0,0,0,.58.2h.32a2.26,2.26,0,0,0,1.32-1.35c0-.07,0-.15,0-.23a1.12,1.12,0,0,0,0-.35,9.57,9.57,0,0,0-.13-1.09,2.19,2.19,0,0,1,0-.51v-.26c0-.45,0-.84,0-1.18v-.13a2.11,2.11,0,0,0,.14-.72,2.61,2.61,0,0,0-.4-1.33,2.13,2.13,0,0,1-.34-1.11c0-.15,0-.28,0-.42a45.66,45.66,0,0,1,.36-4.59,24,24,0,0,0,.5-5.37,25.38,25.38,0,0,0-.24-3.76c0-.75,0-1.5-.05-2.26,0-.34,0-.67-.07-1,.29-1.61.51-3.31.67-5.07a6.75,6.75,0,0,0,.36-1.2,14.53,14.53,0,0,0,.7-3.2c.32-1.38.59-2.83.8-4.33s.34-2.79.41-4.1l0-.17a.14.14,0,0,1,.25,0l0,.15c.08,1.33.21,2.71.41,4.12s.48,3,.8,4.32A14.7,14.7,0,0,0,31.81,76a6.72,6.72,0,0,0,.36,1.18c.17,1.81.4,3.5.68,5.08,0,.35-.05.68-.07,1,0,.76-.06,1.51-.05,2.24a25.83,25.83,0,0,0-.24,3.78,25.07,25.07,0,0,0,.5,5.36,42.15,42.15,0,0,1,.36,4.6c0,.14,0,.27,0,.42a2,2,0,0,1-.34,1.11,2.71,2.71,0,0,0-.4,1.33,1.94,1.94,0,0,0,.13.68.78.78,0,0,1,0,.13c0,.35,0,.75,0,1.22a1.13,1.13,0,0,0,0,.26,2.94,2.94,0,0,1,0,.51,9.88,9.88,0,0,0-.13,1.09,1.25,1.25,0,0,0,0,.35,1.43,1.43,0,0,1,0,.22A2.3,2.3,0,0,0,34,107.92h.33a.77.77,0,0,0,.57-.2.45.45,0,0,1,.27-.1.64.64,0,0,1,.2,0,.41.41,0,0,0,.35,0,1,1,0,0,1,.29-.11.48.48,0,0,1,.26.07.53.53,0,0,0,.49.1.16.16,0,0,0,.1-.08.24.24,0,0,1,.19-.11.24.24,0,0,1,.15,0,.48.48,0,0,0,.53,0,.18.18,0,0,0,.08-.05.4.4,0,0,1,.36-.09h.11a.29.29,0,0,0,.2-.2,1.45,1.45,0,0,0-.31-1.21l-.49-.59a4.52,4.52,0,0,1-.88-1.38,8.79,8.79,0,0,0-.33-1.21.15.15,0,0,1,0-.07l0-.07a2.56,2.56,0,0,0,0-.27,2.16,2.16,0,0,0-.17-1,2.43,2.43,0,0,1-.14-1.41s.06-.25.23-.84c.56-2,2.07-7.47,2.21-9.87a22.71,22.71,0,0,0-.36-5.82,7.86,7.86,0,0,0-.11-1.25,57.49,57.49,0,0,0-.19-5.8,7.58,7.58,0,0,0,.07-.77,1.7,1.7,0,0,0,0-.22v-.13a25.93,25.93,0,0,0,1.32-7,23.49,23.49,0,0,0-.82-8.22v0c-.22-1.49-.4-2.62-.58-3.56a21.2,21.2,0,0,0,.12-2.25,16,16,0,0,0-.63-4.64v-5a4,4,0,0,1,.4-1.77c.21-.45.42-1,.62-1.48a.14.14,0,0,1,.13-.08.13.13,0,0,1,.11.11l.07.57a10.92,10.92,0,0,0,.79,3.59,1.6,1.6,0,0,1,.19.95,6.53,6.53,0,0,0,.14,2.18c0,.08.06.25.1.46.12.56.32,1.49.39,1.69l2.9,7.22a.2.2,0,0,1,0,.11,10.32,10.32,0,0,0-.71,2.85c-.28,2-.1,3.21.07,3.26s.67-1.12.94-3.17l0-.15a.12.12,0,0,1,.12-.1.12.12,0,0,1,.13.11,11.69,11.69,0,0,0,.72,3.12.09.09,0,0,1,0,.07A8.76,8.76,0,0,0,44.35,66a.07.07,0,0,1,0,0,4.33,4.33,0,0,0-.57,2.25s0,0,0,0,.67-.47,1.29-1.71a6.37,6.37,0,0,0,.85-1.7,8.57,8.57,0,0,0,.54-4.62,11.82,11.82,0,0,0-.73-3.21s-.69-8.46-.69-8.46a8.87,8.87,0,0,0-.14-.9,6.75,6.75,0,0,0-.73-1.88A1.77,1.77,0,0,1,44,44.62a12.91,12.91,0,0,0,0-4.71,37.06,37.06,0,0,0-1-5.16,0,0,0,0,1,0,0,5.7,5.7,0,0,0-.52-3.12c-1.14-2.47-2.32-2.87-4-3.2a17.58,17.58,0,0,1-3.36-1.16,6.86,6.86,0,0,0-1-.48,2.8,2.8,0,0,1-1-.67,2.37,2.37,0,0,1-.58-1.65v-.53a.19.19,0,0,1,0-.08,7.2,7.2,0,0,0,1.7-4,.19.19,0,0,1,0-.07,2.3,2.3,0,0,0,.39-1,2.61,2.61,0,0,0,0-1c0-.26-.14-.36-.21-.37a.21.21,0,0,1-.15,0,.12.12,0,0,1,0-.1v-.91A4.3,4.3,0,0,0,30,12.06H29.5a4.31,4.31,0,0,0-4.3,4.3v.91a.12.12,0,0,1-.05.1.1.1,0,0,1-.1,0c-.22,0-.38.56-.24,1.33a2.42,2.42,0,0,0,.39,1,.19.19,0,0,1,0,.07,7.27,7.27,0,0,0,1.7,4,.11.11,0,0,1,0,.08v.53a2.38,2.38,0,0,1-.59,1.65,2.72,2.72,0,0,1-1,.67,6.26,6.26,0,0,0-1,.48A16.91,16.91,0,0,1,21,28.37c-1.68.34-2.86.74-4,3.21a5.69,5.69,0,0,0-.51,3.12.07.07,0,0,1,0,0,38.61,38.61,0,0,0-1.05,5.16,12.91,12.91,0,0,0,0,4.71,1.72,1.72,0,0,1-.19,1.25,7.31,7.31,0,0,0-.87,2.78l-.67,8.42A11.39,11.39,0,0,0,13,60.32a8.33,8.33,0,0,0,.53,4.59,6,6,0,0,0,.84,1.71c.63,1.26,1.18,1.77,1.31,1.73s0,0,0,0a4.39,4.39,0,0,0-.58-2.25.07.07,0,0,1,0,0,8.12,8.12,0,0,0-.22-1.81.09.09,0,0,1,0-.07A11.66,11.66,0,0,0,15.67,61a.11.11,0,0,1,.12-.11c.07,0,.12,0,.12.1l0,.15c.28,2.05.77,3.17.95,3.17s.34-1.22.07-3.26a10.69,10.69,0,0,0-.71-2.85.14.14,0,0,1,0-.11l2.9-7.22c.08-.2.28-1.14.4-1.71,0-.2.07-.36.09-.44a6.53,6.53,0,0,0,.14-2.18A1.6,1.6,0,0,1,20,45.6,10.67,10.67,0,0,0,20.74,42l.07-.57a.14.14,0,0,1,.11-.11.12.12,0,0,1,.13.08c.21.54.42,1,.63,1.48a5.61,5.61,0,0,1,.4,2.56V49.6a16.47,16.47,0,0,0-.64,4.69,17.73,17.73,0,0,0,.13,2.21c-.18,1-.37,2.11-.59,3.6a24.17,24.17,0,0,0-.82,8.27,26.26,26.26,0,0,0,1.31,7,1,1,0,0,1,0,.16,1.7,1.7,0,0,0,0,.22c0,.24,0,.49.07.75a57.66,57.66,0,0,0-.18,5.79,7.38,7.38,0,0,0-.11,1.26,22.09,22.09,0,0,0-.36,5.84c.13,2.4,1.64,7.83,2.21,9.88.16.58.22.78.22.83a2.35,2.35,0,0,1-.14,1.41,2,2,0,0,0-.16,1,1.17,1.17,0,0,0,0,.26l0,.08a.08.08,0,0,1,0,.07,8.75,8.75,0,0,0-.34,1.21,4.21,4.21,0,0,1-.88,1.38c-.18.22-.35.43-.5.6a1.44,1.44,0,0,0-.3,1.2.31.31,0,0,0,.2.2h.11a.43.43,0,0,1,.37.09.15.15,0,0,0,.07.05.48.48,0,0,0,.53,0,.26.26,0,0,1,.15,0,.21.21,0,0,1,.19.11.19.19,0,0,0,.11.08.49.49,0,0,0,.48-.1.6.6,0,0,1,.27-.07.9.9,0,0,1,.28.11.44.44,0,0,0,.36,0A.47.47,0,0,1,24.37,107.63Z"/></svg>