<svg id="Layer_1" data-name="Layer 1" xmlns="http://www.w3.org/2000/svg" viewBox="0 0 351.98 377.07"><defs><style>.cls-1{fill-rule:evenodd;}</style></defs><path class="cls-1" d="M346,330.5c-23.67-30.75-105.94-65.43-170-65.43S29.64,299.74,6,330.5c-14.63,19-.71,46.57,23.28,46.57H322.73C346.71,377.07,360.63,349.53,346,330.5Z"/><path class="cls-1" d="M96.28,153.86c-2.11,15.31-4.6,22.34,10.55,28s36.2-4.45,29.33,20.76c-1.48,5.44-3.37,11.42,2.87,15,19.79,11.31,54.17,11.31,74,0,6.23-3.56,4.35-9.54,2.87-15-6.87-25.21,14.09-15,29.32-20.76s12.67-12.74,10.56-28C254.1,142,262,136.1,265.9,125.49c9.12-24.8,9.07-63.84-7.33-85.12-41.49-53.83-123.63-53.83-165.13,0C77,61.65,77,100.69,86.11,125.49,90,136.1,97.92,142,96.28,153.86ZM212.39,113.2c17.31,1.61,30.48,8.5,28.42,27.34-1.91,17.5-25.18,15.16-37.07,10.93-7.45-2.64-14.05-7.93-14.49-16.21C188.38,118.69,196,111.67,212.39,113.2Zm-48.74,62.7c1.57-5.49,6.07-14.36,8.41-19.72,1.24-2.85,6.44-2.94,7.77,0,2.46,5.32,7,14.27,8.53,19.76.77,2.67-1.21,4.73-3.66,5.27a6.78,6.78,0,0,1-3.51-.32c-4.15-1.38-6.45-1.36-10.36,0a6.68,6.68,0,0,1-3.51.32C164.87,180.63,162.89,178.57,163.65,175.9Zm-24-62.71c16.39-1.52,24,5.5,23.13,22.07-.43,8.28-7,13.57-14.48,16.21-11.9,4.23-35.17,6.57-37.08-10.93C109.15,121.7,122.32,114.81,139.63,113.19Z"/></svg>