<svg width="512" height="547" viewBox="0 0 512 547" fill="none" xmlns="http://www.w3.org/2000/svg">
<g clip-path="url(#clip0_118_513)">
<path d="M195.292 133.067C194.399 134.228 193.712 135.121 192.196 137.064C191.406 134.481 190.616 132.822 190.403 131.1C189.747 125.421 188.965 119.719 188.926 114.024C189.028 109.867 189.59 105.735 190.6 101.702C192.219 94.2536 193.562 86.6947 196.129 79.5229C199.194 71.0161 200.236 62.2329 201.658 53.4576C202.266 49.6742 204.359 47.1388 207.803 45.9619C215.03 43.537 216.563 38.1581 215.939 31.4444C215.749 29.3512 216.089 27.0923 215.409 25.1887C214.62 23.0166 213.079 21.0894 211.721 19.1621C210.141 16.9505 207.771 15.0549 206.982 12.6221C206.64 11.4434 206.533 10.2089 206.669 8.98912C206.804 7.76933 207.179 6.58824 207.771 5.51341C208.38 4.54188 211.8 5.33964 214.793 5.33964C216.578 1.82478 220.709 1.1771 225.259 1.06652C234.208 0.861158 243.149 0.537318 252.074 0.000215944C256.324 -0.236741 259.317 1.21659 260.763 5.20536C261.987 8.58594 264.42 9.98399 267.611 11.4215C281.189 17.5429 289.087 32.1473 281.418 47.3915C280.542 49.2307 280.371 51.3269 280.936 53.2839C288.044 72.967 289.056 93.3295 288.432 113.968C288.242 120.106 289.221 126.266 289.656 132.419C289.902 134.239 290.031 136.073 290.043 137.909C289.995 138.754 289.079 139.552 288.558 140.373C287.768 139.797 286.544 139.362 286.338 138.636C284.759 132.964 282.8 127.317 282.042 121.519C280.588 110.327 280.533 98.9217 278.614 87.8242C276.947 78.2196 273.503 68.923 270.715 59.1288L264.483 61.3641C266.3 66.2454 268.551 70.9134 269.736 75.8421C271.181 81.8292 272.397 88.0296 272.484 94.1589C272.579 100.928 271.276 107.721 270.612 114.498C270.591 115.148 270.668 115.798 270.841 116.425C272.832 125.327 270.052 133.975 267.587 142.008C263.828 154.425 257.675 166.115 252.58 178.12C252.177 179.076 252.153 180.198 251.711 181.13C251.111 182.402 250.36 184.542 249.515 184.621C244.729 185.055 243.031 189.226 240.037 191.777C238.726 192.891 237.415 194.755 235.448 192.567C233.616 190.505 234.713 189.139 236.325 187.615C240.456 183.665 244.476 179.677 248.536 175.696L247.746 174.906C244.476 177.544 241.427 180.522 237.889 182.741C232.075 186.382 229.2 186.303 225.78 182.741C227.875 181.813 229.911 180.758 231.878 179.582C236.933 176.17 241.904 172.634 246.79 168.974C247.485 168.453 247.399 166.889 247.73 165.562C239.603 169.511 232.107 173.223 224.548 176.801C218.229 179.771 213.909 178.381 210.078 172.568C208.356 169.938 206.2 167.513 204.896 164.669C203.727 162.142 202.772 159.14 202.922 156.447C203.285 149.859 201.982 143.959 198.183 138.572C197.094 136.806 196.128 134.966 195.292 133.067ZM256 89.3644L261.458 87.3977C261.284 86.829 261.118 86.2524 260.945 85.6837L254.973 86.5447L256.071 89.4434H247.793C248.346 90.3913 248.876 91.6155 249.057 91.5681C251.403 90.9442 253.694 90.1306 256 89.3644ZM222.826 174.724C226.159 173.073 229.532 171.494 232.81 169.74C237.723 167.126 242.628 164.495 247.399 161.636C248.56 160.941 249.168 159.33 250.029 158.137C242.13 162.876 235.235 168.808 225.922 170.498C224.69 170.727 223.892 173.318 222.889 174.811C222.313 174.021 221.894 172.9 221.128 172.56C217.676 171.02 214.122 169.701 211.026 168.468C213.403 176.636 216.8 178.626 222.85 174.724H222.826ZM204.612 97.2709C207.914 99.5536 211.381 98.8506 214.62 97.3815C220.306 94.7907 225.93 92.0184 231.443 89.0643C236.04 86.6078 236.143 85.9523 234.603 80.8893C229.327 82.7928 224.035 84.6569 218.766 86.6078C214.122 88.3297 209.533 90.336 204.77 87.611C202.077 91.1179 202.993 94.2378 204.691 97.342C200.639 95.3989 200.829 91.2127 199.62 87.761C199.217 86.6157 198.767 85.4863 198.333 84.3489C197.556 84.9354 197.04 85.8031 196.895 86.7658C196.398 89.7752 198.538 91.6945 199.612 94.1194C201.634 98.6689 202.772 102.389 209.154 102.808C213.8 103.283 218.48 102.341 222.581 100.106L216.855 101.181C217.1 100.462 217.139 100.043 217.273 100.012C224.114 98.3846 228.797 91.9552 236.38 91.6708C238.544 91.5918 240.764 89.5461 242.699 88.0612C243.678 87.2713 244.081 85.7785 244.745 84.6016L243.686 83.8118C239.484 86.1813 235.409 88.8668 231.049 90.9205C224.082 94.1747 216.965 97.1208 209.825 99.9643C207.495 100.881 205.512 99.83 204.636 97.2709H204.612ZM247.786 148.675L247.541 148.359C238.276 152.545 229.026 156.779 219.73 160.894C218.186 161.637 216.499 162.038 214.785 162.071C211.665 161.968 209.912 160.112 210.291 156.889C210.496 155.159 209.106 151.755 212.732 152.521C220.67 154.212 225.425 147.893 231.688 145.413C235.1 144.062 237.849 141.06 240.922 138.857C248.094 133.707 254.807 128.099 260.4 120.042C257.169 122.625 254.57 124.584 252.098 126.693C241.198 135.99 229.192 143.28 215.512 147.845C212.526 148.841 210.647 148.43 209.817 145.263C209.083 142.498 208.411 139.734 207.74 137.016C210.433 137.411 213.071 138.596 214.967 137.901C220.117 135.919 225.338 133.66 229.816 130.508C236.767 125.611 243.125 119.869 249.736 114.498C251.206 113.313 252.706 112.128 254.199 110.991L253.409 109.988C252.225 110.777 251.04 111.567 249.847 112.286C238.789 119.095 229.421 128.462 216.95 133.067C213.387 134.386 210.386 134.481 208.127 131.424C204.77 126.875 201.808 122.049 198.127 116.575C197.274 124.474 203.159 129.363 206.026 135.46C198.917 132.641 197.156 126.575 195.505 120.358C195.41 121.764 195.323 123.162 195.229 124.568L194.731 124.489L193.246 120.058L192.077 120.264V133.802L193.151 133.896L195 126.914C196.579 129.165 198.104 131.329 199.668 133.454C201.674 136.155 203.964 138.675 205.694 141.542C207.424 144.409 208.585 147.585 209.999 150.618L209.209 151.558L205.26 148.643C206.689 153.532 207.977 158.271 209.525 162.924C209.817 163.793 211.065 164.559 212.045 164.938C216.578 166.683 221.073 164.464 224.58 162.781C232.723 158.911 240.116 153.485 247.809 148.675H247.786ZM200.157 99.4114C200.505 102.768 200.521 105.138 201.026 107.405C202.606 114.3 207.574 116.93 214.106 114.324C218.6 112.523 223.047 110.58 227.463 108.59C233.71 105.778 234.161 104.711 232.336 97.7132C230.227 98.8348 228.197 99.9959 226.096 101.023C217.447 105.256 208.751 110.003 200.181 99.4114H200.157ZM258.33 91.347C247.272 101.046 234.319 107.515 220.954 113.242C217.716 114.632 214.446 116.346 211.041 116.82C208.814 117.136 205.876 116.03 204.059 114.569C202.243 113.108 201.231 110.256 199.786 108.084C199.161 107.269 198.469 106.508 197.717 105.809C197.875 103.013 197.985 99.8537 198.246 96.7022C198.522 93.3374 198.198 92.9899 195.213 93.1715C194.66 98.4557 194.123 103.621 193.712 107.602L197.156 110.146V108.06C198.166 108.894 198.899 110.015 199.257 111.275C201.247 116.804 205.915 121.093 210.607 120.643C214.493 120.246 218.288 119.214 221.839 117.586C225.828 115.754 229.335 112.894 233.15 110.659C242.359 105.272 252.209 100.794 258.354 91.347H258.33ZM201.966 118.779L201.05 119.497C203.917 123.399 206.579 127.467 209.738 131.1C210.686 132.19 213.34 132.893 214.659 132.364C219.475 130.338 224.181 128.06 228.758 125.54C229.235 125.246 229.645 124.856 229.963 124.395C230.281 123.934 230.5 123.412 230.606 122.862C230.775 120.467 230.804 118.065 230.693 115.667C221.46 120.193 212.471 127.309 201.966 118.779ZM208.364 82.1452C217.526 81.0789 225.504 76.9479 233.323 72.4773C233.939 72.1298 234.524 70.3684 234.232 70.0209C233.331 68.9704 231.862 67.4302 230.859 67.6513C227.7 68.2674 224.698 69.5944 221.626 70.6133C219.793 71.2215 217.969 72.193 216.097 72.272C209.312 72.5247 207.274 74.8943 208.364 82.1452ZM214.272 167.884C214.272 168.453 214.201 169.029 214.169 169.598C216.689 169.953 219.422 171.099 221.705 170.514C229.303 168.571 236.562 165.696 243.031 161.036C245.858 159.006 246.38 157.387 243.931 154.717C234.785 160.917 225.283 166.091 214.272 167.844V167.884ZM251.806 68.1647L251.316 66.9325C250.601 66.9523 249.891 67.0692 249.207 67.2801C241.443 70.8028 233.758 74.4994 225.938 77.8957C221.482 79.8094 216.923 81.4733 212.282 82.8797C210.528 83.4247 208.482 83.0298 206.571 83.0614H203.838C204.265 84.0329 204.486 85.2177 205.189 85.9365C205.892 86.6552 207.029 86.8606 207.977 87.295C224.043 84.0961 237.51 75.2181 251.806 68.1647ZM214.991 57.2805C214.793 58.0704 214.548 59.1604 214.09 61.0876L233.426 50.4088L232.92 49.4294C227.51 51.7989 219.54 48.9475 217.779 57.5649L212.708 53.1812L205.244 59.421C206.452 60.5584 207.811 61.838 209.683 63.6152L203.783 64.1365C204.849 64.6183 205.876 64.7605 206.326 65.3449C208.435 68.1015 209.896 69.4285 210.173 64.405C210.228 63.2834 211.365 62.225 211.697 61.6642L209.596 56.5933L214.991 57.2805ZM266.379 17.4955C270.131 26.3735 273.638 34.6828 277.239 43.2606C281.71 34.7538 276.323 21.8081 266.379 17.4955ZM210.252 139.512C210.402 146.787 211.515 147.664 217.187 145.831C218.679 145.341 220.164 144.852 221.649 144.338C227.36 142.387 228.663 140.579 229.129 133.739C223.087 136.574 218.34 142.964 210.252 139.512ZM268.022 53.7104C266.442 50.3456 265.083 47.0914 263.346 44.0741C262.966 43.5789 262.473 43.1825 261.908 42.9185C261.343 42.6545 260.723 42.5307 260.099 42.5576C258.638 42.8025 256.205 43.9241 256.15 44.7455C256.055 47.4468 256.008 50.8432 257.501 52.7547C260.873 57.0436 262.469 56.8698 268.022 53.7104ZM212.06 156.052C211.729 160.222 212.906 161.581 216.705 160.38C221.886 158.801 226.973 156.779 232.052 154.946V153.485C229.856 152.932 227.502 151.597 225.48 151.992C221.041 152.845 216.76 154.567 212.06 156.052ZM214.043 65.2186L214.928 67.1379L230.496 62.0749L226.91 54.674L214.043 65.2186ZM212.55 47.0124C213.244 47.74 213.866 48.5336 214.406 49.382C216.728 54.0263 220.054 50.6141 222.945 50.4799C226.104 50.3377 226.61 48.2367 225.733 45.8434C224.943 43.6318 223.758 41.3412 220.591 42.9525C217.921 44.3427 215.236 45.6696 212.55 47.0124ZM197.227 80.5655L202.361 84.8307L206.8 71.3478C204.075 71.3636 198.064 77.5877 197.227 80.5655ZM239.382 47.9681C242.541 49.7769 247.019 47.51 248.591 43.0078C250.258 38.2213 248.307 35.4489 243.781 36.381C241.822 36.7917 239.982 37.7395 237.044 38.8374C240.938 39.5404 244.152 35.8912 246.743 40.2433L239.382 47.9681ZM248.804 97.1524L242.383 90.9205L241.546 91.5918L241.964 93.9614C241.026 94.1539 240.119 94.4784 239.271 94.925C238.404 95.6917 237.61 96.5379 236.901 97.4526C237.794 98.1397 238.773 99.5062 239.555 99.4035C242.272 99.0086 244.895 98.1397 248.804 97.1524ZM254.468 100.888C258.077 104.617 258.962 104.506 262.872 100.099C259.736 96.2599 259.499 96.2757 254.491 100.865L254.468 100.888ZM210.023 68.9783C217.013 72.4694 221.318 67.9199 226.167 65.4476L210.023 68.9783ZM282.452 66.7904L281.433 67.0826C283.176 76.108 284.917 85.1308 286.654 94.151L287.586 93.9851L282.452 66.7904ZM239.184 146.74C236.467 145.792 233.963 145.081 232.794 148.201C232.652 148.58 234.769 150.318 236.025 150.61C239.042 151.297 239.421 149.283 239.184 146.74ZM248.804 136.029L254.555 139.473C258.267 136.4 258.18 134.979 253.844 131.985C253.615 133.612 253.417 135.01 253.196 136.614C252.493 136.471 252.019 136.353 251.537 136.29C251.056 136.227 250.384 136.171 248.804 136.029ZM242.975 113.471L241.664 112.989C239.974 115.422 239.508 115.359 234.713 111.915C235.266 114.284 235.14 116.18 236.032 117.073C237.841 118.873 239.982 117.862 241.561 116.322C242.264 115.611 242.486 114.434 242.983 113.471H242.975ZM246.577 18.3644C240.163 20.7339 235.369 28.0875 237.825 33.419C238.631 26.4446 241.396 21.6107 246.585 18.3644H246.577ZM256.261 113.882L261.142 117.31L263.662 114.229C261.174 111.946 259.073 109.687 256.269 113.882H256.261ZM224.666 19.0199L225.219 18.783V7.78819L221.863 8.31739C222.889 12.0771 223.798 15.5446 224.706 19.0199H224.666ZM211.421 50.1402L208.79 48.1814C207.597 48.6756 206.449 49.2756 205.362 49.9744C204.735 50.6338 204.203 51.3783 203.783 52.186C204.573 52.4782 205.576 53.2286 206.152 52.9758C207.979 52.1427 209.752 51.1957 211.46 50.1402H211.421ZM197.464 114.316L195.387 111.409C194.546 112.889 193.815 114.428 193.199 116.014C193.056 116.456 194.044 117.27 194.51 117.918L197.464 114.316ZM261.561 125.374C256.94 128.289 260.881 130.2 261.45 132.585C265.044 130.105 263.061 127.957 261.537 125.366L261.561 125.374ZM251.806 117.475C255.005 117.728 256.758 121.022 260.06 118.305C257.493 116.796 255.913 113.171 251.782 117.491L251.806 117.475ZM233.205 138.012L238.402 135.097L238.173 134.307H230.575C231.657 135.855 232.36 136.858 233.181 138.027L233.205 138.012ZM231.625 56.7355L239.05 55.7482L239.168 54.1685C237.494 53.7104 235.803 52.9205 234.105 52.9205C233.505 52.9205 232.881 54.7214 231.641 56.7513L231.625 56.7355ZM252.485 101.339L248.607 104.735L256.166 105.959L256.482 104.838L252.485 101.339ZM253.433 148.896C248.568 150.373 248.078 152.205 251.008 155.949C251.909 153.398 252.517 151.652 253.449 148.912L253.433 148.896ZM207.961 166.225C206.737 162.624 205.449 158.848 204.075 154.796C203.704 159.551 204.407 163.54 207.977 166.241L207.961 166.225ZM264.254 98.7716L265.652 98.2661C265.336 97.1919 265.328 95.5964 264.625 95.1699C263.717 94.6328 262.256 95.0435 261.024 95.0435C261.024 95.4226 260.96 95.8334 260.921 96.1967L264.254 98.7716ZM261.687 37.7948L253.844 39.3745C255.953 41.8625 255.953 41.8625 261.703 37.8106L261.687 37.7948ZM259.76 79.436L265.068 81.1736L265.636 80.3206L263.44 76.3713L259.76 79.436ZM234.484 30.1253H233.884V41.1517H234.484V30.1253ZM235.503 131.116L241.032 127.665L239.966 126.266L233.916 129.426L235.503 131.116ZM258.133 128.747L256.466 129.292L258.622 135.366L260.202 134.86L258.133 128.747ZM264.207 83.7249C264.333 83.2984 264.452 82.8718 264.578 82.4453L256.829 80.7471L256.624 81.7344L264.207 83.7249Z" fill="#A47C6F"/>
<path d="M151.131 169.172C151.125 178.87 147.847 188.282 141.826 195.885C133.723 206.374 125.366 216.674 117.088 227.029C111.559 233.9 105.959 240.638 100.58 247.565C98.1553 250.724 95.2724 251.735 91.6153 250.724C88.8508 249.934 85.8652 249.366 83.4719 247.889C71.087 240.211 58.0623 233.379 47.7626 222.787C40.6065 215.426 33.7584 207.819 30.1251 197.891C23.2928 179.242 32.3841 156.392 49.6345 149.283C58.5346 145.486 68.4344 144.712 77.8166 147.079C82.453 148.233 86.6629 147.261 90.6596 144.884C94.9564 142.34 99.0795 139.434 103.582 137.325C112.981 132.925 122.364 133.123 130.484 140.081C136.475 145.145 142.002 150.733 147 156.779C149.63 160.017 150.444 164.733 152.079 168.785L151.131 169.172ZM95.7542 158.011C91.4811 158.801 88.9298 156.155 86.3786 153.438C85.3123 152.308 84.3724 150.815 83.0454 150.231C77.3269 147.711 71.5767 150.057 65.8582 150.61C65.1157 150.681 64.2784 152.245 63.9941 153.256C63.8914 153.691 65.1631 154.836 65.9529 155.025C67.6827 155.381 69.6574 155.815 71.2529 155.302C77.5717 153.303 83.4482 153.477 88.9061 157.521C87.5249 157.577 86.1436 157.412 84.8147 157.032C77.0741 155.152 69.8074 157.182 62.7698 160.057C59.7797 161.401 56.9301 163.039 54.2631 164.946C52.2174 166.312 49.8873 167.734 48.6235 169.685C43.9318 177.047 41.4042 185.127 42.3521 193.997C42.5653 196.011 43.0866 197.986 43.4579 199.984L42.0677 200.363C40.3774 195.095 38.5529 189.763 37.1232 184.353C36.9258 183.563 38.6397 182.331 39.4928 181.328C39.7632 181.085 40.0599 180.873 40.3774 180.696L38.2448 179.456L41.6649 175.506L41.0725 174.977L39.1847 176.312C42.1151 170.586 45.5036 165.42 51.2142 162.229C54.026 160.764 56.6581 158.978 59.0575 156.905C60.4081 155.657 63.1569 153.177 60.1554 151.558C57.6595 150.191 53.7102 149.362 51.1984 150.365C46.9727 152.071 43.3789 155.365 39.6034 158.106C38.9386 158.735 38.5047 159.57 38.3712 160.475C37.5813 164.275 37.3444 168.248 36.1043 171.889C32.155 183.429 33.8058 193.831 41.3805 203.396C50.2881 214.8 60.5052 225.118 71.8216 234.137C77.0425 238.252 83.1007 241.285 88.7561 244.848C93.4952 247.857 98.1316 246.483 101.591 243.15C104.553 240.298 106.291 236.175 108.574 232.613L126.306 210.576C135.044 202.018 141.983 191.8 146.716 180.522C151.605 168.729 149.678 158.232 139.891 149.536C136.258 146.313 131.993 144.749 127.546 146.606C119.489 149.986 111.749 154.062 103.85 157.79C101.133 159.062 98.3212 160.159 95.0038 161.55C95.3908 159.614 95.5488 158.801 95.7147 157.987C99.814 155.491 104.04 153.177 107.965 150.421C109.491 149.193 110.625 147.545 111.227 145.681C111.757 144.123 111.646 142.419 110.919 140.942C110.429 140.374 109.807 139.933 109.108 139.658C108.409 139.382 107.654 139.281 106.907 139.363C103.846 140.078 100.886 141.169 98.0922 142.609C94.6168 144.402 91.3863 146.669 88.7403 148.296C91.7201 151.019 94.1076 154.326 95.7542 158.011Z" fill="#A47C6F"/>
<path d="M448.203 199.731L455.968 208.009C460.361 201.902 466.276 197.05 473.123 193.934C488.612 186.896 508.667 197.37 511.258 213.807C513.145 225.773 511.447 237.273 505.318 247.636C500.063 256.251 494.341 264.573 488.178 272.564C484.837 277.003 480.508 280.691 476.622 284.728L466.133 294.948L456.141 302.792C454.104 303.044 451.924 303.645 450.992 300.722C461.986 295.091 471.093 287.295 479.142 278.093C483.881 272.651 489.047 267.548 493.897 262.177C505.689 249.089 511.874 233.979 510.254 216.097C509.678 209.707 507.048 205.039 502.443 202.456C511.455 214.754 512.039 232.155 503.707 240.369C503.62 240.275 503.43 240.156 503.446 240.093C503.888 238.734 504.386 237.384 504.804 236.009C507.766 226.255 508.754 216.674 502.372 207.693C491.179 191.896 467.705 195.498 457.816 207.914C457.571 208.224 457.361 208.56 457.192 208.917C456.141 211.058 455.012 210.031 453.882 209.012L447.263 200.971L448.203 199.731Z" fill="#A47C6F"/>
<path d="M448.203 199.731C447.895 200.142 447.579 200.521 447.263 200.955L441.316 197.188C430.811 192.172 420.78 193.973 411.301 199.81C401.823 205.647 398.19 214.936 398.893 225.804C399.438 234.406 403.213 242.044 407.328 249.381C416.507 265.747 429.144 279.293 442.769 291.986C444.207 293.321 445.557 294.743 446.948 296.125L446.3 296.773L439.902 291.639L439.61 292.042L446.608 299.458C446.466 299.6 446.331 299.743 446.197 299.893C444.617 298.526 442.903 297.294 441.458 295.793C426.869 280.288 411.578 265.281 402.392 245.614C396.46 232.913 395.228 219.809 401.333 206.745C404.485 200.064 410.153 194.902 417.098 192.387C424.043 189.871 431.702 190.205 438.401 193.318C441.94 194.929 444.965 197.567 448.203 199.731Z" fill="#A47C6F"/>
<path d="M456.149 302.792L466.141 294.948C466.212 295.359 466.275 295.738 466.338 296.18C463.179 298.898 460.02 301.575 456.963 304.363C454.728 306.385 452.666 306.504 450.541 304.292C449.112 302.815 447.658 301.354 446.221 299.893C446.355 299.743 446.489 299.6 446.632 299.458C448.211 300.746 449.838 302.002 451.371 303.329C453.195 304.885 454.807 305.09 456.149 302.792Z" fill="#A47C6F"/>
<path d="M466.338 296.196C466.275 295.785 466.212 295.406 466.141 294.964L476.63 284.743L466.338 296.196Z" fill="#A47C6F"/>
<path d="M97.0811 238.694C97.168 240.1 97.247 241.514 97.3813 243.733C94.443 242.525 91.6864 241.585 89.1115 240.305C83.7247 237.62 78.33 234.926 73.1564 231.87C71.4898 230.89 68.6542 230.006 69.6811 226.783C69.7837 226.467 68.8912 225.456 68.4489 225.401C63.1332 224.753 61.0163 220.133 58.2755 216.712C50.8114 207.416 45.7168 197.045 49.0342 184.668C50.2427 180.142 52.8097 175.98 54.5632 172.125C49.3581 176.651 47.028 183.025 47.6046 190.679L46.5778 190.552C46.2938 189.835 46.0899 189.088 45.9696 188.325C45.3772 174.7 56.9486 161.675 70.7395 161.067C75.6208 160.846 80.5969 161.96 85.494 162.726C89.6091 163.374 93.6611 164.448 97.7683 165.182C98.416 165.301 99.269 164.716 99.9167 164.282C104.727 161.122 109.284 157.45 114.363 154.804C121.472 151.06 128.312 153.319 134.11 158.089C139.71 162.702 142.008 168.768 139.812 176.074C139.742 176.433 139.708 176.799 139.71 177.164L140.918 177.417C141.51 174.345 142.111 171.272 142.845 167.465C145.017 172.496 145.215 177.267 143.343 181.501C140.65 187.567 137.079 193.246 133.707 198.996C131.392 202.945 128.794 206.697 126.322 210.536L108.589 232.573L99.585 242.051L98.7319 241.309L111.37 225.583L110.73 225.038C108.076 228.126 105.54 231.356 102.713 234.271C101.046 235.993 98.9215 237.28 97.01 238.765C99.8535 235.487 102.966 232.446 105.469 228.908C115.153 215.33 124.639 201.603 134.22 187.946C134.632 187.499 135.096 187.104 135.602 186.769L136.211 189.462L139.149 182.82L138.359 182.456L136.124 185.466C135.895 184.06 135.76 183.215 135.421 181.074L125.429 192.922C127.388 187.662 128.912 183.546 130.437 179.439L129.212 178.949C128.13 181.011 127.261 183.223 125.927 185.095C123.083 189.044 119.995 192.883 117.009 196.753C120.09 191.777 123.217 186.824 126.25 181.817C129.284 176.809 129.284 171.509 128.233 165.846C126.653 157.434 121.685 156.533 115.256 159.021C110.761 160.759 106.694 164.005 102.95 167.181C96.6309 172.528 92.5869 173.105 85.6835 168.634C78.2984 163.847 68.5753 164.258 60.5029 169.882C52.4306 175.506 48.4497 183.246 49.9979 192.867C52.3674 207.913 67.8565 222.944 82.7374 225.622C84.2737 225.963 85.8685 225.941 87.3947 225.557C88.9209 225.173 90.3363 224.438 91.5285 223.41C95.6436 220.046 100.122 217.092 104.45 213.995C104.475 214.123 104.475 214.255 104.45 214.382C102.436 218.205 96.4729 218.924 96.5045 224.445C96.5045 224.722 94.9248 225.038 94.135 225.235C93.3451 225.432 92.3262 225.63 91.2757 225.851C92.3736 227.431 94.0797 228.789 93.8427 229.65C92.7606 233.607 95.6436 235.843 97.0811 238.694ZM90.4306 236.664L80.1624 230.74C81.7342 236.238 85.5256 237.391 90.4306 236.664Z" fill="#A47C6F"/>
<path d="M453.89 208.996C454.039 209.348 454.156 209.713 454.238 210.086C454.238 210.307 454.088 210.544 454.025 210.702L439.16 197.606L441.316 197.188L447.263 200.955L453.89 208.996Z" fill="#A47C6F"/>
<path d="M384.66 293.036H363.01C364.021 287.823 365.205 282.681 365.956 277.484C366.532 273.463 363.049 269.648 358.476 269.388C354.163 269.135 356.572 273.108 355.467 274.917C355.338 275.149 355.258 275.404 355.23 275.667C354.361 281.488 350.364 285.217 346.367 288.953C350.91 287.238 354.939 284.391 358.073 280.683C360.15 278.037 361.296 275.154 361.059 272.263C364.155 273.4 364.558 274.151 364.589 277.587C364.66 285.556 362.093 292.207 355.388 296.954C354.663 297.608 354.021 298.348 353.476 299.157L353.405 299.229L353.46 299.165C352.828 299.387 352.157 299.545 351.541 299.797C351.334 299.876 351.133 299.971 350.941 300.082C334.97 309.418 317.277 309.726 299.647 310.35C299.568 309.947 299.489 309.56 299.418 309.149C301.203 308.841 302.981 308.486 304.766 308.225C316.432 306.535 328.193 305.31 339.725 302.957C340.597 302.77 341.451 302.505 342.276 302.167C342.837 301.954 343.39 301.701 343.935 301.44C345.033 300.903 346.115 300.287 347.189 299.639C348.263 298.992 349.329 298.312 350.404 297.673L351.193 297.191C351.73 296.875 352.268 296.575 352.813 296.282L352.378 295.816C337.237 305.295 320.073 305.634 303.17 307.182C302.957 306.701 302.736 306.219 302.515 305.737C303.541 305.168 304.537 304.157 305.587 304.094C316.519 303.525 327.292 302.175 337.75 298.707C346.209 295.911 353.358 291.441 358.168 283.574C355.008 285.659 351.849 287.791 348.69 289.814C347.71 290.438 346.32 291.33 346.32 288.945H346.257L346.32 288.881C345.704 289.024 344.938 288.984 344.503 289.347C341.897 291.527 339.606 290.872 336.739 289.442C332.688 287.307 328.364 285.734 323.888 284.766C313.517 282.823 303.028 281.512 292.294 279.901C292.863 275.335 290.256 271.915 285.185 269.838C288.013 267.848 290.627 266.489 292.626 264.514C297.017 260.17 301.101 255.51 305.311 250.984C311.061 245.416 313.936 238.347 315.429 230.709C317.64 219.469 307.846 207.708 296.583 208.845C295.686 208.872 294.788 208.832 293.897 208.727C295.647 201.346 295.774 193.674 294.269 186.24C292.104 175.924 284.719 169.787 274.277 170.079C275.847 172.559 277.292 175.116 278.606 177.741C279.956 180.766 281.702 183.933 281.86 187.109C282.689 203.806 276.331 218.703 269.341 233.671C263.369 228.363 256.49 226.562 249.049 228.402C246.018 229.267 242.771 228.939 239.974 227.486C236.025 225.464 232.66 226.325 230.164 229.627C227.131 233.655 224.524 238.015 221.626 242.383C221.223 242.019 220.472 241.348 219.746 240.661C205.615 227.233 186.351 225.464 171.027 236.269C170.167 236.906 169.191 237.367 168.152 237.626C167.114 237.884 166.035 237.936 164.977 237.778C152.995 236.759 146.913 239.824 145.799 249.792C145.74 250.539 145.836 251.291 146.082 251.999C146.329 252.707 146.719 253.357 147.229 253.907C147.924 254.523 149.954 254.167 151.107 253.638C156.936 250.913 161.754 251.735 166.114 256.45C168.61 259.136 170.933 259.104 172.647 256.276C175.103 257.516 177.615 258.646 180.008 260.036C182.401 261.426 184.645 262.919 187.022 264.412C175.964 275.707 177.915 283.542 193.641 291.48L187.464 296.717L198.254 299.655C196.342 300.556 195.244 301.361 194.036 301.59C188.878 302.578 183.705 303.581 178.499 304.181C176.359 304.426 174.1 303.668 171.896 303.391C172.686 301.298 173.476 299.205 174.266 297.072C174.312 296.811 174.312 296.544 174.266 296.282C168.65 292.333 164.077 295.192 161.486 304.489C155.262 303.02 149.006 301.622 142.814 299.987C141.819 299.726 140.444 298.455 140.373 297.53C140.01 293.929 136.763 294.166 135.705 295.208C133.647 297.316 132.193 299.937 131.495 302.799C130.761 305.848 130.492 309.489 134.599 311.076L134.52 311.005H134.568C132.546 307.664 131.977 304.315 133.106 301.037C133.518 299.872 134.098 298.773 134.828 297.775C135.444 296.906 136.85 296.598 138.272 296.401C136.566 300.247 136.44 303.683 138.485 307.08L138.541 307.017C138.849 307.206 139.149 307.411 139.457 307.625C146.866 311.574 155.341 309.623 163.2 311.053L163.081 312.111C156.992 311.669 150.862 311.519 144.836 310.642C142.932 310.366 141.218 308.841 139.457 307.625C139.141 307.451 138.817 307.285 138.501 307.088C137.893 308.28 138.051 308.991 138.541 309.457C138.773 309.67 139.04 309.841 139.33 309.963C139.923 310.239 140.61 310.413 141.084 310.642C145.42 312.743 148.517 317.064 154.109 317.032C159.172 317.032 164.25 317.932 169.282 318.651C158.129 319.062 147.166 318.438 137.285 312.277C136.41 311.791 135.505 311.361 134.576 310.99V311.037C136.076 312.34 137.435 313.912 139.133 314.876C146.313 318.943 154.338 319.883 162.355 320.262C168.081 320.539 173.073 320.847 178.002 325.104C181.738 328.335 187.78 328.903 192.504 330.554C194.399 333.485 196.018 336.936 198.514 339.559C200.718 341.881 202.013 343.437 200.45 346.841C197.472 353.326 197.725 353.436 203.111 357.449C203.704 357.891 204.225 358.428 204.96 359.076C203.451 361.019 202.14 362.82 200.726 364.526C190.26 377.164 182.812 379.367 167.37 374.541C162.592 373.048 159.883 375.157 160.214 380.126C160.625 386.405 166.873 391.752 174.076 391.531C184.257 391.231 192.93 387.163 200.181 380.086C207.988 372.41 214.201 363.267 218.466 353.184C219.461 350.854 220.915 349.669 223.268 348.579C227.739 346.509 232.597 344.337 235.843 340.862C239.089 337.386 242.296 336.826 245.724 336.747C247.691 345.435 249.673 353.894 251.427 362.37C251.695 363.856 251.43 365.389 250.676 366.698C246.925 372.669 237.62 375.126 231.483 371.69C228.592 370.11 227.786 371.643 227.534 373.83C227.147 377.543 228.805 380.434 231.862 382.566C238.971 387.534 245.937 387.416 253.014 382.25C254.476 381.184 256.071 380.307 257.904 379.154C262.129 388.846 269.309 396.057 276.655 402.944C280.778 406.807 285.825 409.887 290.872 412.494C295.919 415.1 300.572 412.565 304.426 409.034C306.638 407.004 306.338 403.687 303.936 401.768C302.712 400.796 301.124 400.275 299.932 399.287C288.83 389.988 278.826 379.452 270.115 367.883C269.509 366.991 269.085 365.989 268.867 364.933C268.649 363.877 268.641 362.789 268.843 361.73C272.224 348.563 270.423 335.941 265.684 323.469C264.27 319.741 263.314 315.855 262.382 312.909C265.399 311.471 267.358 310.405 269.42 309.631C270.663 309.149 272 308.955 273.329 309.062C274.996 309.236 276.599 310.129 278.266 310.271C295.453 311.85 312.664 312.522 329.662 308.802C337.482 307.088 344.669 307.056 352.568 309.497C364.771 313.264 375.323 309.118 383.222 298.928C385.039 296.938 386.239 294.553 384.66 293.036ZM316.377 298.241L304.529 299.418C304.624 297.625 304.695 296.377 304.797 294.45L316.463 297.507C316.44 297.72 316.416 297.965 316.4 298.21L316.377 298.241ZM339.867 293.186C336.455 293.186 333.761 293.636 331.289 293.099C323.975 291.52 316.764 289.474 309.481 287.744C307.406 287.252 305.246 287.233 303.162 287.689L330.618 294.6C330.618 295.256 330.562 295.903 330.531 296.559C327.371 296.875 323.841 298.233 321.053 297.349C308.638 293.5 295.76 291.345 282.768 290.943C296.196 288.716 308.754 292.61 321.416 295.951C310.903 291.543 300.09 288.51 288.495 288.005L300.737 287.341C300.737 287.017 300.737 286.686 300.737 286.354L289.924 284.829C295.406 279.514 329.923 285.39 339.891 293.155L339.867 293.186ZM290.896 295.137L280.051 298.763C279.917 298.383 279.783 297.973 279.656 297.609C282.318 293.66 286.86 295.121 290.461 293.873C290.667 294.26 290.801 294.687 290.943 295.106L290.896 295.137ZM289.364 282.894C288.929 283.684 288.424 284.427 287.436 286.006C285.714 277.824 277.595 277.705 273.053 273.369L273.709 272.634C277.982 273.772 282.263 274.885 286.528 276.054C291.496 277.381 291.891 278.353 289.411 282.863L289.364 282.894ZM259.768 259.546C253.401 262.413 249.349 267.895 245.55 274.206C245.778 273.009 246.087 271.83 246.474 270.675C246.9 269.413 247.428 268.187 248.054 267.01C248.259 266.623 248.473 266.221 248.702 265.889C248.931 265.557 249.049 265.336 249.223 265.099C254.049 257.943 262.358 254.475 270.431 256.545L270.597 256.497L270.549 256.568L275.999 258.235L275.92 258.156H275.975C274.182 254.697 274.498 251.047 275.636 247.762C275.802 247.288 275.983 246.83 276.173 246.371C279.649 238.326 283.734 230.558 288.392 223.134L294.924 218.497C296.251 223.418 296.962 227.976 294.924 231.996C290.525 240.582 285.525 248.875 280.88 257.343C280.632 257.867 280.244 258.312 279.759 258.63C278.606 259.325 277.31 258.527 276.007 258.156V258.227C277.587 259.881 279.166 261.537 280.746 263.195C275.462 260.455 268.417 260.936 264.317 264.088C267.658 264.088 271.718 264.088 275.786 264.127C276.181 264.127 276.576 264.672 277.847 265.628H270.399L270.352 266.355L272.634 267.208C262.485 267.824 253.891 271.41 247.501 279.735C247.501 275.106 249.871 271.789 252.864 269.119C255.858 266.45 259.586 264.159 263.006 261.75C265.494 259.989 268.014 258.275 270.525 256.545H270.446C266.908 257.493 263.148 258.014 259.815 259.515L259.768 259.546ZM273.29 283.1C279.23 286.528 280.667 290.611 278.076 296.875C276.165 292.483 276.742 286.694 271.055 284.482C266.268 282.618 261.482 280.785 257.564 279.277C262.406 278.566 267.982 280.043 273.29 283.1ZM289.253 272.918L288.921 274.111L274.767 269.601L274.72 268.756L289.253 272.918ZM284.308 254.926C287.747 249.133 291.17 243.365 294.577 237.62L295.493 238.157L285.327 255.534L284.308 254.926ZM294.166 192.724H294.521C293.879 198.443 293.242 204.162 292.61 209.88L291.694 209.785C292.515 204.109 293.339 198.422 294.166 192.724ZM298.036 210.03C306.456 209.935 316.108 219.469 314.054 229.074C312.735 235.242 309.671 241.032 307.325 246.972C306.764 248.393 305.958 249.728 305.263 251.103L305.342 251.024C303.455 252.959 301.662 254.973 299.663 256.821C296.283 259.902 292.768 262.856 289.134 266.007C289.002 265.653 288.909 265.285 288.858 264.909C297.144 259.696 301.235 250.85 307.025 243.544C309.189 240.827 309.457 236.593 310.042 232.833L304.624 242.556L304.023 242.248C305.484 239.168 307.183 236.159 308.367 232.976C309.947 228.797 310.737 224.477 307.017 220.828C303.068 216.973 298.249 217.044 293.352 217.952C292.199 218.158 291.22 219.327 290.193 220.053C289.134 214.509 292.728 210.101 298.036 210.03ZM278.337 171.667C282.381 171.359 283.985 172.244 285.09 176.193L280.636 172.67L280.027 173.318L282.563 176.477L282.128 176.951L278.337 171.667ZM269.807 236.656C269.838 236.7 269.882 236.733 269.933 236.751C270.104 236.804 270.278 236.846 270.454 236.877C270.458 236.856 270.458 236.835 270.454 236.814L270.541 236.854C271.592 233.75 272.469 230.574 273.653 227.533C273.827 227.099 274.001 226.665 274.183 226.23C279.119 214.722 283.708 203.151 283.661 190.134L285.24 192.938C285.706 191.161 286.03 189.936 286.354 188.712H287.002C286.833 192.145 286.67 195.586 286.512 199.035V200.039L286.394 200.663L286.323 201.381C289.008 195.939 288.929 190.11 289.324 184.352C291.278 198.449 288.794 212.804 282.215 225.424L283.376 225.827L287.958 217.234L288.589 217.565C284.182 226.696 279.777 235.832 275.375 244.973L273.953 244.634C274.285 242.643 274.364 240.566 274.988 238.678C278.045 229.484 281.386 220.385 284.324 211.152C285.391 207.795 285.746 204.201 286.362 200.694C286.362 200.465 286.417 200.228 286.441 199.999L286.488 199.075V194.004L285.24 193.901C285.004 195.607 284.877 197.337 284.498 199.012C283.226 204.604 282.176 210.283 280.446 215.733C278.385 222.226 275.707 228.521 273.337 234.895C273.179 235.306 273.053 235.772 272.879 236.174C272.819 236.332 272.742 236.483 272.65 236.625C272.568 236.757 272.467 236.877 272.35 236.98L272.271 237.035L272.168 237.106H272.089L271.963 237.162C271.452 237.248 270.927 237.138 270.494 236.854H270.446C271.086 238.876 271.876 240.874 272.445 242.912C272.634 243.599 272.8 244.294 272.927 244.989C273.512 248.357 273.608 251.791 273.211 255.186C273.551 246.608 271.884 238.939 263.433 234.966C258.133 232.47 252.327 231.506 246.593 234.429C254.294 233.457 261.734 233.536 266.584 240.803C269.23 244.752 269.941 249.373 269.009 254.31C261.774 251.024 255.921 253.591 250.345 257.098C247.746 258.733 245.495 260.921 242.746 263.124C243.86 256.497 256.395 249.91 265.952 250.4C265.328 240.29 256.75 236.712 241.285 240.598L243.868 236.222L243.418 235.637C241.838 236.822 240.258 237.944 238.781 239.223C237.355 240.641 235.764 241.882 234.042 242.92C234.779 241.318 235.642 239.779 236.625 238.315C245.645 226.902 261.821 225.638 269.807 236.656ZM248.283 244.95C248.978 246.758 249.278 247.548 249.942 249.262C246.048 246.032 243.694 248.472 241.253 250.66L240.716 249.705L248.283 244.95ZM234.35 248.315L241.151 241.996C241.933 245.921 239.958 247.762 234.35 248.315ZM253.694 239.326L262.974 248.109C255.668 250.21 253.441 248.212 253.694 239.326ZM230.456 233.157L229.927 232.201C233.671 226.988 235.559 226.72 243.11 230.472C241.617 231.688 240.187 232.802 238.821 233.987C237.454 235.171 236.372 236.261 234.279 238.212C235.456 236.253 236.017 235.313 236.577 234.366L235.985 233.836L230.306 240.211L229.429 239.626C231.688 236.467 233.947 233.37 236.822 229.405L230.456 233.157ZM228.695 295.287C229.406 299.947 230.119 304.605 230.835 309.26L230.045 309.457C229.04 304.85 228.039 300.242 227.044 295.635L228.695 295.287ZM222.597 245.629C222.399 247.668 222.079 249.694 221.641 251.695C221.142 252.896 220.322 253.937 219.272 254.704C219.627 253.528 219.983 252.335 220.346 251.19L219.319 250.913C217.187 255.439 216.95 260.455 215.883 265.375C216.12 261.121 216.36 256.863 216.602 252.603L215.591 252.43C215.046 256.442 214.501 260.455 213.964 264.372C211.887 260.012 212.139 255.376 213.451 250.795C213.893 249.215 214.872 247.296 216.16 246.679C218.055 245.747 220.433 245.898 222.597 245.597V245.629ZM201.626 311.187L200.726 311.021C201.255 308.604 201.713 306.163 202.345 303.762C202.89 301.701 203.285 299.45 204.415 297.72C205.204 296.519 207.116 296.053 209.154 294.9L203.277 319.346C201.642 314.789 204.067 309.907 204.304 304.679L201.626 311.187ZM192.938 251.671C189.486 249.104 185.829 246.766 181.943 244.081C185.632 241.759 189.376 240.132 193.27 241.332C198.88 243.129 204.367 245.287 209.699 247.793C210.749 248.267 211.373 250.321 211.618 251.742C211.863 253.164 211.231 254.594 211.176 256.031C210.939 262.35 206.61 261.884 203.135 259.696C199.494 257.414 196.405 254.254 192.938 251.663V251.671ZM199.549 260.218C194.439 260.66 179.455 249.318 179.163 245.337L199.549 260.218ZM213.703 325.302L210.433 329.125L205.607 325.665L213.703 325.302ZM209.896 299.655C211.602 296.085 213.924 293.581 218.695 294.016C215.631 298.565 212.471 300.587 209.896 299.647V299.655ZM200.363 230.811L214.77 237.746L214.367 238.607L200.055 231.498L200.363 230.811ZM158.374 245.242C153.635 245.242 151.897 246.624 150.475 251.103C150.207 251.94 149.062 252.485 148.319 253.172C147.869 252.327 146.929 251.411 147.047 250.66C148.169 243.331 149.796 239.934 157.774 239.46C155.546 240.779 153.034 242.304 150.444 243.828L150.752 244.184L163.01 240.819C162.876 241.332 162.734 241.853 162.592 242.398L164.171 245.266L158.374 245.242ZM168.429 251.427C168.287 253.196 169.092 255.036 169.432 256.679C167.793 256.059 166.434 254.866 165.608 253.32C164.781 251.775 164.543 249.982 164.938 248.275C165.806 243.773 167.868 239.855 172.046 237.407C186.801 228.758 205.22 231.238 216.997 244.373C215.921 244.047 214.881 243.613 213.893 243.078C206.66 237.932 197.958 235.261 189.083 235.464C186.484 235.607 183.948 236.316 181.651 237.541C187.322 238.054 193.096 238.07 198.641 239.207C204.186 240.345 209.462 242.62 213.498 246.798L213 247.777C210.978 246.774 208.901 245.874 206.958 244.736C199.454 240.369 191.161 239.444 182.741 239.097C175.348 238.781 168.974 244.405 168.429 251.419V251.427ZM186.208 262.311C181.722 259.215 176.73 256.884 171.912 254.231C171.912 253.994 171.912 253.765 171.912 253.528L179.85 254.625L177.33 250.676L178.176 249.839L193.515 261.868C190.908 264.341 189.005 264.238 186.208 262.303V262.311ZM182.457 273.779L182.22 273.345C183.799 269.656 185.648 266.149 190.324 265.533L182.457 273.779ZM189.905 275.928C192.196 274.427 194.028 272.373 196.058 272.152C197.851 271.955 200.252 273.408 201.682 274.838C203.111 276.267 203.735 278.605 204.652 280.438L189.905 275.928ZM168.144 311.005C165.585 305.334 167.268 300.153 171.959 296.622C171.107 299.844 170.422 303.108 169.906 306.4C169.724 307.925 170.467 309.694 171.17 311.179C174.171 317.498 179.463 321.51 185.387 324.804L191.453 328.185C179.092 327.529 172.457 320.61 168.121 311.005H168.144ZM191.271 323.564C183.452 322.94 175.751 317.348 172.315 309.631C177.607 316.866 185.284 319.899 193.775 322.687C192.93 322.995 192.061 323.627 191.248 323.564H191.271ZM178.634 309.457L186.532 307.506L187.433 310.413C186.516 311.993 181.224 311.621 178.578 309.457H178.634ZM189.392 305.461C185.182 305.224 180.901 306.179 176.651 306.598C184.455 303.707 193.238 305.129 200.347 300.208C196.943 306.187 196.958 305.887 189.336 305.461H189.392ZM216.42 354.969C211.871 364.731 205.86 373.475 197.803 380.655C190.561 387.116 182.117 390.71 172.244 390.046C165.727 389.604 161.383 384.517 161.865 378.198C163.887 383.79 164.953 383.427 171.256 383.506C179.621 383.609 186.532 380.718 193.301 376.548C186.903 382.077 179.337 384.644 171.027 385.41C170.964 385.741 170.893 386.073 170.822 386.405C172.381 386.766 173.965 387.007 175.561 387.124C182.615 387.124 189.668 385.718 194.162 380.141C202.061 370.347 212.329 362.354 217.368 350.309C217.447 350.127 217.795 350.056 218.766 349.519C217.779 351.77 217.115 353.381 216.42 354.969ZM224.998 344.377C214.264 345.064 200.189 334.227 200.686 321.55C205.781 329.851 214.114 333.263 222.186 336.818C224.382 337.781 227.518 336.636 230.211 336.407C232.596 336.09 235.007 336.019 237.407 336.194C234.958 342.007 230.717 343.982 224.998 344.377ZM234.476 332.884C235.748 333.09 237.012 333.287 238.276 333.508C239.539 333.729 241.009 334.006 243.236 334.409C238.023 331.81 233.3 330.167 229.445 327.3C225.591 324.433 222.526 320.412 219.114 316.898L219.904 316.108L237.375 329.914L238.26 328.864C230.409 322.995 222.502 317.19 216.997 308.999L217.905 307.878C222.005 310.753 226.191 313.517 230.18 316.566C237.288 321.953 242.549 323.343 250.605 321.487C247.604 325.436 243.86 325.049 240.242 323.754C236.87 322.537 233.726 320.681 230.322 319.014C232.806 322.382 236.526 324.626 240.663 325.254C244.801 325.882 249.019 324.842 252.39 322.363C252.043 327.182 249.492 328.951 245.89 328.998C246.206 330.365 246.49 331.621 246.798 332.987H248.299C244.634 336.533 239.524 336.668 234.453 332.861L234.476 332.884ZM248.804 303.873L249.902 302.854L257.99 313.612C258.859 314.169 259.873 314.458 260.905 314.441L259.586 315.737L258.006 313.612C254.539 311.779 250.084 307.317 248.804 303.873ZM247.375 335.688L249.191 335.341C250.982 344.087 252.78 352.833 254.586 361.58L252.39 361.904C250.716 353.184 249.044 344.445 247.375 335.688ZM281.339 395.717C284.806 399.035 288.179 402.478 291.796 405.63C293.676 407.273 295.746 408.505 297.862 405.243C298.652 404.058 301.022 403.908 303.131 403.102C305.295 405.006 305.129 407.052 302.341 409.311C296.575 414.05 290.675 412.841 284.024 407.644C274.704 400.377 266.284 391.95 260.573 381.326C259.894 379.903 259.708 378.294 260.044 376.753C264.973 383.285 269.428 390.236 274.957 396.207C279.696 401.349 285.43 405.756 291.228 409.769C295.595 412.786 298.873 411.57 301.172 406.996C293.605 410.946 288.858 406.159 283.866 402.155C274.633 394.762 268.259 385.196 263.014 374.762C262.826 374.288 262.745 373.779 262.777 373.27C262.777 373.048 263.03 372.835 263.109 372.717L280.999 398.948L282.16 398.308C281.891 397.423 281.607 396.547 281.331 395.717H281.339ZM273.401 383.546L272.611 383.925L266.971 372.022L267.761 371.556C269.641 375.552 271.518 379.546 273.393 383.538L273.401 383.546ZM261.521 364.123C265.662 357.62 267.6 349.957 267.05 342.268C266.663 334.875 264.459 327.576 263.101 320.397C268.306 332.687 271.481 345.443 268.022 358.965C265.462 369.091 259.862 377.116 250.597 382.29C246.988 384.296 243.141 384.328 238.418 382.566L242.794 381.168C240.171 380.378 237.668 380.126 235.685 378.988C233.702 377.851 232.202 375.876 230.788 373.98C246.024 379.296 260.866 362.828 261.908 350.158C262.287 344.224 262.083 338.266 261.3 332.371C261.079 333.722 260.858 335.08 260.747 335.728C259.515 330.681 258.133 325.049 256.758 319.425L257.548 318.935C258.338 319.915 259.436 320.776 259.878 321.897C266.047 337.402 265.447 352.023 256.261 366.682C253.243 371.5 250.732 376.058 245.882 379.043C245.645 379.186 245.582 379.628 245.092 380.623C253.488 377.329 257.335 370.513 261.521 364.123ZM267.721 309.623L243.591 298.21C243.844 297.665 244.105 297.128 244.381 296.59C247.32 297.578 250.234 298.676 253.22 299.521C257.311 300.682 261.521 301.456 265.549 302.783C267.5 303.423 269.159 304.963 271.252 306.282L267.721 309.623ZM275.865 308.359C274.096 307.877 272.705 306.1 271.45 304.157C277.721 306.314 283.653 309.173 290.217 304.157L277.903 303.004C286.457 301.282 295.406 301.906 303.281 295.761C302.38 301.74 297.578 302.143 293.803 303.66L294.284 304.536L300.832 302.83C301.504 306.614 300.2 308.446 296.093 309.204C289.378 310.474 282.462 310.207 275.865 308.423V308.359ZM367.196 295.406L356.225 298.77C359.305 293.707 363.262 294.616 367.196 295.406ZM348.042 306.677C352.71 306.416 357.157 306.44 361.509 305.808C361.788 305.765 362.065 305.707 362.338 305.634C364.21 305.129 365.979 303.912 367.796 303.067L367.346 302.949C363.318 302.443 359.282 302.001 355.285 301.322C354.613 301.203 354.132 300.026 353.571 299.26H353.421L353.492 299.189C353.516 299.225 353.542 299.26 353.571 299.292L367.314 302.972L367.875 303.044L367.804 303.099H376.84C376.587 308.517 358.507 312.119 348.042 306.685V306.677Z" fill="#A47C6F"/>
<path d="M437.73 218.316C438.022 218.127 438.52 217.708 438.591 217.787C443.204 221.286 448.069 221.254 453.006 218.711C455.928 217.203 457.784 219.928 460.225 220.149C463.914 220.473 467.705 221.262 471.283 220.694C472.863 220.449 473.905 217.305 474.561 215.054C473.431 216.421 472.302 217.795 470.706 219.746C470.706 216.081 470.651 213.427 470.706 210.734C470.801 207.156 472.025 204.486 475.927 203.459C492.672 199.067 504.876 209.865 502.253 227.676C501.259 234.548 498.925 241.158 495.381 247.13C484.892 264.27 471.536 279.119 456.11 292.065C455.32 292.728 454.878 293.842 453.89 295.335C451.975 294.123 450.129 292.805 448.361 291.386C432.367 277.413 418.86 261.458 409.564 242.201C406.478 235.618 404.891 228.431 404.919 221.16C404.801 212.519 409.974 207.535 416.949 203.783L417.446 204.336C417.257 205.426 416.562 206.761 416.957 207.55C419.848 213.324 423.023 218.893 428.323 222.961C432.699 226.317 436.908 229.903 441.079 233.521C444.531 236.514 447.816 239.698 451.189 242.778C452.713 244.176 454.277 245.519 455.825 246.885L456.734 246.159L453.574 222.376C447.208 224.746 441.861 224.912 437.367 220.007L437.73 218.316ZM487.988 215.157L488.873 215.899C483.407 224.106 476.441 230.962 469.127 237.502C467.958 238.544 467.263 240.124 466.346 241.451C467.847 242.336 469.245 243.536 470.864 244.026C473.526 244.707 476.22 245.253 478.937 245.661C474.198 247.778 471.417 250.218 470.09 255.424C468.661 261.016 471.488 264.057 475.28 267.698H472.255L475.145 271.971L493.146 249.326L482.199 246.467C484.928 245.972 487.727 246.004 490.445 246.561C493.122 247.043 494.821 246.309 496.148 243.773C500.373 235.981 501.992 227.04 500.768 218.261C499.465 209.035 489.71 201.998 480.611 203.372C475.746 204.115 473.352 207.945 475.185 212.29C476.701 215.891 475.635 219.138 472.886 221.112C469.885 223.261 466.141 224.374 461.828 226.357V238.908C464.309 237.731 466.386 237.257 467.729 236.009C471.946 232.06 475.904 227.834 479.932 223.687C482.602 220.875 485.303 218 487.988 215.173V215.157ZM428.323 234.958L414.8 225.314L415.717 224.153L441.853 243.505L442.532 243.015L413.695 208.198C401.326 222.85 412.778 248.955 429.239 264.799L441.047 253.575C438.712 257.408 435.939 260.958 432.785 264.152C430.858 266.174 430.282 267.73 432.667 269.996C435.518 272.698 437.801 275.976 440.518 278.827C444.72 283.234 449.072 287.515 453.361 291.804C454.125 289.281 454.43 286.64 454.262 284.008C454.072 279.182 454.585 274.143 453.377 269.578C451.6 262.888 448.709 256.474 445.976 250.076C445.156 248.342 443.761 246.947 442.027 246.127C433.488 242.399 424.816 238.979 416.198 235.432C415.14 234.998 414.121 234.469 413.079 233.979C418.149 233.655 422.573 237.194 428.323 234.974V234.958ZM473.905 272.872C472.12 269.989 470.469 267.343 468.803 264.633C468.536 264.183 468.241 263.75 467.918 263.338C464.98 259.697 461.67 260.242 459.23 264.025C454.025 271.963 456.371 279.98 457.863 288.068L459.04 288.858L473.905 272.872ZM457.816 242.209H458.606C459.238 237.049 459.872 231.889 460.509 226.728C460.857 223.964 459.38 222.779 456.513 222.155L457.816 242.209ZM406.918 229.058C407.431 224.011 408.079 217.645 408.647 212.029C405.496 217.313 405.764 223.782 406.918 229.058Z" fill="#A47C6F"/>
<path d="M474.703 279.554L502.261 243.607C502.601 243.884 502.948 244.152 503.296 244.397C496.227 258.078 485.998 269.27 474.703 279.554Z" fill="#A47C6F"/>
<path d="M437.73 218.316L437.375 220.061C434.555 217.392 433.757 214.003 435.645 210.796C437.817 207.092 435.858 205.591 433.188 203.98C427.849 200.757 422.636 201.839 417.446 204.383L416.949 203.83C422.96 199.494 430.89 199.715 436.063 204.367C437.975 206.089 438.978 207.755 437.264 210.441C435.668 212.937 435.376 215.82 437.73 218.316Z" fill="#A47C6F"/>
<path d="M117.088 196.619C113.139 202.646 110.769 209.826 104.371 214.083L117.088 196.619Z" fill="#A47C6F"/>
<path d="M100.58 225.631L111.765 210.963L113.099 211.974L102.041 226.76L100.58 225.631Z" fill="#A47C6F"/>
<path d="M123.217 197.464L116.591 203.167L115.319 201.69L122.001 196.026L123.217 197.464Z" fill="#A47C6F"/>
<path d="M0.308044 371.082C0.995218 371.193 1.69819 371.24 2.36957 371.414C5.4421 372.204 6.88754 371.374 7.06131 368.12C7.42464 361.485 7.59841 354.843 7.76428 348.192C7.90645 342.205 7.92225 336.218 8.01703 330.231C8.06442 327.593 8.1671 324.955 8.24609 322.159C14.2174 324.631 18.1667 329.165 22.661 333.509C24.6909 326.44 30.1725 322.261 33.7584 316.732C39.1847 308.431 47.7073 305.959 57.1618 306.093C64.7207 306.203 71.1502 309.394 77.1057 313.754C77.6599 314.201 78.3326 314.475 79.0408 314.544C78.4879 312.175 78.0456 309.758 77.3426 307.436C74.1279 296.686 70.6605 286.031 65.9055 275.841C65.2421 274.428 65.1789 272.737 64.8392 271.173L65.5027 270.857C66.0256 271.357 66.5213 271.884 66.9876 272.437C71.9163 278.867 76.8845 285.272 81.7263 291.773C85.1306 296.362 88.5981 300.927 91.5995 305.785C98.3607 316.732 101.868 328.58 101.552 341.628C101.34 353.465 98.525 365.109 93.3056 375.734C90.0119 382.417 89.6644 389.162 90.7465 396.215C92.421 407.163 97.4208 416.846 102.594 426.364C109.545 439.065 116.812 451.64 124.11 464.103C126.075 467.394 128.427 470.439 131.116 473.171C133.312 475.414 136.471 476.101 139.694 476.054C146.115 475.959 151.992 473.684 157.971 471.686C163.666 469.822 169.448 468.179 175.19 466.441C175.396 466.374 175.607 466.327 175.822 466.299C178.152 466.007 180.664 465.604 182.141 467.958C183.618 470.312 181.809 472.113 180.363 473.487C175.624 477.958 170.885 482.428 165.854 486.488C155.886 494.473 144.962 501.069 133.762 507.158C123.391 512.798 112.768 517.932 101.378 521.336C99.9165 521.746 98.4148 521.995 96.8995 522.079C93.432 522.339 91.7022 519.899 93.4004 516.787C94.6285 514.573 96.1776 512.552 97.9974 510.792C103.021 505.903 108.392 501.361 113.313 496.369C116.254 493.4 118.848 490.106 121.045 486.551C122.823 483.66 123.518 480.145 121.835 476.82C118.929 471.173 116.148 465.43 112.839 460.02C105.28 447.674 97.5866 435.408 89.6565 423.299C85.1069 416.341 79.7754 410.022 72.9431 405.196C67.6748 401.436 62.0352 398.767 55.3689 398.553C39.4454 398.04 25.0305 392.866 11.9268 383.941C7.17129 380.678 3.11621 376.496 0 371.643L0.308044 371.082ZM61.822 385.6H61.8931V383.388C60.4871 380.513 59.7842 380.497 57.9438 383.325C57.469 384.049 57.0467 384.807 56.68 385.592C55.5979 387.898 55.8191 388.301 58.3071 388.838C58.7336 388.925 59.2786 388.964 59.5235 389.241C61.1032 391.05 63.0542 390.528 64.9893 390.386C66.2768 390.299 66.8455 389.786 67.0192 388.412C67.2537 386.576 67.6989 384.774 68.3462 383.041C69.2229 380.718 70.3761 378.499 71.4187 376.216C69.2861 375.537 67.8249 376.271 66.9402 378.428C66.8297 378.704 67.4773 379.297 67.7301 379.739C67.5089 383.309 65.7555 385.568 61.822 385.6ZM80.6284 327.15C79.8798 327.724 79.1988 328.382 78.5985 329.109C78.4135 329.392 78.2909 329.711 78.2392 330.044C78.1874 330.378 78.2076 330.719 78.2984 331.044C79.0027 332.139 79.7952 333.175 80.6679 334.141C81.9633 335.768 83.1165 335.665 83.7563 333.706C84.396 331.747 84.633 329.899 85.1069 328.011C85.8968 324.963 85.644 322.443 83.0375 320.042C76.9003 314.378 70.4946 309.323 62.051 307.641C54.0972 306.061 46.2065 306.756 39.9351 311.867C35.0775 315.816 31.531 321.384 27.4001 326.226L27.9372 326.779C29.6433 326.21 31.3573 325.665 33.0476 325.057C33.4188 324.923 33.9717 324.615 34.0191 324.315C34.4772 321.519 36.0095 323.035 37.1153 323.58C38.2159 324.205 39.274 324.901 40.2826 325.665L40.6776 324.607C41.9808 324.82 43.0471 324.947 44.0502 325.168C44.8006 325.326 45.8827 325.389 46.1986 325.895C48.2128 329.054 50.9378 327.474 52.8334 326.416C55.7559 324.781 58.2834 325.136 61.2849 326.203L60.2028 327.443C62.3433 328.525 64.3653 329.631 66.4584 330.602C69.6968 332.079 71.0159 334.156 70.2813 337.229C70.0207 338.311 68.828 339.283 68.8517 340.286C68.9149 343.05 67.2246 343.911 65.0841 344.559C64.6638 344.725 64.2594 344.928 63.8756 345.167L64.0257 345.68L69.5547 344.464C72.2165 343.872 73.8989 342.426 73.9937 339.52C73.9937 338.019 74.0963 336.518 74.2543 335.033C74.3392 333.169 74.6037 331.317 75.0442 329.504C75.8261 327.364 78.1957 326.384 80.6284 327.127V327.15ZM6.57949 375.719L18.2615 379.96L20.7653 373.389C21.0103 372.945 21.1912 372.469 21.3024 371.975C21.5946 367.567 21.9106 363.152 22.0291 358.737C22.0291 357.947 21.2392 356.517 20.7179 356.438C19.1856 356.225 19.0118 355.222 18.8696 354.179C18.5932 352.181 18.4036 350.167 18.2931 348.153C18.0956 344.361 20.3941 341.478 21.9817 338.343C23.5693 335.207 23.5614 335.278 21.0102 333.122C20.2203 332.427 19.4857 331.582 18.6406 330.886C16.1683 328.793 13.6724 326.716 11.1449 324.686C10.5356 324.352 9.88496 324.1 9.20971 323.936C9.43087 326.684 9.69942 329.054 9.81 331.424C10.0294 337.129 9.72271 342.843 8.89377 348.492C8.05653 354.622 8.35667 360.901 7.96964 367.101C7.82747 369.716 7.15609 372.299 6.57949 375.719ZM126.235 471.639C125.871 470.849 125.674 470.304 125.397 469.814C113.697 449.32 101.978 428.836 90.241 408.363C89.4511 407.005 87.8714 406.089 86.7103 404.967C86.4418 404.177 86.7103 403.048 86.7103 401.887C86.7045 401.083 86.4538 400.301 85.9916 399.643C85.0279 398.395 84.0485 396.91 82.7137 396.271C82.3649 396.113 81.9873 396.028 81.6045 396.023C81.2217 396.018 80.8419 396.091 80.489 396.24C80.136 396.388 79.8175 396.608 79.5533 396.885C79.2892 397.162 79.0851 397.491 78.9539 397.85C80.3125 397.669 81.6079 397.132 82.6347 397.455C83.6615 397.779 84.8305 398.964 84.8305 399.785C84.8305 401.547 84.6804 403.83 83.6062 404.967C81.7263 406.95 81.3393 407.147 83.1007 409.438C84.3802 411.104 85.8099 412.668 86.9157 414.437C97.9105 431.883 108.868 449.357 119.789 466.86C121.274 469.214 123.044 471.062 126.235 471.639ZM176.312 467.871L176.059 467.326C174.949 467.477 173.849 467.693 172.765 467.974C165.475 470.343 158.2 472.76 150.91 475.13C148.09 476.054 145.065 476.528 142.466 477.855C132.024 483.186 121.685 488.644 113.55 497.506C109.411 502.016 104.498 505.824 100.035 510.057C98.2975 511.7 96.8205 513.612 95.225 515.405L95.6199 515.902C97.0021 515.397 99.2848 515.199 99.5692 514.322C100.233 512.435 101.694 512.34 102.95 511.819C110.439 508.871 117.183 504.302 122.696 498.438C121.164 498.375 119.655 498.628 118.154 498.644C117.578 498.644 116.993 498.138 116.417 497.854C117.807 496.132 117.467 493.273 120.421 492.507C122.191 491.931 123.838 491.031 125.279 489.853C126.859 488.731 127.996 487.072 129.584 486.03C132.933 483.834 136.448 481.891 140.247 479.64L140.492 481.78C140.824 481.719 141.146 481.61 141.447 481.457C142.94 480.311 144.836 479.948 145.839 477.752C146.376 476.583 149.298 476.457 151.17 475.983C151.434 475.953 151.702 475.99 151.947 476.091C152.193 476.192 152.409 476.353 152.576 476.559C152.629 476.824 152.623 477.097 152.559 477.359C152.495 477.621 152.374 477.866 152.205 478.076C151.186 479.3 149.938 480.343 149.046 481.622C148.548 482.317 148.532 483.368 148.295 484.253L149.172 484.837L168.768 472.199L169.148 472.689C167.497 473.992 165.862 475.311 164.187 476.583C162.513 477.855 160.822 479.063 158.698 480.619C164.984 476.975 170.886 472.704 176.312 467.871ZM75.8814 354.685C74.7124 355.372 73.654 355.941 72.6667 356.612C72.098 356.999 71.395 358.065 71.166 357.963C69.8469 357.331 68.1566 357.734 67.2167 355.798C66.3636 354.005 65.6765 351.762 63.1015 351.099C61.6668 350.701 60.1393 350.807 58.7731 351.399C57.5647 351.849 55.5347 351.96 54.7291 351.249C52.9914 349.709 51.6249 348.966 49.4055 349.74C49.0421 349.867 48.6156 350.072 48.2839 349.946C45.2982 348.706 42.3284 348.927 39.2163 349.772C39.8245 352.402 39.4296 354.914 40.8592 357.394C41.7518 358.974 42.0045 359.764 43.7738 358.974C44.4395 358.743 45.1204 358.558 45.8116 358.421L45.5273 360.617L46.6962 360.309C47.6994 361.304 48.6946 362.678 49.0105 362.544C50.5428 361.865 50.5902 363.91 51.617 363.737C53.5838 363.389 54.3973 364.282 54.5711 366.106C54.6992 366.6 54.9074 367.07 55.1872 367.496L58.0939 364.337C56.6563 364.692 55.0529 365.403 54.8002 363.334C54.5632 361.391 54.4447 359.25 56.1666 357.639C57.0355 356.849 57.8174 355.925 58.86 354.827C56.5615 355.048 54.3657 355.617 53.0941 353.547C55.4636 353.547 57.77 353.429 60.0843 353.642C61.1261 353.8 62.0824 354.31 62.7935 355.088C65.1157 357.67 68.3225 358.097 71.3871 358.989C71.8113 359.084 72.2553 359.019 72.6351 358.808C74.5702 357.718 76.4659 356.565 78.5353 355.332C76.4738 351.668 71.6399 349.717 73.2433 344.456L62.0668 348.453C63.536 349.559 65.092 350.238 65.9213 351.431C67.7854 354.132 70.6605 352.734 72.8326 353.01C74.4755 353.247 75.0363 353.579 75.8814 354.685ZM96.0306 345.68C96.3289 345.331 96.5786 344.943 96.7731 344.527C100.233 332.924 98.7082 321.685 93.4873 311.029C91.0229 306.014 87.5871 301.441 84.3171 296.859C79.3173 289.861 74.0489 283.029 68.9307 276.142C68.2909 275.296 67.5168 274.562 66.806 273.772C67.6347 276.019 68.7102 278.168 70.0128 280.178C71.9953 283.464 73.8515 286.836 76.0236 289.98C78.7249 293.89 81.6868 297.61 84.5461 301.401C84.9055 301.939 85.3242 302.434 85.7941 302.878C89.0957 305.682 89.151 307.617 86.347 310.105C86.9157 314.055 87.7134 317.759 87.8635 321.471C87.9124 323.317 88.3969 325.125 89.2774 326.748C90.9439 329.907 92.3657 333.232 93.7874 336.534C94.2421 337.768 94.6194 339.029 94.9169 340.309H95.4224L96.8758 331.739C98.1158 336.534 96.8047 341.028 96.0306 345.68ZM88.4638 326.55L87.6739 326.732C87.4461 327.302 87.251 327.885 87.0895 328.477C86.0598 333.428 83.1525 337.788 78.9776 340.641C77.1373 341.968 76.4422 343.595 75.8182 345.507C75.4312 346.652 75.7234 347.189 76.8924 347.584C79.6464 348.554 82.4994 349.216 85.3992 349.559C86.3247 349.715 87.2731 349.668 88.1787 349.421C89.0843 349.174 89.9254 348.733 90.6438 348.129C93.195 346.115 94.7747 343.714 93.8032 340.23C93.3688 338.714 93.3293 337.071 92.7211 335.61C91.4495 332.529 89.9092 329.567 88.4638 326.55ZM33.3319 383.309C39.1057 386.168 44.3899 388.467 50.456 388.443C51.4089 388.468 52.3512 388.238 53.1847 387.775C54.0182 387.313 54.7124 386.635 55.1951 385.813C56.3774 384.176 57.4639 382.473 58.4493 380.71C59.018 379.534 58.9469 378.041 59.1602 376.69C57.7384 376.508 56.2851 376.035 54.9107 376.2C52.7149 376.469 50.5823 377.204 48.4102 377.67C47.2728 377.914 46.0407 378.499 45.0849 377.125C44.9428 376.911 44.0818 376.967 43.7185 377.18C40.4169 379.083 37.1232 381.05 33.3319 383.309ZM19.7938 345.27L27.9135 342.639L28.7033 343.319L27.2421 344.527H31.0492C30.1488 345.973 29.5801 346.984 28.9166 347.931C27.021 350.649 26.6418 350.664 24.0511 348.721C23.4453 348.456 22.7929 348.314 22.1317 348.303L21.8711 349.322L27.6844 351.454L25.6624 352.244C25.3465 353.761 25.0621 355.103 24.7778 356.446L25.3939 356.557L26.4681 354.882C27.5817 356.707 28.6954 356.328 29.8644 354.811C31.5547 357.749 33.9559 356.051 36.0174 355.996L36.8941 358.01L37.684 358.16C38.0631 357.07 38.7266 355.996 38.774 354.89C38.72 353.23 38.5723 351.574 38.3317 349.93C38.3236 349.138 38.3684 348.346 38.466 347.56L34.8247 346.936L34.6904 347.489L36.2702 348.232L33.9638 350.996C33.869 348.255 33.4109 345.988 33.8216 343.887C34.2323 341.786 35.504 339.756 36.515 337.434C34.8642 338.595 33.482 339.622 32.0523 340.594C29.9513 341.984 28.1899 340.199 26.3259 339.804C25.9546 339.725 25.9704 338.074 25.7651 337.158C25.4333 335.665 25.0621 334.18 24.7146 332.695C25.1095 337.553 20.6863 340.483 19.7938 345.27ZM61.8931 346.139C54.2315 342.979 49.911 338.824 50.1953 334.946L52.5175 338.106L53.1257 337.711C52.5367 336.435 51.8775 335.193 51.151 333.991C49.5713 331.676 47.8731 329.457 46.246 327.174C45.1402 325.594 43.4341 325.658 42.3915 327.174C41.3489 328.691 40.1878 330.255 39.0899 331.771C39.2479 331.882 39.706 332.442 40.0694 332.387C42.9049 331.937 42.3284 334.062 42.51 335.547C42.6917 337.032 42.51 338.785 42.9839 340.246C43.7738 342.616 45.0691 344.851 43.5763 347.623L61.8931 346.139ZM85.5887 321.606C85.6737 320.985 85.7133 320.36 85.7072 319.734C85.3755 317.024 84.9174 314.315 84.6883 311.598C84.6172 310.808 84.6883 309.679 85.2096 309.276C86.655 308.099 86.426 306.812 85.6361 305.643C84.3084 303.764 82.8848 301.956 81.3709 300.224C78.8592 297.262 76.2842 294.348 73.3776 291.007C75.526 298.439 78.0061 305.129 79.2541 312.04C80.0202 316.369 82.9901 318.367 85.5729 321.606H85.5887ZM29.2246 370.442C28.9798 370.719 28.3321 371.848 27.9846 371.761C26.081 371.288 24.7778 372.378 23.2454 373.08C21.5709 373.87 19.6279 376.429 19.9596 378.183C20.0465 378.633 20.8364 379.178 21.3656 379.273C23.0682 379.556 24.7846 379.749 26.5075 379.85C28.577 379.992 30.6859 380.158 32.5183 378.491L31.5863 376.911L31.8312 376.469L34.2007 377.835L36.1833 370.182L34.3587 369.321C34.3587 370.348 34.6115 371.501 34.3587 371.619C33.5986 371.963 32.7472 372.049 31.9339 371.864C30.9823 371.489 30.0739 371.012 29.2246 370.442ZM31.9812 358.934C31.6653 358.144 31.1914 358.026 28.1031 358.215L27.0052 356.888L23.2691 361.264L24.059 361.904L25.4491 359.661L26.4996 361.857L28.2373 360.593C29.1852 362.646 30.4173 361.904 31.7127 360.68C32.5025 362.599 33.7426 363.049 35.3302 361.888C35.8515 362.465 36.2386 363.255 36.7204 363.318C37.3602 363.405 38.5923 363.034 38.6634 362.678C38.8671 361.083 38.9464 359.475 38.9004 357.868L36.0648 360.838C35.4645 356.636 35.4645 356.636 31.9496 358.966L31.9812 358.934ZM66.2689 334.607C66.2529 333.731 65.9666 332.881 65.4491 332.174C64.9316 331.467 64.2082 330.937 63.378 330.657C61.4631 329.807 59.6352 328.773 57.9201 327.569C56.451 326.59 55.3057 326.629 54.1209 328.067C54.7212 328.77 55.1635 329.646 55.8665 330.018C57.4499 330.874 58.7032 332.233 59.4287 333.88C59.871 334.725 61.4507 335.286 62.5881 335.396C63.7255 335.507 64.9103 334.962 66.2373 334.638L66.2689 334.607ZM39.4296 371.461C38.9952 372.314 38.7582 373.436 38.3238 373.523C35.7725 374.005 36.0411 376.319 34.722 378.112C36.2307 378.436 37.5102 379.139 38.4028 378.807C40.4491 377.938 42.4021 376.863 44.2319 375.6C44.3064 375.302 44.3138 374.99 44.2537 374.688C44.1936 374.387 44.0675 374.102 43.8844 373.855C42.4426 372.979 40.9556 372.18 39.4296 371.461ZM135.136 491.519C134.702 491.906 134.078 492.475 133.035 493.399L136.132 493.265V494.71L140.507 492.12L137.427 490.769L145.191 484.592L144.654 483.921C143.138 485.019 141.684 486.227 140.081 487.183C139.015 487.815 137.846 489.055 136.448 487.538C136.258 487.333 135.5 487.444 135.144 487.649C134.275 488.147 133.478 488.779 132.411 489.529L135.136 491.519ZM88.7639 366.904C88.7639 366.359 92.6342 359.147 93.4557 358.215C93.0705 358.271 92.6937 358.375 92.3341 358.523C87.7371 361.335 85.3123 360.743 82.6742 356.154C82.6238 356.019 82.5603 355.889 82.4846 355.767C82.1608 355.443 81.8606 354.977 81.4736 354.874C81.2287 354.819 80.5652 355.356 80.5889 355.585C80.6742 356.054 80.9166 356.48 81.2761 356.794C84.4355 359.685 84.7831 361.778 82.8163 365.545C82.6899 365.928 82.6207 366.327 82.611 366.73C84.9016 361.92 86.813 366.619 88.7639 366.904ZM86.6866 376.714L87.6345 377.046C90.4843 373.912 92.3996 370.043 93.1634 365.877C93.3925 364.534 92.6421 363.026 92.3736 361.588C91.639 362.804 90.628 363.958 90.2173 365.253C89.151 368.673 88.3611 372.172 87.4212 375.624C87.237 376.025 86.989 376.393 86.6866 376.714ZM65.3605 396.263C73.9216 394.328 81.5978 389.605 87.1842 382.835C80.818 388.783 73.346 392.898 65.3447 396.263H65.3605ZM71.553 371.232C72.0427 371.335 72.5008 371.58 72.6904 371.445C74.3254 370.253 75.9288 369.005 77.5006 367.717C77.6428 367.599 77.5559 366.928 77.3663 366.762C77.2053 366.642 77.0195 366.56 76.8227 366.522C76.6259 366.484 76.423 366.49 76.2289 366.54C74.2069 367.575 72.4376 367.172 70.8184 365.482C70.6447 368.484 70.6447 368.484 72.2639 369.431L71.553 371.232ZM22.037 384.186L22.2739 383.396C19.6279 382.717 16.8792 382.298 14.3754 381.295C11.8715 380.292 9.50986 378.712 7.0929 377.346L6.60319 378.136C9.12283 379.778 11.6425 381.437 14.17 383.072C14.2806 383.143 14.5096 383.199 14.5886 383.135C16.2552 381.848 17.6691 383.341 19.1935 383.562C20.1413 383.68 21.0812 383.965 22.037 384.186ZM44.5241 364.163C43.7896 362.915 43.1656 361.059 42.6048 361.075C40.9777 361.122 40.2352 362.568 39.8087 365.277C41.2068 365.324 42.5969 365.316 43.9791 365.443C44.7418 365.562 45.4944 365.739 46.2302 365.972L46.8226 362.812L44.5241 364.163ZM35.3776 330.041C34.0902 326.779 32.7869 326.274 29.5327 327.411C28.1346 327.901 28.1267 328.746 28.5691 329.71L35.3776 330.041ZM62.3433 376.643L63.2832 376.935C64.2468 374.968 65.2657 373.025 66.1109 371.011C66.261 370.648 65.716 369.984 65.4869 369.431C65.0367 369.771 64.389 370.008 64.1758 370.458C63.5149 371.889 62.9399 373.358 62.4539 374.858C62.3351 375.458 62.2979 376.072 62.3433 376.682V376.643ZM52.1857 368.626L51.8777 366.153C51.4196 366.217 50.7245 366.114 50.5428 366.367C49.9663 367.209 49.5066 368.126 49.1764 369.092C49.1211 369.25 49.8952 369.834 50.3612 369.984C51.1617 370.156 51.9758 370.256 52.7939 370.284L53.7102 368.863L52.1857 368.626ZM84.009 389.707L83.5983 388.996C79.5384 391.052 75.7563 393.616 72.3428 396.626L84.009 389.707ZM123.281 481.812C126.724 482.902 133.13 478.968 133.715 475.43C132.516 477.162 130.969 478.625 129.172 479.724C127.375 480.823 125.369 481.534 123.281 481.812ZM74.8151 289.711L74.0884 290.335L81.5684 299.024L82.1292 298.55L74.8151 289.711ZM74.0252 379.62L73.3223 379.534C73.2433 380.853 73.1564 382.18 73.0695 383.546C77.9113 382.843 77.9113 382.843 78.1957 381.177L74.5308 382.227L74.0252 379.62ZM165.285 481.283L164.922 480.769L154.298 488.273L154.583 488.676L165.285 481.283ZM76.8529 364.313C77.4058 363.618 78.2352 362.962 78.5195 362.117C78.5658 361.754 78.5174 361.385 78.379 361.046C78.2406 360.707 78.0169 360.409 77.7297 360.182C76.9398 359.882 75.9604 360.182 75.289 360.182L76.8529 364.313ZM13.6645 379.707C16.895 381.287 20.2045 382.385 23.7509 381.587L13.6645 379.707ZM61.0558 347.931L60.9847 347.205L52.6912 347.924L52.7623 348.713L61.0558 347.931ZM43.2367 368.112L42.5021 367.528C41.8677 367.528 41.2583 367.775 40.8039 368.218C40.3494 368.661 40.0858 369.263 40.0694 369.897C40.0694 370.166 40.7012 370.482 41.0409 370.774L43.2367 368.112ZM77.9903 339.583L78.4563 340.009L81.9475 336.716C79.6253 336.558 78.4168 337.632 78.0219 339.583H77.9903ZM121.077 507.032L120.674 506.448C118.589 506.637 117.12 508.162 115.524 508.928L119.008 508.241L119.213 508.857L121.077 507.032ZM102.239 519.472L102.413 519.97L109.853 517.49L109.624 516.826L102.239 519.472ZM48.6393 368.073C48.8289 366.928 48.9631 366.13 49.0974 365.332C48.6235 365.269 47.802 365.032 47.7231 365.182C47.3628 365.862 47.135 366.605 47.0517 367.37C47.0359 367.52 47.8731 367.757 48.6393 368.073ZM126.566 507.482L126.724 507.719L135.752 502.348L135.61 502.111L126.566 507.482ZM36.2702 380.75L36.1991 379.96C34.9353 379.352 33.6557 378.633 32.1866 380.908L36.2702 380.75ZM127.104 499.434L123.652 502.23L123.841 502.593L127.901 500.776L127.104 499.434ZM46.2144 370.008C43.2999 369.779 42.9049 370.229 43.8449 372.614L46.2144 370.008ZM128.549 474.403L124.3 475.414C125.121 476.733 126.827 476.433 128.549 474.403Z" fill="#A47C6F"/>
<path d="M39.319 380.829L43.9397 381.461L44.1055 381.998L40.2826 383.475C39.9904 382.693 39.7376 381.998 39.319 380.829Z" fill="#A47C6F"/>
<path d="M50.3217 343.43C48.4892 344.923 47.6204 344.701 46.8779 342.284C46.1082 339.982 45.6203 337.595 45.4246 335.176L50.3217 343.43Z" fill="#A47C6F"/>
<path d="M27.3685 376.429C25.2201 376.666 23.5693 376.864 21.9027 376.974C21.8158 376.974 21.4604 375.979 21.6183 375.797C22.0449 375.316 22.7715 374.636 23.198 374.739C24.6308 375.191 26.0254 375.756 27.3685 376.429Z" fill="#A47C6F"/>
<path d="M61.822 385.6L62.8883 389.841C61.3086 390.394 60.5187 388.933 59.2865 387.914L61.8852 385.608L61.822 385.6Z" fill="#A47C6F"/>
<path d="M315.081 132.696C315.091 133.181 315.067 133.667 315.01 134.149C314.528 136.266 315.302 137.83 316.937 139.18C319.307 141.131 321.763 143.066 322.364 146.044C321.77 146.585 321.24 147.192 320.784 147.853C319.741 149.867 319.023 150.112 316.922 148.69L317.127 151.897C321.076 152.023 324.773 151.178 328.185 154.267C330.989 156.841 334.875 158.216 338.177 160.246C342.189 162.734 346.075 165.403 350.024 167.963C350.925 168.539 351.92 168.974 353.358 169.724C353.358 165.482 353.484 161.683 353.358 157.876C352.994 148.793 352.528 139.71 352.07 130.626C351.912 127.514 351.501 127.151 348.563 127.411C347.576 127.506 346.644 127.83 346.28 126.448C346.225 126.235 345.585 126.203 345.246 126.029C344.456 125.611 343.405 125.35 342.947 124.686C342.102 123.454 342.252 122.317 343.69 121.235C344.274 120.816 344.48 119.418 344.345 118.581C344.014 116.922 343.161 115.374 342.766 113.715C342.315 111.867 343.034 111.346 344.946 111.346C346.139 111.379 347.327 111.158 348.429 110.698C353.523 108.384 358.752 108.645 363.902 110.074C366.888 110.864 369.7 112.444 372.527 113.763C377.379 116.135 382.946 116.592 388.119 115.042C392.969 113.644 397.842 112.317 402.581 110.603C406.467 109.197 406.957 107.562 404.951 103.992C402.684 99.9719 403.19 96.2991 405.346 92.3656C407.565 88.3057 409.295 83.9773 411.199 79.7279C411.46 78.9113 411.65 78.0735 411.767 77.224C408.243 78.3704 405.2 80.6574 403.118 83.7246C400.186 88.0656 398.543 93.1482 398.379 98.3843C398.213 107.239 389.691 114.521 381.105 112.602C376.453 111.468 371.895 109.976 367.472 108.139C359.594 104.961 350.859 104.606 342.75 107.136C341.71 107.428 340.75 107.955 339.946 108.676C337.616 110.951 336.621 110.888 334.954 108.092C334.646 107.57 334.369 107.033 334.243 106.788C335.823 105.359 337.15 103.984 338.643 102.8C339.423 102.259 340.308 101.887 341.241 101.71C349.566 99.6438 358.367 100.866 365.814 105.122C370.046 107.333 374.418 109.267 378.901 110.911C387.787 114.371 396.318 108.044 396.831 98.9372C397.254 89.2438 401.449 80.0997 408.521 73.4564C411.339 70.7876 414.314 68.2898 417.431 65.9765C418.157 65.4236 420.013 65.2498 420.503 65.7396C421.374 66.8066 421.939 68.0895 422.138 69.4519C422.166 70.2762 421.903 71.084 421.396 71.7346C419.752 74.1905 418.777 77.0328 418.568 79.9806C418.489 81.118 418.568 82.8636 416.317 82.0027C415.835 81.821 414.698 82.682 414.232 83.3217C411.925 86.4812 409.745 89.6406 407.526 92.8553L407.794 93.3529C410.954 92.1918 414.216 91.2756 417.21 89.7986C420.203 88.3215 420.077 88.0767 419.682 84.8146C420.201 84.9421 420.695 85.1557 421.143 85.4464C421.553 85.9109 422.108 86.2225 422.718 86.3301C423.328 86.4378 423.956 86.3351 424.5 86.0388C424.719 85.9048 424.965 85.8186 425.22 85.786C425.475 85.7535 425.734 85.7752 425.98 85.8498C426.226 85.9243 426.454 86.0501 426.648 86.2188C426.842 86.3875 426.998 86.5954 427.106 86.8287C427.493 87.4448 428.465 87.7054 429.792 88.5032C428.102 89.293 426.79 89.8933 425.677 90.4067C426.129 90.4551 426.574 90.5558 427.004 90.7069C427.335 90.8491 427.841 91.3862 427.794 91.4967C427.383 92.3498 426.49 93.0765 426.419 93.9453C426.301 95.3196 425.693 95.525 424.571 95.4539C424.366 95.4539 424.034 95.367 423.979 95.4539C423.054 96.9388 421.356 96.6545 420.116 97.2627C419.601 97.5594 419.013 97.705 418.42 97.6826C417.826 97.6603 417.25 97.4709 416.759 97.1363C415.18 96.3465 413.6 95.5566 411.696 96.4254C411.293 96.615 410.551 95.9989 409.943 95.8567C409.09 95.6593 408.213 95.5566 407.344 95.4144C407.226 96.2043 406.854 97.081 407.02 97.784C407.359 99.2926 408.045 100.702 409.022 101.9C409.999 103.098 411.242 104.052 412.652 104.687C414.595 105.683 416.467 106.836 418.347 107.949C418.965 108.231 419.506 108.656 419.927 109.19C420.464 110.137 421.167 111.322 420.977 112.238C420.819 113.028 419.555 113.889 418.608 114.079C415.14 114.805 411.594 115.177 408.11 115.848C400.788 117.262 393.474 118.676 386.2 120.287C382.795 120.987 379.305 121.176 375.845 120.848C371.89 120.624 367.922 120.78 363.997 121.314C362.212 121.527 360.838 122.949 359.803 124.734C356.73 130.208 356.343 136.171 356.296 142.205C356.225 151.02 356.225 159.843 356.248 168.658C356.248 171.304 356.77 171.643 359.408 171.817C367.306 172.362 372.598 167.963 377.456 162.528C380.694 158.911 384.225 155.562 387.598 152.071C391.429 148.121 396.413 147.418 401.539 147.182C403.522 147.047 405.511 147.047 407.494 147.182C414.26 147.866 421.021 145.838 426.293 141.542C432.841 136.487 439.325 131.234 445.478 125.587C450.067 121.369 452.848 115.761 455.123 109.995C455.272 109.603 455.338 109.184 455.315 108.764C455.292 108.345 455.18 107.936 454.988 107.562C453.543 105.446 451.868 103.479 450.249 101.386C448.954 102.42 447.532 103.668 445.992 104.751C444.775 105.611 443.322 106.141 442.137 107.025C440.956 107.926 439.883 108.96 438.938 110.106C435.218 114.561 432.003 119.537 427.786 123.438C422.754 128.083 417.265 132.672 410.448 134.41C406.223 135.484 401.641 135.294 397.21 135.413C390.771 135.505 384.441 137.101 378.728 140.073C378.477 140.198 378.212 140.291 377.938 140.349C377.819 140.349 377.677 140.31 377.045 140.183C378.001 139.496 378.625 138.754 379.415 138.533C384.32 137.111 389.201 135.492 394.201 134.583C397.788 134.026 401.429 133.899 405.046 134.204C409.785 134.473 413.734 132.577 417.446 130.05C421.018 127.771 424.435 125.259 427.675 122.53C430.392 120.09 432.549 117.001 434.886 114.181C436.016 112.815 436.964 111.298 438.046 109.869C439.436 108.013 440.779 106.235 443.227 105.43C443.873 105.152 444.457 104.747 444.944 104.24C445.431 103.732 445.811 103.132 446.063 102.476C446.921 100.006 448.591 97.9005 450.802 96.5044C451.576 96.0647 452.294 95.5344 452.943 94.9247C455.249 92.3814 454.822 89.6801 451.868 87.9029C450.715 87.2157 449.499 86.6707 447.753 85.8019C448.646 85.7229 449.104 85.5333 449.404 85.6834C451.21 86.4677 452.944 87.4086 454.585 88.4953C456.363 89.8222 456.41 92.1523 454.988 94.4587C454.173 95.8076 453.265 97.0982 452.271 98.3211C451.848 98.7246 451.588 99.2705 451.543 99.8538C451.498 100.437 451.67 101.017 452.026 101.481C453.3 103.479 454.751 105.359 456.363 107.096C459.23 109.885 459.593 110.927 457.863 114.624C457.516 115.35 457.168 116.077 456.702 117.072C457.374 117.072 457.761 117.072 458.14 117.072C461.907 117.262 463.669 119.671 462.792 123.336C461.915 127.001 463.092 130.326 465.391 133.241C466.236 134.315 467.342 135.199 468.076 136.329C470.777 140.499 469.782 145.238 465.296 148.232C461.367 150.964 457.237 153.396 452.943 155.507C445.51 158.974 437.935 162.315 429.729 163.46C424.603 164.171 419.389 164.25 414.216 164.566C410.393 164.787 406.562 164.819 402.739 165.088C401.703 165.126 400.696 165.438 399.82 165.993C398.944 166.548 398.232 167.326 397.755 168.247C392.732 177.299 385.118 183.144 375.323 186.279C371.019 187.646 367.046 189.707 364.408 193.53C363.249 195.274 362.375 197.191 361.817 199.209C361.335 200.829 360.695 201.35 359.242 200.576C357.789 199.802 356.083 199.115 354.945 197.961C351.059 194.099 346.194 192.875 341.036 192.156C336.17 191.469 331.234 190.971 326.479 189.786C321.424 188.554 318.493 183.412 319.173 178.247C319.462 176.354 319.594 174.442 319.568 172.528C319.602 171.093 319.244 169.676 318.533 168.429C317.999 167.718 317.61 166.91 317.389 166.049C317.168 165.188 317.119 164.293 317.245 163.413C317.988 158.01 315.468 152.868 315.95 147.569C316.308 144.142 315.649 140.686 314.054 137.632C313.571 136.832 313.408 135.878 313.598 134.962C313.789 134.047 314.318 133.237 315.081 132.696ZM458.116 148.532L434.476 156.605C436.751 156.281 440.313 156.012 443.764 155.238C449.041 154.045 454.175 152.363 458.543 148.967L463.953 145.665L463.677 145.231L458.116 148.532ZM337.505 170.948L337.197 171.888C336.033 171.66 334.891 171.329 333.785 170.901C330.31 169.218 326.858 169.606 323.446 170.901C323.046 171.075 322.688 171.331 322.395 171.654C322.102 171.977 321.882 172.358 321.748 172.773C321.353 174.842 321.353 176.983 321.092 179.092C320.673 182.417 322.158 184.921 325.444 185.363C328.546 185.895 331.707 185.991 334.835 185.647C346.044 183.965 357.236 182.125 368.365 180C378.68 178.025 387.858 173.681 394.785 165.443C398.016 161.596 402.171 160.135 407.044 159.859C411.917 159.582 416.901 159.377 421.696 158.437C427.722 157.2 433.671 155.618 439.515 153.698C446.268 151.542 452.943 149.061 459.538 146.479C462.524 145.357 464.976 143.148 466.402 140.294C467.271 138.556 466.931 137.206 465.667 135.839C464.557 134.732 463.586 133.493 462.776 132.151C461.923 130.571 460.896 130.318 459.411 130.958C456.035 132.31 452.992 134.38 450.494 137.024C448.667 139.054 446.729 140.982 444.689 142.798C440.739 146.297 436.577 149.52 431.206 150.649C430.012 150.95 428.838 151.324 427.691 151.771C422.612 153.492 417.494 155.009 412.036 153.982C408.276 153.279 404.532 152.529 400.78 151.786C397.029 151.044 393.182 151.162 389.983 153.579C387.279 155.55 384.777 157.783 382.511 160.246C378.909 164.298 375.466 168.531 370.726 171.256C364.803 174.661 358.586 175.861 352.291 171.983C348.563 169.692 344.851 167.378 341.186 164.985C339.118 163.508 336.683 162.628 334.148 162.442C332.174 162.347 330.199 161.897 328.24 161.841C325.995 161.711 323.743 161.812 321.519 162.141C320.729 162.291 320.097 163.642 319.394 164.44C320.181 164.814 321 165.116 321.842 165.34C323.667 165.656 325.95 164.732 326.834 167.41C326.929 167.678 327.671 167.765 328.13 167.876C329.528 168.215 330.965 168.413 332.324 168.863C334.109 169.455 335.783 170.245 337.505 170.948ZM405.433 96.1806L404.84 96.3386C404.851 97.2945 404.938 98.248 405.101 99.1899C405.472 100.577 405.918 101.943 406.436 103.281C408.466 108.881 408.079 109.813 402.605 112.349C402.348 112.465 402.084 112.565 401.815 112.649C397.076 114.055 392.424 115.572 387.669 116.812C382.761 118.187 377.535 117.892 372.812 115.974C368.073 114.079 363.484 111.638 358.207 111.48C355.048 111.385 351.888 111.338 349.606 114.158C347.781 116.417 348.855 119.766 351.691 120.066C353.91 120.332 356.155 120.297 358.365 119.963C363.318 119.173 368.238 118.478 373.246 119.229C379.008 120.046 384.878 119.639 390.473 118.036C396.065 116.527 401.855 115.777 407.565 114.742C410.859 114.142 414.184 113.723 417.462 113.052C417.905 112.961 418.321 112.772 418.681 112.499C419.041 112.225 419.334 111.875 419.54 111.472C419.69 110.911 418.797 109.892 418.126 109.363C416.965 108.645 415.768 107.986 414.54 107.389C410.172 104.798 405.693 102.262 405.441 96.1806H405.433ZM399.801 149.843L409.145 151.786C413.229 152.624 417.265 152.805 421.23 151.147C424.626 149.717 428.078 148.414 431.498 146.945C437.066 144.601 442.038 141.038 446.047 136.518C447.445 135.019 448.946 133.62 450.541 132.332C453.337 129.963 456.252 127.664 458.977 125.224C460.628 123.731 460.557 121.875 459.182 120.777C457.808 119.679 456.268 120.216 454.862 121.969C453.729 123.328 452.435 124.543 451.007 125.587C448.883 127.167 446.529 128.486 444.42 130.113C438.259 134.852 432.217 139.773 426.024 144.48C420.895 148.348 414.555 150.261 408.142 149.875C405.243 149.749 402.313 149.843 399.809 149.843H399.801ZM354.779 170.301H355.064C355.177 169.818 355.248 169.326 355.277 168.831C355.182 166.233 354.882 163.634 354.937 161.051C355.095 153.88 355.49 146.716 355.577 139.544C355.632 135.049 355.917 130.689 358.018 126.59C358.255 126.116 357.733 125.247 357.481 124.22C355.624 127.143 354.993 127.443 352.939 126.377C353.563 141.155 354.179 155.728 354.787 170.301H354.779Z" fill="#A47C6F"/>
<path d="M323.888 89.49C322.822 93.7552 321.819 98.0362 320.65 102.27C320.278 103.644 320.46 104.537 321.755 105.098C325.839 106.883 326.732 110.627 327.466 114.442C327.605 115.112 327.507 115.81 327.19 116.416C324.465 120.666 321.661 124.868 318.865 129.054C318.699 129.299 318.304 129.386 317.956 129.583C316.661 128.051 316.977 126.597 318.091 125.349C319.978 123.233 320.855 119.268 319.473 116.661C317.174 112.333 317.309 108.178 319.086 103.652C320.515 99.9871 321.092 95.9905 322.142 92.1755C322.515 91.1606 322.975 90.1802 323.517 89.2451L323.888 89.49ZM320.895 117.34C320.995 118.119 321.151 118.89 321.361 119.647C321.599 120.172 321.884 120.674 322.214 121.147C322.762 120.848 323.261 120.464 323.691 120.01C324.335 119.139 324.853 118.182 325.231 117.167C325.413 116.329 325.495 115.472 325.476 114.615C324.512 114.718 323.351 114.528 322.64 115.01C321.795 115.571 321.329 116.716 320.895 117.34Z" fill="#A47C6F"/>
<path d="M436.174 79.5064C434.223 78.5033 432.312 77.3896 430.29 76.5208C427.92 75.494 427.17 73.5667 426.664 71.2445C426.065 68.4369 425.273 65.6738 424.294 62.9748C423.774 61.7312 422.942 60.643 421.878 59.8153C418.244 56.9087 414.492 54.16 410.82 51.3323C410.457 51.0005 410.129 50.6326 409.84 50.2344L410.219 49.7842C411.799 50.8742 413.418 51.9484 414.998 53.0621C418.118 55.2737 421.254 57.4616 424.302 59.768C425.003 60.3634 425.502 61.1607 425.732 62.0506C426.396 64.4834 426.917 66.9635 427.375 69.4437C428.165 73.5825 430.89 75.9284 434.428 77.6266C435.139 77.9741 435.826 78.3532 436.529 78.7245L436.174 79.5064Z" fill="#A47C6F"/>
<path d="M331.107 143.343L320.105 140.231C324.694 137.19 327.695 141.147 331.297 142.49L331.107 143.343Z" fill="#A47C6F"/>
<path d="M333.011 127.616L336.312 123.572L336.968 124.094L333.698 128.161L333.011 127.616Z" fill="#A47C6F"/>
<path d="M292.499 532.583C291.062 537.252 289.695 541.675 288.353 546.011C292.104 540.98 295.532 535.498 299.829 530.814C307.838 522.063 316.305 513.73 324.678 505.31C332.332 497.617 340.112 490.042 347.971 482.278C360.324 498.438 374.826 513.035 389.422 527.56L390.978 526.833C390.189 525.364 389.083 523.974 388.727 522.402C388.111 519.74 387.448 516.873 387.803 514.251C387.975 513.197 387.898 512.117 387.579 511.098C387.259 510.079 386.706 509.149 385.963 508.382C378.522 499.765 371.027 491.195 363.618 482.546C361.304 479.837 359.266 476.907 356.975 474.182C355.925 472.934 355.972 471.962 357.023 470.84C363.563 463.906 367.362 455.446 370.561 446.631C370.829 445.889 372.14 445.304 373.064 445.052C373.989 444.799 375.015 445.257 375.995 445.249C376.967 445.289 377.934 445.078 378.802 444.638C379.67 444.197 380.41 443.542 380.953 442.734C381.496 441.926 381.822 440.992 381.901 440.022C381.981 439.052 381.81 438.078 381.405 437.193C380.931 436 380.323 434.863 379.668 433.464C385.133 431.032 383.759 426.822 382.448 422.675C388.648 420.898 388.972 419.318 385.031 410.59L423.165 420.795C420.314 418.276 416.807 416.056 414.477 412.897C412.147 409.737 409.145 408.797 405.67 408.158C399.09 406.886 392.542 405.48 385.923 404.121C389.715 399.84 393.561 396.025 396.815 391.752C406.728 378.759 412.857 363.941 415.938 348.01C417.115 341.92 420.045 337.157 423.678 332.608C426.364 329.251 429.508 326.289 432.951 322.561L425.005 327.3C423.607 321.147 426.143 316.463 428.086 311.503C401.333 334.883 383.53 364.423 369.802 397.179C362.694 389.746 356.162 382.961 349.669 376.192C345.285 371.611 341.044 366.895 336.51 362.48C334.93 360.948 332.671 360.111 330.712 358.997C326.108 356.351 321.487 353.721 317.032 351.177C320.468 360.269 326.036 368.459 332.987 375.797C339.938 383.135 346.675 390.33 353.247 397.313L348.658 404.856C345.499 405.527 341.407 406.799 340.601 411.649C338.098 412.178 335.712 412.391 333.564 413.228C330.404 414.445 329.559 416.633 330.357 419.934C330.394 420.332 330.51 420.719 330.697 421.072C333.951 425.345 331.684 428.481 328.848 431.822C326.732 434.316 324.947 437.075 323.541 440.028C322.419 442.398 320.989 442.88 318.675 442.627C308.833 441.529 298.944 440.605 289.087 439.57C279.048 438.512 269.009 437.382 258.962 436.332C257.889 436.157 256.792 436.189 255.731 436.426C250.755 437.888 245.811 439.483 240.266 441.221C244.871 442.184 249.041 443.33 253.299 443.898C274.088 446.687 294.9 449.317 315.697 452.01C316.171 452.074 316.645 452.176 317.474 452.326C316.084 456.426 314.694 460.406 313.383 464.403C308.731 478.715 304.094 493.043 299.355 507.332C298.693 509.068 297.757 510.687 296.583 512.126C291.054 519.472 285.414 526.762 279.806 534.06C277.244 537.201 274.916 540.524 272.84 544.005C273.543 543.302 274.285 542.638 274.941 541.888C277.887 538.515 281.26 536.209 285.999 535.64C288.163 535.38 290.169 533.721 292.499 532.583ZM253.544 442.959L245.076 441.379C248.86 439.317 251.308 440.739 253.544 442.959ZM289.403 441.916L289.285 442.706L253.22 438.828C255.296 437.996 257.526 437.621 259.76 437.73C268.219 438.52 276.663 439.483 285.098 440.494C286.591 440.739 287.997 441.442 289.427 441.916H289.403ZM319.56 354.092C322.34 355.711 325.318 357.409 328.248 359.171C331.052 360.861 334.859 361.043 336.676 364.518C327.174 366.714 322.909 363.681 319.56 354.092ZM406.625 335.767L407.305 336.249L395.954 352.275L395.259 351.896L406.625 335.767ZM396.736 357.164C390.773 365.892 385.584 375.134 379.691 384.723C381.224 380.339 382.274 376.35 383.98 372.661C386.168 367.922 388.222 362.867 391.523 358.942C398.906 350.039 405.66 340.632 411.736 330.791C414.619 326.202 418.615 322.308 422.107 318.098L423.26 318.888C421.364 322.277 419.761 325.878 417.502 329.014C410.725 338.476 403.316 347.536 396.736 357.164ZM399.351 363.483L398.679 363.017L411.317 344.645L411.981 345.103C408.181 351.533 404.667 358.144 399.351 363.499V363.483ZM371.335 399.09C369.755 397.51 370.963 396.72 371.603 395.567C372.243 394.414 372.828 393.3 373.396 392.147C375.244 388.419 377.069 384.683 378.925 380.947L379.865 381.342C378.135 386.121 376.398 390.899 374.51 396.128L388.324 378.491L388.838 378.814L383.522 388.482L384.004 388.838L404.28 362.543C403.039 365.071 401.855 367.448 400.694 369.834C394.872 381.808 387.053 392.052 375.418 399.019C374.004 399.872 372.97 400.717 371.335 399.106V399.09ZM389.106 410.819C389.185 410.519 389.264 410.227 389.351 409.927L397.858 412.344L397.668 413.094L389.106 410.819ZM365.095 399.896C358.939 393.298 352.789 386.697 346.644 380.094C352.631 383.68 360.071 385.473 362.915 393.885L358.966 389.541L358.602 389.849L365.585 399.501L365.095 399.896ZM303.423 507.087L316.155 495.121L316.85 495.847L304.308 508.003L303.423 507.087ZM305.003 497.861L302.68 505.76L301.575 505.436L304.252 497.656L305.003 497.861ZM333.603 428.101C336.542 431.893 336.455 431.853 333.935 435.423C331.697 438.439 329.67 441.606 327.869 444.902C321.471 457.279 317.474 470.532 313.975 483.96C313.107 487.293 311.029 490.603 311.179 493.849C311.353 497.743 309.6 499.631 306.053 501.424C306.424 497.04 305.966 492.38 307.309 488.32C312.269 473.313 317.395 458.305 325.697 444.641C326.187 443.851 326.542 442.943 326.961 442.09L326.036 441.671L318.462 457.065L317.585 456.584C321.376 446.268 326.131 436.474 333.603 428.101ZM318.138 490.271C321.637 479.576 325.104 468.882 328.683 458.219C328.967 457.366 330.144 456.031 330.586 456.149C332.166 456.552 334.227 457.113 334.922 458.305C336.713 461.602 338.239 465.036 339.488 468.574C339.631 469.064 339.663 469.579 339.583 470.083C339.502 470.587 339.311 471.067 339.022 471.488C336.763 474.087 334.33 476.551 331.85 478.952C327.703 482.988 323.469 486.93 319.275 490.919L318.138 490.271ZM352.031 408.868C351.083 406.87 349.574 404.192 352.283 402.494C355.174 400.685 356.699 403.213 358.176 405.219C358.248 405.285 358.331 405.339 358.421 405.377L358.373 405.235V405.29C358.31 404.5 358.247 403.671 358.176 402.7L358.089 401.633L370.347 411.254L370 411.83L361.035 406.91L365.553 412.273L364.566 413.063L358.373 405.29C359.953 408.102 361.477 410.914 362.733 413.189L357.639 410.685L357.346 411.009L365.703 420.535C358.721 419.413 354.827 414.674 352.031 408.853V408.868ZM375.102 435.447L366.414 426.759C369.234 429.413 374.857 429.002 375.102 435.447ZM350.964 424.942C349.827 424.029 348.748 423.045 347.734 421.996C345.759 419.674 343.477 417.438 342.205 414.745C341.51 413.276 342.458 410.883 343.066 409.042C343.232 408.545 345.104 408.039 345.791 408.371C350.656 410.74 354.534 414.042 355.664 420.219L345.356 416.396L351.612 424.223L350.964 424.942ZM339.314 427.738C338.745 429.428 339.172 430.194 340.056 431.34C343.461 435.763 346.644 440.289 344.709 446.347C340.759 438.448 336.771 430.605 332.924 422.651C332.095 420.945 331.771 418.986 331.171 417.012C332.491 416.954 333.806 417.216 335.003 417.777C336.2 418.338 337.243 419.18 338.043 420.232C338.844 421.284 339.377 422.514 339.599 423.817C339.82 425.12 339.722 426.457 339.314 427.714V427.738ZM351.059 448.014C350.269 444.688 349.622 441.695 348.871 438.385C351.794 440.226 351.952 443.432 352.647 446.284C352.757 446.702 351.565 447.461 351.059 447.99V448.014ZM353.602 443.63L357.702 444.42L355.056 449.799C354.527 447.548 354.116 445.818 353.602 443.606V443.63ZM360.293 433.788L350.143 434.807C349.487 433.188 348.832 431.585 347.931 429.389C350.04 429.049 352.094 428.046 353.381 428.654C355.838 429.8 357.868 431.885 360.293 433.765V433.788ZM351.32 462.523C351.644 460.865 351.58 459.001 352.354 457.587C356.304 450.407 360.482 443.369 361.272 434.894C363.547 435.518 364.187 436.837 363.642 438.899C362.591 442.714 361.777 446.6 360.537 450.344C358.887 455.11 356.042 459.374 352.275 462.729L351.32 462.523ZM347.655 461.899C346.652 458.456 345.909 455.873 345.167 453.306L351.667 456.465C350.514 458.021 349.353 459.585 347.655 461.876V461.899ZM341.036 468.218C337.813 462.95 335.673 457.255 335.617 450.841C335.617 447.808 336.873 445.928 338.887 444.262L342.347 451.165C339.44 456.789 344.069 461.054 346.375 465.935C344.227 465.501 344.227 465.501 339.685 458.574L338.895 458.882C340.357 462.547 341.573 466.33 343.358 469.829C345.33 473.484 347.508 477.023 349.882 480.429C352.046 483.691 354.424 486.827 356.707 490.01L355.64 490.721C350.735 483.225 345.704 475.824 341.036 468.194V468.218ZM282.855 531.801C286.394 527.41 289.435 523.247 292.894 519.472C296.204 515.862 299.466 511.826 303.597 509.441C312.372 504.37 318.359 496.803 324.631 489.26C329.615 483.241 335.594 478.052 341.131 472.491L342.473 473.281C342.205 474.268 342.197 475.445 341.62 476.204C332.458 488.138 322.14 499.139 310.816 509.046C305.65 513.635 300.208 518.113 296.014 523.516C292.555 527.963 288.684 530.656 282.855 531.778V531.801Z" fill="#A47C6F"/>
</g>
<defs>
<clipPath id="clip0_118_513">
<rect width="512" height="546.011" fill="white"/>
</clipPath>
</defs>
</svg>
