<svg width="172" height="87" viewBox="0 0 172 87" fill="none" xmlns="http://www.w3.org/2000/svg">
<path fill-rule="evenodd" clip-rule="evenodd" d="M161.775 6.27853L168.992 4.92977C169.894 4.76079 171.442 5.22964 171.614 6.12748L171.84 7.36419C172.009 8.26701 170.736 9.26178 169.833 9.43076L162.618 10.7805C162.244 10.85 161.857 10.7891 161.523 10.608C161.188 10.4269 160.926 10.1364 160.779 9.78516L154.518 10.8556C154.568 12.2628 154.106 13.6403 153.219 14.7338C152.332 15.8273 151.08 16.5629 149.693 16.8046C148.305 17.0463 146.878 16.7779 145.673 16.0489C144.469 15.3199 143.568 14.1796 143.139 12.8387L141.712 13.0878C141.629 13.1004 141.545 13.1046 141.462 13.1002C142.012 20.9862 144.586 29.3232 147.142 35.9159L147.333 36.4046C147.449 36.2824 147.584 36.1787 147.732 36.0972L149.105 35.3659C149.299 35.2624 149.51 35.198 149.729 35.1767C149.947 35.1553 150.167 35.1773 150.377 35.2414C150.587 35.3055 150.782 35.4105 150.951 35.5503C151.12 35.6901 151.259 35.8619 151.362 36.0559L153.68 40.4094C153.782 40.602 153.846 40.813 153.867 41.0302C153.888 41.2474 153.867 41.4667 153.803 41.6755C153.739 41.8842 153.635 42.0784 153.496 42.2469C153.358 42.4155 153.187 42.555 152.994 42.6575L151.621 43.3888C151.235 43.5951 150.784 43.6404 150.365 43.5151C152.377 47.9044 154.266 51.4666 155.444 53.593L158.074 52.1912C158.178 52.1363 158.288 52.0923 158.402 52.0599C158.407 51.7644 158.491 51.4757 158.646 51.2237C158.8 50.9718 159.019 50.7657 159.28 50.6268L159.769 50.3652C159.963 50.2616 160.175 50.1973 160.393 50.1759C160.611 50.1546 160.831 50.1766 161.041 50.2407C161.251 50.3048 161.446 50.4098 161.615 50.5496C161.784 50.6893 161.923 50.8611 162.026 51.0551L164.427 55.5631C164.531 55.7564 164.595 55.9682 164.616 56.1865C164.638 56.4047 164.616 56.6251 164.552 56.8348C164.488 57.0445 164.383 57.2395 164.243 57.4084C164.103 57.5774 163.931 57.7171 163.737 57.8194L163.248 58.081C163.005 58.21 162.734 58.2769 162.459 58.2757C162.184 58.2745 161.914 58.2052 161.672 58.074C161.57 58.1708 161.455 58.2534 161.331 58.3196L155.219 61.5758C154.887 61.7528 154.504 61.8114 154.133 61.7423C153.763 61.6731 153.427 61.4802 153.18 61.1951L153.03 61.2607C152.913 61.3883 152.776 61.4961 152.624 61.5797L149.868 63.0477C149.578 63.2017 149.248 63.2623 148.923 63.2211C148.598 63.1799 148.293 63.0389 148.051 62.8176C141.332 65.2254 130.301 69.4755 121.846 74.1885L121.899 74.2852C122.434 75.2821 122.207 76.441 121.398 76.8722L116.568 79.4457C115.756 79.8777 114.667 79.4166 114.137 78.4183L114.074 78.3004C113.874 77.9319 113.776 77.5169 113.789 77.0978C113.476 76.945 113.219 76.697 113.056 76.3895L96.6199 45.5542C95.5352 46.0552 94.3586 46.3268 93.164 46.352C91.9694 46.3772 90.7824 46.1554 89.6775 45.7006C89.5926 45.6874 89.5091 45.6666 89.428 45.6384C89.2409 45.5719 89.0651 45.4771 88.9067 45.3573L88.8072 45.2999L88.7803 45.2467C88.7745 45.2415 88.7688 45.236 88.7632 45.2304C88.749 45.2166 88.7349 45.2028 88.7183 45.1932C88.3631 44.8534 88.0621 44.461 87.8259 44.0298C88.1099 44.2534 88.4161 44.4472 88.7397 44.6083C88.9673 44.2 89.0589 43.7299 89.0013 43.2661L82.4415 46.7615C82.3819 46.7906 82.3149 46.8012 82.2492 46.792C82.4794 48.2478 82.3291 49.3358 81.9334 49.5498C81.8586 49.5824 81.7774 49.5981 81.6958 49.5958C81.6142 49.5934 81.5341 49.573 81.4613 49.536C81.4499 49.9584 81.3299 50.3707 81.1128 50.7332C80.8958 51.0957 80.589 51.3962 80.2221 51.6058L45.687 70.7218C45.3158 70.9224 44.8991 71.0237 44.4773 71.0158C44.0555 71.0079 43.6429 70.8912 43.2795 70.6769C43.273 70.7582 43.2485 70.837 43.2078 70.9076C43.167 70.9782 43.111 71.0388 43.0438 71.0851C42.5759 71.3437 41.2944 70.6857 39.9651 69.3518C40.111 70.1683 40.1976 70.7846 40.1976 70.7846L21.1089 80.9526C20.5258 81.2575 19.8168 81.1291 19.2727 80.6845C19.2816 81.1519 19.2792 81.4625 19.2792 81.4625L9.68003 82.8846L5.1366 85.3053C4.98525 85.3713 4.81821 85.3928 4.65509 85.3672C4.49197 85.3416 4.33954 85.27 4.21569 85.1608L1.20174 86.7678C1.11279 86.8292 1.01186 86.8711 0.90558 86.8907C0.799295 86.9104 0.690063 86.9073 0.585048 86.8817C0.480033 86.8562 0.381612 86.8087 0.296253 86.7424C0.210894 86.6761 0.140525 86.5925 0.0897661 86.497C0.0390076 86.4016 0.00900637 86.2965 0.00173573 86.1887C-0.00553489 86.0809 0.0100906 85.9727 0.0475807 85.8713C0.0850709 85.77 0.143581 85.6777 0.219268 85.6005C0.294955 85.5234 0.386103 85.4631 0.486735 85.4236L3.5538 83.7898C3.55326 83.6494 3.5891 83.5113 3.65782 83.3889C3.72654 83.2665 3.8258 83.164 3.94592 83.0914L8.52511 80.6471L10.5186 78.5085L15.1147 73.5673C15.1147 73.5673 15.3506 73.7257 15.7005 73.9742C15.6597 73.6528 15.7142 73.3265 15.8572 73.0359C16.0003 72.7452 16.2255 72.503 16.5051 72.3392L19.6236 70.6776C18.8207 72.9572 19.2433 74.7962 21.227 74.5943C22.8125 74.4345 25.0869 72.5222 27.0253 70.0575C26.627 70.4027 26.2219 70.744 25.8098 71.0746C25.3257 71.461 24.8312 71.8347 24.3175 72.1842C23.8058 72.5402 23.2662 72.8546 22.7041 73.1242C22.4186 73.2601 22.1203 73.3673 21.8137 73.4441C21.4992 73.5341 21.1663 73.5375 20.85 73.4541C20.6904 73.4032 20.5479 73.3094 20.438 73.183C20.3342 73.0585 20.2607 72.9116 20.2234 72.7538C20.1556 72.4497 20.1599 72.134 20.2358 71.8319C20.1885 72.1318 20.2121 72.4387 20.3048 72.7278C20.3518 72.8666 20.4307 72.9925 20.5351 73.0953C20.637 73.1922 20.7636 73.2592 20.9011 73.2889C21.1859 73.3346 21.4777 73.3029 21.7461 73.1972C22.0248 73.0971 22.2934 72.9707 22.5481 72.8196C23.0626 72.5091 23.5515 72.1582 24.0102 71.77C24.4784 71.3767 24.9251 70.9709 25.3568 70.5565C26.2263 69.7134 27.0522 68.8231 27.8562 67.9134C28.5082 67.1749 29.1422 66.4216 29.7666 65.6582C29.8453 65.4913 29.9197 65.3241 29.9915 65.1576L35.5973 62.1689C35.5973 62.1689 35.9387 62.4589 36.4061 62.8792C36.0149 61.0892 36.1417 59.7046 36.5982 59.4505C36.7502 59.3635 36.9611 59.3967 37.2157 59.5305C37.2524 59.1395 37.3829 58.7631 37.5961 58.4333C37.8092 58.1035 38.0987 57.8299 38.4401 57.6358L42.8734 55.181L42.699 55.2786L42.9061 55.3031L42.2608 56.5167L40.9019 56.3759L40.9824 56.2365L40.5269 56.489L40.6616 56.5048L40.0179 57.7193L38.6606 57.5795L38.7047 57.5032L38.5911 57.5659C38.5208 57.6056 38.4543 57.6516 38.3923 57.7033L38.417 57.7065L37.8538 58.7662L37.7961 59.2992L37.8876 59.1176L38.5624 59.2019L38.506 58.9968L37.9754 58.9426L38.5908 57.7272L39.9301 57.8943L39.5119 58.6838C39.4887 58.7279 39.466 58.7723 39.4433 58.8167C39.3979 58.9055 39.3525 58.9944 39.3027 59.0807L38.5571 59.0041L38.6588 59.2111L39.1956 59.2777L38.9454 59.757C38.9877 59.8367 39.0303 59.9168 39.0752 59.9957L39.4236 59.3119C39.6775 59.3428 39.9312 59.3728 40.1847 59.4027C40.3624 59.4237 40.5399 59.4447 40.7173 59.466L40.1152 60.6161L39.3818 60.5377C39.4325 60.6223 39.4848 60.7078 39.5382 60.7917C39.5727 60.796 39.6073 60.8003 39.642 60.8045C39.7588 60.819 39.8762 60.8335 39.9932 60.8465L39.8032 61.2102L39.9627 61.455L40.2583 60.8779C40.6842 60.932 41.1052 60.9819 41.5214 61.0275L40.9344 62.1553L40.4195 62.0969C40.4306 62.1121 40.4417 62.1273 40.4529 62.1425C40.5126 62.224 40.5731 62.3065 40.6356 62.3854L40.8026 62.4066L40.7374 62.5194C40.7845 62.5827 40.8413 62.6516 40.8959 62.7178C40.9049 62.7287 40.9139 62.7396 40.9227 62.7503L41.084 62.4364C41.4986 62.4836 41.9121 62.5324 42.3257 62.5812L42.3277 62.5814L41.7545 63.6929C41.8546 63.7979 41.9566 63.901 42.0604 64.0022C42.296 64.0279 42.5312 64.0543 42.7669 64.0807C42.8998 64.0956 43.0329 64.1105 43.1663 64.1253L42.8573 64.7256C42.9226 64.781 42.9889 64.8348 43.0552 64.8885L43.4392 64.1545C43.6129 64.1741 43.7869 64.1934 43.9609 64.2127C44.2113 64.2405 44.462 64.2683 44.713 64.2971L44.1259 65.4403L43.7288 65.3925C43.8542 65.4781 43.9795 65.5637 44.1072 65.6375L44.2068 65.695C44.3124 65.6232 44.4187 65.554 44.525 65.4849C44.4746 65.4802 44.4226 65.4744 44.3715 65.4671L44.9724 64.3229L46.1398 64.4505L46.717 64.0869L47.222 63.1241L48.1088 63.2203L48.4443 63.0224C48.0801 62.9788 47.7156 62.9357 47.3508 62.8932L47.9433 61.7597C48.1246 61.7794 48.3075 61.8 48.4899 61.8205C48.7348 61.848 48.9791 61.8755 49.2181 61.9006L48.7329 62.8483L49.1215 62.6081L49.4781 61.9291L50.1382 62.0005L50.4766 61.7976C50.1852 61.7621 49.8911 61.7273 49.5987 61.6934L50.1912 60.5599L51.4643 60.6999L51.0889 61.4344L51.4713 61.2127L51.7241 60.7326L52.2032 60.788L52.3207 60.7187C52.3988 60.6753 52.4769 60.6319 52.5544 60.5859L51.8445 60.5012L52.4369 59.3677L53.71 59.5077L53.4094 60.0973L53.7935 59.8766L53.9718 59.5371C54.0465 59.5449 54.1209 59.5534 54.1957 59.5619C54.2379 59.5667 54.2803 59.5715 54.3231 59.5762L54.6811 59.3737C54.5832 59.3614 54.4854 59.3497 54.3876 59.3381C54.2898 59.3264 54.192 59.3147 54.094 59.3024L54.6882 58.1699C54.9512 58.1995 55.214 58.2281 55.4774 58.2569C55.6384 58.2744 55.7996 58.292 55.9613 58.3098L55.7086 58.8011L56.0943 58.5813L56.2252 58.3317C56.2574 58.3351 56.2893 58.3387 56.3211 58.3423C56.3775 58.3486 56.4333 58.3548 56.4895 58.3604L56.8578 58.1593L56.8558 58.1591C56.6869 58.1387 56.518 58.1183 56.3481 58.0995L56.9416 56.9644L57.1069 56.9831C57.4767 57.0248 57.8491 57.0668 58.212 57.105L57.9891 57.5449L58.3588 57.3336L58.4665 57.128C58.5415 57.136 58.6166 57.1439 58.6907 57.1535L59.0675 56.9529L58.5884 56.8976L59.1819 55.7624C59.3657 55.7831 59.5494 55.8034 59.7332 55.8236C59.9731 55.85 60.2132 55.8764 60.454 55.904L60.2316 56.3353C60.3572 56.2708 60.4821 56.2037 60.607 56.1367L60.7234 55.9356C60.7696 55.9415 60.8157 55.9464 60.8614 55.9512C60.8931 55.9546 60.9247 55.958 60.9561 55.9616L60.973 55.9515L61.3389 55.7623L60.8482 55.7002L61.4417 54.5651L62.72 54.7036L62.4791 55.1707L62.8502 54.9801C62.8852 54.8963 62.9341 54.8117 62.981 54.7304C63.0808 54.7416 63.1779 54.7534 63.276 54.7636L63.6664 54.5664C63.5567 54.5538 63.4468 54.5403 63.3366 54.5267C63.2592 54.5171 63.1817 54.5076 63.104 54.4983L63.6965 53.3648C63.8506 53.3816 64.0052 53.3989 64.1596 53.4162C64.4309 53.4466 64.7015 53.4769 64.9679 53.5038L64.6889 54.0484L65.0552 53.8661L65.2335 53.5266L65.6496 53.5722L66.0476 53.3772L65.3521 53.2943L65.9456 52.1591C66.0996 52.1758 66.2541 52.1931 66.4084 52.2104C66.6797 52.2408 66.9505 52.2711 67.217 52.2981L66.8687 52.9819L67.2285 52.8069L67.4795 52.3301L68.0892 52.3968L68.4938 52.2056L67.5998 52.0987L68.1932 50.9636C68.6228 51.014 69.0466 51.0603 69.4647 51.1026L69.0272 51.9561L69.3829 51.7921L69.7281 51.133C70.0204 51.1668 70.3121 51.1981 70.6064 51.2286L71.0062 51.0457L69.8386 50.907L70.4304 49.7709L70.5966 49.7896C70.9661 49.8313 71.3382 49.8733 71.7009 49.9115L71.1553 50.9792L71.501 50.8248L71.9652 49.9403C72.1732 49.963 72.381 49.9862 72.5887 50.0094C72.7966 50.0326 73.0045 50.0559 73.2127 50.0787L73.6436 49.8916C73.639 49.8882 73.634 49.8853 73.6287 49.883L74.2308 48.7329C74.6601 48.7787 75.0887 48.8256 75.5167 48.8736L75.3671 49.1634L75.6961 49.0303L75.7699 48.9026L75.977 48.927L76.4141 48.7524C76.3018 48.7385 76.1892 48.7253 76.077 48.7122C76.0139 48.7048 75.9509 48.6974 75.8882 48.6899L76.4903 47.5398C76.9196 47.5856 77.3482 47.6326 77.7762 47.6806L77.4262 48.3634L77.7452 48.24L78.0216 47.7116L78.9246 47.8104L79.0193 47.7766L78.9664 47.8147L79.322 47.854L79.1235 48.2438L78.7195 49.0393L77.5071 48.8901L76.9528 49.2869L76.8848 49.4047L76.465 50.2352L75.7059 50.1399L75.4509 50.3134L76.3775 50.4059L75.7621 51.6213L74.4244 51.4552L74.7952 50.7556L74.4377 50.9916L74.2166 51.4281L73.8468 51.3828L73.5914 51.5494L74.1263 51.6038L73.5118 52.8175L72.1716 52.6521L72.3232 52.3702L71.9811 52.5797L71.9571 52.6212L71.9205 52.6156L71.6646 52.7753L71.8717 52.7998L71.2599 54.0128L69.9503 53.8518L69.5811 54.0811L69.0074 55.2166L67.928 55.0823L67.6742 55.2344L68.9274 55.3629L68.7356 55.741L68.9772 55.6062L69.1046 55.3855L69.3469 55.4104L69.5689 55.2864L69.1803 55.239L69.8247 54.0271L71.1836 54.1679L71.0249 54.4811L71.2691 54.3455L71.3591 54.1896L71.5306 54.2067L71.7543 54.0837L71.4349 54.043L72.0793 52.8311L73.4365 52.9709L73.3099 53.2209L73.5593 53.0839L73.612 52.9926L73.7127 53.0021L73.9374 52.8774L73.6894 52.8471L74.3322 51.6342L75.6894 51.774L75.5949 51.9606L75.8479 51.8213L75.8604 51.7997L75.8903 51.8015L76.1149 51.6768L75.9368 51.6558L76.5822 50.4423L77.9368 50.5828L77.8697 50.6989L78.2796 50.4489L78.1706 50.4346L78.8169 49.2194L79.918 49.3352C79.9489 49.2875 79.9774 49.2382 80.0033 49.1876L78.9093 49.0515L79.2944 48.327L79.5377 47.8635L79.8422 47.8955L79.7982 47.6843L79.6415 47.6646L79.7574 47.4639L79.6807 47.1254L79.4182 47.6375C79.1316 47.602 78.8441 47.5679 78.5566 47.5338C78.4134 47.5169 78.2702 47.4999 78.1271 47.4827L78.7309 46.3336C78.991 46.3621 79.251 46.3906 79.5121 46.4174L79.4469 46.174L78.8512 46.1022L79.2177 45.4023L79.0844 45.0776L78.5654 46.0876L77.3049 45.9373L77.8909 44.8111L79.0344 44.9381C79.0058 44.842 78.9734 44.7525 78.9393 44.6621L78.0256 44.5549L78.4892 43.6677L78.5064 43.6378C78.4243 43.4621 78.3376 43.2904 78.2483 43.1193C78.2436 43.1191 78.2386 43.1191 78.2335 43.1191C78.22 43.1192 78.2059 43.1192 78.1963 43.1136L77.2003 43.0032L77.656 42.1182C77.602 42.0363 77.5469 41.956 77.4919 41.8758L77.4912 41.8748L76.9198 42.9718C76.7407 42.9519 76.5609 42.9317 76.3814 42.9115C76.1382 42.8842 75.8957 42.8569 75.6562 42.8307L76.2356 41.7007C76.4428 41.7252 76.6496 41.75 76.8565 41.7749C77.0634 41.7998 77.2702 41.8246 77.4773 41.8491C77.4497 41.8088 77.4301 41.7776 77.3921 41.7247C77.3731 41.6982 77.3534 41.6719 77.3338 41.6456C77.3141 41.6193 77.2944 41.593 77.2754 41.5666L76.3648 41.4656L76.6915 40.8268C76.6379 40.7627 76.5842 40.6985 76.5279 40.635L76.1063 41.438C75.8195 41.4054 75.5318 41.3741 75.244 41.3429C75.1008 41.3274 74.9576 41.3118 74.8145 41.2961L75.4085 40.137C75.5676 40.1513 75.7225 40.1715 75.877 40.1917C75.9737 40.2043 76.0704 40.2169 76.1678 40.228L76.1671 40.2273C76.09 40.1431 76.0129 40.0589 75.9332 39.9753C75.7976 39.9612 75.6577 39.9468 75.5161 39.9314L75.6504 39.6682L75.5044 39.511L75.2936 39.9069C75.1214 39.8871 74.9482 39.869 74.7751 39.8509L73.958 39.7641L74.5986 38.5013L74.4874 38.4371C74.4803 38.4341 74.4736 38.4302 74.4675 38.4256L73.7735 39.735L72.4027 39.5918L72.7376 38.9312L72.9278 38.5521L72.7308 38.6596L72.611 38.867L72.2374 39.5715L71.2548 39.4688L71.0425 39.5874L72.1552 39.7254L71.5156 40.929L70.1465 40.7868L70.4932 40.102L70.6187 39.8272L70.42 39.9337L70.3578 40.0415L69.964 40.781L69.0548 40.6852L68.8399 40.8045L69.8845 40.9341L69.2439 42.1394L67.8774 41.9964L68.2447 41.2683L68.3365 41.0824L68.1305 41.1979L67.7202 41.9698L66.8847 41.8854L72.9809 38.5098C73.3269 38.3246 73.7123 38.2255 74.1047 38.221C74.497 38.2164 74.8847 38.3066 75.2348 38.4837C75.2546 38.1965 75.3394 37.9999 75.493 37.9138C75.9387 37.6667 77.1324 38.2585 78.399 39.4787C78.4278 39.4366 78.466 39.4019 78.5107 39.3773L85.1024 35.8649C84.7517 35.5435 84.3051 35.3463 83.8314 35.3037C83.7758 35.6813 83.7626 36.064 83.7921 36.4446C83.5664 36.008 83.4087 35.5394 83.3244 35.0552L83.3139 34.9739L83.2792 34.9075C83.284 34.8571 83.2913 34.806 83.2994 34.7576C83.2933 34.5758 83.3126 34.3941 83.3567 34.2177C83.3751 34.1519 83.3976 34.0873 83.4241 34.0243C83.8212 32.0594 84.8764 30.2886 86.4154 29.0041C86.3438 28.8842 86.2714 28.7648 86.1988 28.6452C86.0731 28.4379 85.9471 28.2302 85.8248 28.0193C85.424 27.3366 85.0262 26.6526 84.6312 25.9675C84.6058 25.9211 84.5868 25.8714 84.5749 25.8199C83.5514 25.6428 82.595 25.1918 81.8074 24.5146C81.0198 23.8375 80.4304 22.9596 80.1019 21.9742C79.7734 20.9888 79.7181 19.9329 79.9418 18.9186C80.1655 17.9043 80.6598 16.9696 81.3723 16.2138C82.0848 15.458 82.9888 14.9094 83.9882 14.6264C84.9875 14.3433 86.0449 14.3363 87.0479 14.6062C88.0509 14.8761 88.962 15.4128 89.6844 16.1591C90.4068 16.9054 90.9134 17.8336 91.1504 18.8449L94.0585 17.2143C94.2398 15.6089 96.4091 13.3461 99.5302 11.6837C103.294 9.67797 107.024 9.30271 107.836 10.851C108.647 12.3992 106.269 15.2804 102.507 17.2871C100.534 18.336 98.5754 18.9395 97.0374 19.0514L90.9817 22.4131C91.0092 22.4462 91.0329 22.4822 91.0525 22.5204C91.0892 22.5967 91.126 22.6729 91.1627 22.7491C91.3222 23.0799 91.4815 23.4102 91.6367 23.7425C91.694 23.8636 91.7492 23.9867 91.8043 24.1096C91.8393 24.1876 91.8743 24.2655 91.9096 24.3426L94.8905 29.966L97.327 28.6693C97.5202 28.5652 97.7321 28.5005 97.9505 28.4789C98.1689 28.4572 98.3894 28.4791 98.5992 28.5433C98.8091 28.6075 99.0041 28.7126 99.173 28.8527C99.342 28.9927 99.4814 29.1649 99.5834 29.3593L100.528 31.13L128.847 16.0442L128.793 15.9422C128.203 14.8339 128.379 13.5861 129.19 13.1541L133.106 11.0742C133.918 10.6406 135.05 11.1927 135.641 12.2993L136.532 13.9708C137.122 15.0791 136.944 16.3276 136.135 16.7589L135.536 17.0765C136.26 17.0325 137.015 17.5344 137.371 18.3575L146.4 39.1202L146.599 39.0137C146.269 38.2082 145.941 37.3882 145.614 36.5538C143.057 29.9627 141.305 23.832 140.405 18.3301C139.272 11.3911 139.494 5.43124 141.08 0.5953C141.112 0.488745 141.164 0.389598 141.235 0.303718C141.305 0.217834 141.392 0.146971 141.491 0.0952992C141.589 0.0436443 141.697 0.0122256 141.808 0.00292049C141.919 -0.00638459 142.03 0.00659764 142.136 0.0411242C142.241 0.0756336 142.339 0.130981 142.423 0.203873C142.507 0.276775 142.575 0.365774 142.624 0.465565C142.673 0.56537 142.701 0.673939 142.708 0.784906C142.714 0.895872 142.698 1.00695 142.66 1.11159C141.674 4.12184 141.306 7.45327 141.375 10.9131L142.849 10.6582C142.912 9.33464 143.423 8.07179 144.3 7.07789C145.176 6.08397 146.365 5.41837 147.67 5.19079C148.975 4.96321 150.319 5.18725 151.48 5.82597C152.641 6.46471 153.55 7.47998 154.056 8.7044L160.452 7.58961C160.516 7.26363 160.676 6.96434 160.912 6.73055C161.148 6.49676 161.449 6.33929 161.775 6.27853ZM78.1323 40.661C78.1996 40.7131 78.2652 40.7642 78.3298 40.817L78.4307 40.6385C78.3941 40.525 78.3641 40.4094 78.3407 40.2924L78.2994 40.2375L77.3462 40.1297C77.5065 40.22 77.6543 40.3164 77.8126 40.4255C77.9558 40.4418 78.0964 40.4588 78.2387 40.4768L78.1323 40.661ZM77.1118 40.0032L77.4601 39.3194L77.2997 39.1604L76.91 39.9044C76.9823 39.9284 77.047 39.9658 77.1118 40.0032ZM75.7664 39.0074L75.7624 39.0604L75.7482 39.0544L75.5239 39.4735C75.5878 39.4817 75.6547 39.496 75.7233 39.5113L76.3069 38.3549C76.2621 38.3136 76.2107 38.2839 76.1642 38.2571L75.7664 39.0074ZM37.3455 59.9417C37.3549 59.9714 37.3616 60.0019 37.37 60.0333L37.3779 60.0887L37.4334 59.9925L37.3455 59.9417ZM38.7088 63.2972C38.7732 63.4118 38.8411 63.524 38.91 63.6346L38.9062 63.6412C39.3003 63.6829 39.6895 63.7329 40.1085 63.7889L39.6442 64.6889L39.8249 64.9238L40.3982 63.8235L40.5823 63.8457L40.7136 63.8596C40.6088 63.704 40.5059 63.545 40.4056 63.3853C40.3964 63.3714 40.3878 63.3563 40.3789 63.341C40.372 63.3289 40.3649 63.3165 40.3573 63.3043L40.228 63.5283C40.0196 63.5055 39.8116 63.4823 39.6035 63.459C39.3959 63.4359 39.1883 63.4127 38.9805 63.3899L39.5597 62.2642L39.7687 62.2853C39.681 62.1153 39.597 61.9429 39.5155 61.7697L39.3939 61.9804C39.3383 61.9742 39.2825 61.9679 39.2268 61.9616C38.8576 61.9199 38.4857 61.878 38.1234 61.8398L38.7117 60.6906L39.067 60.7343L38.9735 60.49C38.9241 60.4836 38.8737 60.4789 38.8234 60.4742L38.9109 60.3034C38.8985 60.2683 38.8858 60.2335 38.8733 60.1989C38.8502 60.1353 38.8273 60.0723 38.8067 60.0088L38.579 60.4415L37.4465 60.3186L37.5137 60.5432C37.8308 60.5788 38.1491 60.6151 38.4685 60.652L37.9218 61.6947C37.9726 61.8213 38.026 61.9473 38.0803 62.0716C38.4768 62.1205 38.8742 62.1678 39.2726 62.2135L38.7088 63.2972ZM41.9116 65.4096C41.8335 65.3225 41.7574 65.2321 41.6829 65.1426L41.3371 65.1133L41.4603 64.8769C41.4184 64.8252 41.3785 64.7737 41.3382 64.7215C41.32 64.6981 41.3018 64.6746 41.2833 64.6509L41.0644 65.0798C40.8573 65.0553 40.6504 65.0304 40.4436 65.0056C40.2367 64.9807 40.0298 64.9559 39.8227 64.9314C39.8818 65.0079 39.9421 65.0823 40.0029 65.1576C40.0216 65.1807 40.0403 65.2038 40.0591 65.2271L40.9343 65.3166L40.639 65.8894L40.8128 66.0826L41.2016 65.3403C41.3491 65.3538 41.4945 65.3709 41.6399 65.388C41.7369 65.3994 41.8339 65.4107 41.9315 65.4211L41.9116 65.4096ZM48.8535 66.1722L49.7364 66.2638L49.9434 66.1466L48.9269 66.0221L49.5143 64.9166L49.2457 65.0447L48.7626 66.0002L47.5093 65.8451L47.1033 66.0311L46.513 67.199L45.1625 67.0321L45.2631 66.8579L44.9907 66.9772L44.9716 67.0104L44.9248 67.0033L44.581 67.1543L44.5607 67.1625L44.8699 67.1596L44.2641 68.3584L42.9146 68.1899L43.5389 67.0128C43.599 67.0183 43.6572 67.025 43.716 67.0319C43.7373 67.0344 43.7586 67.0368 43.7802 67.0393C43.7668 67.0305 43.753 67.0225 43.7387 67.0153L43.5944 66.9165C43.5337 66.8726 43.4739 66.8271 43.4141 66.7815C42.984 66.7294 42.553 66.6781 42.1217 66.6282L42.4706 65.9624C42.4089 65.9046 42.3514 65.8471 42.2932 65.787L41.878 66.5981L41.2362 66.5218L41.4998 66.7934L41.7624 66.8212L41.6817 66.9803C41.6916 66.9904 41.7016 67.0005 41.7115 67.0105C41.757 67.0567 41.8018 67.1023 41.8484 67.1474L42.0038 66.8477C42.4414 66.8968 42.8778 66.9445 43.3127 66.9906L42.774 68.0578C42.8235 68.1063 42.8689 68.1502 42.916 68.1951C42.8372 68.1896 42.758 68.1784 42.68 68.1675C42.6717 68.1663 42.6634 68.1651 42.6552 68.164L41.7973 68.0558L41.3993 68.0096L41.4951 67.8437C41.4805 67.8385 41.465 67.8319 41.4496 67.8253C41.4226 67.8138 41.3962 67.8025 41.3767 67.7997C41.3461 67.7953 41.3195 67.78 41.293 67.7646L41.1791 67.9887C40.9571 67.9599 40.7358 67.9338 40.5145 67.9077C40.6094 68 40.7029 68.0854 40.795 68.1673C40.8871 68.1763 40.981 68.1862 41.0722 68.1969L40.999 68.3427C41.0172 68.3575 41.0346 68.373 41.0519 68.3884C41.0877 68.4204 41.1228 68.4517 41.1619 68.4743L41.3047 68.2271C41.4631 68.2478 41.6241 68.2678 41.7854 68.2834L42.2315 68.3308L42.2536 68.2197L42.4942 68.3586L42.6367 68.3723L42.608 68.4221L42.7623 68.5112L42.8293 68.395L44.1968 68.5363L43.9251 69.0719C43.9735 69.0819 44.0223 69.0894 44.0714 69.0945L44.3571 68.5537L45.3832 68.6616L45.5954 68.543L44.4393 68.3998L45.0789 67.1962L46.4463 67.3375L46.0774 68.0647L45.9328 68.3573L46.1314 68.2508L46.1985 68.1346L46.6078 67.3644L47.5576 67.4703L47.7715 67.3527L46.6861 67.2171L47.3241 66.0126L48.6906 66.1555L48.306 66.9135L48.2084 67.1094L48.4162 66.9948L48.4267 66.9766L48.8535 66.1722ZM51.1031 64.9733L51.9152 65.0573L52.1317 64.9389L51.1843 64.8211L51.6866 63.8745L51.4213 64.0045L51.019 64.8009L50.0213 64.6784L49.7117 64.8314L50.9451 64.9596L50.5447 65.7527L50.4901 65.8472L50.7041 65.7296L51.1031 64.9733ZM54.0956 63.8517L54.3105 63.7324L53.4431 63.6254L53.8855 62.7902L53.62 62.9245L53.2733 63.6092L52.4497 63.5031L52.1448 63.6479L53.1871 63.7585L52.7702 64.5841L52.9877 64.4641L53.3553 63.7738L54.0956 63.8517ZM56.2744 62.6452L56.491 62.5269L55.6813 62.431L56.0887 61.6641L55.8202 61.8034L55.5127 62.4089L54.802 62.3216L54.5143 62.4674L55.4376 62.558L55.0519 63.322L55.2729 63.1996L55.6048 62.575L56.2744 62.6452ZM58.4532 61.4387L58.6707 61.3187L57.9337 61.2272L58.3258 60.4869L58.0561 60.632L57.7641 61.2068L57.1124 61.1247L56.8359 61.2704L57.6872 61.3592L57.3345 62.0582L57.5592 61.9335L57.8544 61.3761L58.4532 61.4387ZM60.632 60.2322L60.8495 60.1122L60.1849 60.0294L60.5866 59.2724L60.3115 59.4232L60.0154 60.0089L59.3713 59.929L59.1016 60.0742L59.9367 60.1604L59.6162 60.7961L59.8444 60.669L60.104 60.1773L60.632 60.2322ZM62.8098 59.0273L63.0309 58.9049L62.4307 58.8372L62.8644 58.0169L62.5829 58.1751L62.2594 58.8157L61.5788 58.7302L61.3117 58.8747L62.1834 58.9665L61.896 59.5372L62.1252 59.4085L62.3523 58.9844L62.8098 59.0273ZM64.9903 57.8217L65.2097 57.6984L64.6898 57.6217L65.1845 56.6884L64.8964 56.8539L64.5186 57.6003L63.7543 57.5064C63.6675 57.5534 63.5814 57.6031 63.4954 57.6527L64.4397 57.7561L64.1789 58.2692L64.4133 58.139L64.6048 57.7806L64.9903 57.8217ZM67.169 56.6152L67.3901 56.4929L66.9327 56.4345L67.521 55.3274L67.221 55.5059L66.7605 56.4147L65.8634 56.3017L65.6064 56.4519L66.6854 56.5639L66.4615 57.0054L66.7012 56.8738L66.8543 56.5817L67.169 56.6152ZM147.596 41.3859C147.477 41.1121 147.359 40.8357 147.241 40.5569L147.063 40.6509L147.422 41.4802L147.596 41.3859ZM117.22 72.0748C127.267 65.9519 141.953 60.5092 148.911 58.0951L145.021 49.1529C144.868 49.4631 144.621 49.7175 144.316 49.8805L142.604 50.7923L143.037 51.6089C143.47 52.4185 143.089 53.4643 142.189 53.9441L141.805 54.1494C142.661 56.3492 142.976 57.9183 142.518 58.1629C142.295 58.2817 141.913 58.0725 141.426 57.6055C141.328 57.6845 141.222 57.7546 141.111 57.8149L120.728 68.6718C120.4 68.8488 120.028 68.9295 119.656 68.9044C119.842 69.7439 119.827 70.2906 119.571 70.428C119.108 70.674 117.968 69.5181 116.605 67.5522L116.024 67.8624C115.743 68.0124 115.43 68.0928 115.112 68.0969L117.22 72.0748ZM117.22 72.0748C116.849 72.3032 116.488 72.527 116.137 72.7463L109.286 59.8908L111.468 63.2388L113.611 67.2635C113.713 67.4507 113.852 67.6152 114.02 67.747C114.187 67.8788 114.38 67.9752 114.586 68.0301L117.22 72.0748ZM142.699 45.3371C142.944 45.3255 143.189 45.3684 143.415 45.4627L137.306 31.4449C137.153 31.7588 136.905 32.016 136.597 32.1792L133.494 33.8324L134.008 34.7928C134.438 35.6031 134.058 36.649 133.157 37.1288L132.773 37.334C133.629 39.5338 133.944 41.1029 133.487 41.3475C133.263 41.4663 132.882 41.2572 132.395 40.7902C132.297 40.8689 132.191 40.9385 132.08 40.9979L111.699 51.8574C111.37 52.0337 110.998 52.1143 110.626 52.09C110.81 52.9285 110.796 53.4752 110.539 53.6126C110.076 53.8586 108.936 52.7027 107.575 50.7352L106.993 51.0453C106.743 51.1795 106.467 51.2591 106.183 51.2791L110.389 59.2137C110.571 58.9619 110.807 58.755 111.081 58.6089L111.676 58.2884C110.823 56.0948 110.511 54.5319 110.968 54.2873C111.23 54.1554 111.693 54.4492 112.286 55.0702C112.473 54.7474 112.747 54.4838 113.077 54.31L133.46 43.4514C133.564 43.396 133.673 43.3494 133.786 43.3122C133.656 42.6092 133.691 42.1512 133.921 42.0277C134.384 41.7817 135.52 42.9331 136.878 44.8918L137.258 44.6889C138.159 44.209 139.239 44.4764 139.67 45.2868L140.285 46.443L141.998 45.5296C142.215 45.4144 142.454 45.3487 142.699 45.3371ZM129.685 17.612L129.632 17.5084L101.308 32.5871L102.321 34.4994C102.425 34.6926 102.49 34.9045 102.512 35.1229C102.533 35.3412 102.511 35.5617 102.447 35.7716C102.383 35.9814 102.278 36.1765 102.138 36.3454C101.998 36.5144 101.826 36.6538 101.631 36.7557L99.1794 38.0635L101.433 42.3136C101.604 42.0977 101.818 41.9199 102.062 41.7917L102.655 41.4702C101.802 39.2766 101.49 37.7137 101.946 37.4708C102.209 37.3372 102.672 37.6311 103.266 38.2504C103.453 37.9287 103.727 37.6659 104.056 37.4918L124.439 26.6333C124.543 26.5769 124.653 26.5306 124.766 26.495C124.635 25.791 124.67 25.333 124.9 25.2095C125.363 24.9635 126.499 26.1149 127.857 28.0736L128.237 27.8707C129.138 27.3909 130.218 27.6583 130.65 28.4696L131.187 29.4786L134.292 27.8247C134.51 27.7091 134.75 27.6434 134.996 27.6323C135.242 27.6212 135.487 27.6651 135.714 27.7607L132.54 20.4597C132.411 20.1787 132.344 19.873 132.344 19.5637C132.344 19.2543 132.411 18.9486 132.54 18.6675L132.222 18.8355C131.41 19.2717 130.278 18.7196 129.685 17.612ZM86.8981 28.0296C86.9711 28.1827 87.0441 28.3358 87.1176 28.4891C87.2213 28.4207 87.3211 28.3589 87.434 28.2935L87.0079 27.4989C86.8668 27.2341 86.8 26.9361 86.8145 26.6364C86.829 26.3367 86.9243 26.0465 87.0903 25.7966L87.0771 25.7889L87.1463 25.7227C87.2529 25.5812 87.3811 25.4574 87.5262 25.3558L90.4359 23.6996C90.4179 23.6694 90.3974 23.6398 90.3768 23.6103L90.17 23.7386L89.5029 24.1278L88.8406 24.5086L88.1671 24.8742L87.4866 25.229L86.8 25.5715L86.1056 25.9006L85.9106 25.9893C86.1703 26.5153 86.4267 27.0431 86.6799 27.5728C86.7529 27.7252 86.8255 27.8774 86.8981 28.0296ZM148.08 43.0037L153.216 54.8L153.976 54.3915C152.668 52.017 150.504 47.925 148.262 42.9073L148.08 43.0037Z" fill="#493D08"/>
<path d="M66.6694 42.0046L42.9251 55.1523L42.9809 55.1582L43.0106 55.1068L43.2591 54.9715L43.1531 55.178L44.512 55.3188L45.1564 54.1069L44.8804 54.0714L45.1041 53.9484L45.2322 53.9604L45.2992 53.8442L45.5434 53.7087L45.406 53.9811L46.7649 54.1219L47.4093 52.91L47.0642 52.8678L47.2879 52.7447L47.495 52.7692L47.5994 52.5883L47.84 52.4551L47.6667 52.7975L49.0272 52.9393L49.669 51.728L49.2557 51.6775L49.4794 51.5544L49.749 51.5818L49.8825 51.3314L50.1205 51.1989L49.9179 51.5996L51.2784 51.7414L51.9202 50.5302L51.4362 50.4719L51.6573 50.3496L51.9976 50.3846L52.1678 50.0669L52.4012 49.9385L52.1665 50.4025L53.5271 50.5442L54.1705 49.3339L53.615 49.2654L53.836 49.1431L54.2522 49.1886L54.4564 48.8043L54.6855 48.6756L54.4177 49.2046L55.7816 49.3483L56.4234 48.137L55.803 48.062L56.0215 47.9404L56.5022 47.9967L56.7404 47.5458L56.9677 47.4204L56.6677 48.0126L58.0316 48.1563L58.6724 46.9467L57.9789 46.8605L58.1974 46.7388L58.7517 46.7979L59.0257 46.2813L59.2503 46.1566L58.9173 46.8138L60.2812 46.9575L60.9237 45.7489L60.1594 45.6549L60.3778 45.5333L61.003 45.6L61.3135 45.0161L61.5337 44.8954L61.1676 45.6176L62.5324 45.7596L63.1739 44.5527L62.3464 44.4532L62.5639 44.3332L63.2608 44.4059L63.6054 43.7554L63.8229 43.6354L63.4247 44.4209L64.7886 44.5646L65.4301 43.3576L64.4938 43.213L64.7103 43.0947L65.478 43.1751L65.8583 42.4589L66.0706 42.3403L66.0198 42.4283L65.636 43.1889L67.0024 43.3319L67.6423 42.124L66.6694 42.0046Z" fill="#493D08"/>
<path d="M41.7337 57.5177L42.171 56.695L40.8291 56.5287L40.2147 57.7424L41.5436 57.8814L41.7337 57.5177Z" fill="#493D08"/>
<path d="M40.1259 57.9191L41.4372 58.081L40.8294 59.2411C40.6584 59.2227 40.487 59.2037 40.3155 59.1848C40.0525 59.1557 39.7892 59.1265 39.5263 59.0993L39.6934 58.7755L40.1259 57.9191Z" fill="#493D08"/>
<path d="M43.9669 56.3511L44.4208 55.496L43.0789 55.3296L42.4644 56.5433L43.7934 56.6823L43.9669 56.3511Z" fill="#493D08"/>
<path d="M41.0741 59.2734L42.361 59.4124L42.9631 58.2623C42.8045 58.2433 42.6458 58.2248 42.4869 58.2062C42.2144 58.1744 41.9416 58.1425 41.6693 58.1083L41.0741 59.2734Z" fill="#493D08"/>
<path d="M43.1892 60.9551L43.7752 59.829C43.3591 59.7834 42.938 59.7335 42.5121 59.6794L41.9289 60.816C42.3428 60.8603 42.7629 60.9067 43.1892 60.9551Z" fill="#493D08"/>
<path d="M42.7966 62.3631L42.7564 62.3598L42.7792 62.3243L43.3341 61.2443C43.5393 61.2686 43.7448 61.2924 43.9503 61.3162L43.9552 61.3168C44.1628 61.3408 44.3704 61.3649 44.5777 61.3894L44.0027 62.5042C43.6003 62.4577 43.1983 62.4107 42.7966 62.3631Z" fill="#493D08"/>
<path d="M47.5472 58.8058L46.999 59.8587L46.9598 59.9113L45.7114 59.7746L46.2905 58.6489L47.5472 58.8058Z" fill="#493D08"/>
<path d="M46.1247 61.5569L45.8593 61.5271C45.5669 61.4942 45.2739 61.4613 44.9813 61.4299C44.9597 61.4266 44.9384 61.4241 44.9173 61.4218L44.8989 61.4197L44.8739 61.4166L44.2903 62.5309L45.5475 62.6793L46.1247 61.5569Z" fill="#493D08"/>
<path d="M47.8361 58.8417L49.0807 58.9851L48.5063 60.1025C48.3024 60.0784 48.0983 60.0548 47.8942 60.0311L47.891 60.0308L47.8868 60.0303L47.8847 60.03C47.6773 60.006 47.4699 59.9819 47.2627 59.9575L47.8361 58.8417Z" fill="#493D08"/>
<path d="M50.7034 57.7223C50.9108 57.7463 51.1182 57.7704 51.3253 57.7948L50.7519 58.9106C50.3374 58.8634 49.9238 58.8146 49.5102 58.7658L49.5083 58.7655L50.0817 57.6498C50.2881 57.6741 50.4946 57.6981 50.7012 57.722L50.7034 57.7223Z" fill="#493D08"/>
<path d="M52.0471 56.4104L50.7917 56.263L50.2135 57.387L50.2165 57.3874L50.223 57.3881L50.2241 57.3882L50.2371 57.3897L50.2382 57.3898L50.2403 57.3901C50.6475 57.4346 51.0547 57.4792 51.4609 57.5254L52.0471 56.4104Z" fill="#493D08"/>
<path d="M49.7968 57.6067L49.2312 58.6938L49.2123 58.7227L47.9639 58.5859L48.543 57.4602C48.9655 57.5139 49.3807 57.5612 49.7968 57.6067Z" fill="#493D08"/>
<path d="M43.4658 60.9817C43.8802 61.0289 44.2955 61.0744 44.7108 61.1198L44.7133 61.1201L44.7679 61.0255L45.2995 60.0051L44.044 59.8577L43.4658 60.9817Z" fill="#493D08"/>
<path d="M47.6841 58.557L46.4248 58.4162L47.007 57.2813C47.4347 57.335 47.8563 57.3852 48.2718 57.4318L47.6841 58.557Z" fill="#493D08"/>
<path d="M45.5731 56.8759C46.0024 56.9217 46.431 56.9686 46.859 57.0166L47.4627 55.8675C47.2467 55.8412 47.0308 55.8156 46.815 55.7899C46.5992 55.7643 46.3834 55.7387 46.1674 55.7124L45.5731 56.8759Z" fill="#493D08"/>
<path d="M46.1454 58.383C45.72 58.338 45.2957 58.2914 44.8722 58.2431C45.0702 57.8618 45.2659 57.477 45.4605 57.0939C45.6023 57.111 45.7441 57.1282 45.8858 57.1455L45.8877 57.1457C46.1711 57.1802 46.4545 57.2148 46.7388 57.2478L46.1454 58.383Z" fill="#493D08"/>
<path d="M48.3948 57.1842C47.9695 57.1393 47.5451 57.0926 47.1217 57.0443L47.709 55.8968C47.9226 55.9216 48.1356 55.9473 48.3487 55.9729C48.5617 55.9986 48.7747 56.0242 48.9883 56.0491L48.3948 57.1842Z" fill="#493D08"/>
<path d="M42.6225 59.4421C43.0472 59.4882 43.4715 59.5349 43.8956 59.5821L44.4874 58.4459L43.2108 58.2929C43.0161 58.6761 42.8214 59.0592 42.6225 59.4421Z" fill="#493D08"/>
<path d="M45.3032 58.5434C45.543 58.5724 45.7819 58.6013 46.0171 58.6281L45.4294 59.7533L44.1701 59.6125L44.7524 58.4775C44.9351 58.4988 45.1186 58.521 45.3016 58.5432L45.3032 58.5434Z" fill="#493D08"/>
<path d="M43.3234 58.075L44.6093 58.2157L45.213 57.0665C44.997 57.0403 44.7811 57.0146 44.5653 56.989C44.3494 56.9634 44.1336 56.9378 43.9177 56.9115L43.3234 58.075Z" fill="#493D08"/>
<path d="M52.9569 56.5166C53.1643 56.5407 53.3717 56.5647 53.5789 56.5892L53.0055 57.7049L51.7609 57.5616L52.3353 56.4441C52.5416 56.4685 52.7482 56.4924 52.9548 56.5164L52.9569 56.5166Z" fill="#493D08"/>
<path d="M58.0769 54.1933C57.6626 54.1444 57.2484 54.0955 56.8332 54.0483L56.2599 55.164L56.2623 55.1643C56.6757 55.2131 57.0891 55.2619 57.5035 55.3091L58.0769 54.1933Z" fill="#493D08"/>
<path d="M67.793 48.0204L67.2101 49.1373L67.1377 49.1287L65.9594 48.997L66.5366 47.8746L67.793 48.0204Z" fill="#493D08"/>
<path d="M54.2967 55.2115L53.0412 55.064L52.4631 56.1881C52.6711 56.2109 52.8789 56.2341 53.0866 56.2573C53.2945 56.2805 53.5024 56.3037 53.7105 56.3265L54.2967 55.2115Z" fill="#493D08"/>
<path d="M68.0793 48.0574L69.3219 48.204L68.7485 49.3198C68.3343 49.2709 67.9201 49.222 67.5049 49.1748L68.0793 48.0574Z" fill="#493D08"/>
<path d="M64.9616 50.3344C65.0243 50.2146 65.087 50.0946 65.1497 49.9744C65.2808 49.723 65.4123 49.4712 65.5452 49.2201C65.1297 49.1735 64.7104 49.1245 64.2871 49.0734L63.7099 50.1958L64.9258 50.3314L64.9616 50.3344Z" fill="#493D08"/>
<path d="M72.7015 47.1284C72.8401 47.1438 72.9787 47.1592 73.1174 47.1744L72.5359 48.2965L71.2821 48.15L71.7962 47.1638L71.869 47.0377C72.1471 47.0669 72.4243 47.0977 72.7015 47.1284Z" fill="#493D08"/>
<path d="M64.8246 50.5984C64.4104 50.5495 63.9962 50.5006 63.581 50.4534L63.0076 51.5692C63.2131 51.5934 63.4188 51.6173 63.6245 51.6411L63.6343 51.6423C63.84 51.6661 64.0458 51.6899 64.2512 51.7142L64.8246 50.5984Z" fill="#493D08"/>
<path d="M73.8346 45.8097L73.7953 45.8778L73.2569 46.9252C72.8421 46.8775 72.4275 46.8291 72.0133 46.7802L72.5867 45.6644L73.7569 45.8025C73.763 45.8029 73.7691 45.8034 73.7753 45.804L73.7958 45.8061C73.8088 45.8075 73.8218 45.809 73.8346 45.8097Z" fill="#493D08"/>
<path d="M71.5548 47.0377L71.575 47.0028L71.5348 46.9996C71.1309 46.9507 70.7283 46.9034 70.3271 46.8576L69.7537 47.9733C69.9608 47.9978 70.1681 48.0218 70.3755 48.0458C70.5828 48.0699 70.7902 48.0939 70.9973 48.1184L71.5548 47.0377Z" fill="#493D08"/>
<path d="M70.0415 46.8233L69.4596 47.9386L69.3523 47.9253L68.2088 47.7983L68.7861 46.6759L70.0415 46.8233Z" fill="#493D08"/>
<path d="M67.0743 49.3994C66.8705 49.3753 66.6664 49.3516 66.4623 49.328L66.4525 49.3268C66.2452 49.3028 66.0378 49.2788 65.8307 49.2543L65.2573 50.3701C65.6716 50.419 66.0861 50.4673 66.501 50.5151L67.0743 49.3994Z" fill="#493D08"/>
<path d="M55.2908 53.8653L56.5463 54.0128L55.9601 55.1278L54.7126 54.9894L55.2908 53.8653Z" fill="#493D08"/>
<path d="M58.7949 52.8156L57.5394 52.6681L56.9612 53.7922C57.2392 53.8214 57.5163 53.8522 57.7935 53.8829C57.9322 53.8983 58.0709 53.9137 58.2097 53.9289L58.7949 52.8156Z" fill="#493D08"/>
<path d="M49.1085 55.8178L47.8226 55.6771L48.4169 54.5137C48.8489 54.5662 49.2793 54.6178 49.7123 54.6687L49.1085 55.8178Z" fill="#493D08"/>
<path d="M55.8283 55.3904C55.6207 55.3668 55.4133 55.3427 55.2059 55.3187C54.9986 55.2947 54.7913 55.2707 54.5838 55.247L54.0087 56.3618C54.2142 56.3861 54.4199 56.4099 54.6256 56.4338L54.6354 56.4349C54.8411 56.4588 55.0469 56.4826 55.2523 56.5069L55.8283 55.3904Z" fill="#493D08"/>
<path d="M61.335 51.6508C61.7484 51.6996 62.1618 51.7484 62.5761 51.7955L62.0018 52.913C61.7946 52.8885 61.5871 52.8645 61.3797 52.8404L61.3775 52.8402C61.171 52.8162 60.9645 52.7923 60.7581 52.7679L61.3325 51.6505L61.335 51.6508Z" fill="#493D08"/>
<path d="M60.3265 52.9943C60.1192 52.9698 59.9117 52.9457 59.7041 52.9217C59.497 52.8977 59.2898 52.8737 59.0829 52.8492L58.5086 53.9667L59.7532 54.11L60.3265 52.9943Z" fill="#493D08"/>
<path d="M62.0415 50.2654L63.2941 50.4178L62.7117 51.5262L61.4633 51.3894L62.0415 50.2654Z" fill="#493D08"/>
<path d="M61.0443 51.6169L59.7888 51.4695L59.2116 52.5919C59.626 52.639 60.0413 52.6845 60.4566 52.73L60.459 52.7303L61.0443 51.6169Z" fill="#493D08"/>
<path d="M58.9287 52.5608C58.5035 52.5129 58.0829 52.4662 57.6668 52.4207L58.2481 51.2873L59.5154 51.4372L58.9287 52.5608Z" fill="#493D08"/>
<path d="M67.3649 46.2599L68.6387 46.4024L69.2322 45.2673C69.0189 45.2425 68.8055 45.217 68.5921 45.1916L68.5905 45.1914L68.585 45.1907C68.3734 45.1655 68.1618 45.1403 67.9503 45.1157L67.3649 46.2599Z" fill="#493D08"/>
<path d="M69.0527 44.9999C68.7237 44.9642 68.3941 44.9285 68.0649 44.8942L68.6582 43.7325L69.9552 43.8884L69.3544 45.0326L69.0527 44.9999Z" fill="#493D08"/>
<path d="M66.6649 47.6255C67.0816 47.67 67.5023 47.7167 67.9268 47.7656L68.5135 46.6421L67.2452 46.4938L66.6649 47.6255Z" fill="#493D08"/>
<path d="M71.6075 43.8314L70.3147 43.6911L70.9087 42.532L72.2084 42.6872C72.0058 43.0688 71.8055 43.4502 71.6075 43.8314Z" fill="#493D08"/>
<path d="M62.8676 48.6543C63.291 48.7026 63.7159 48.7495 64.1424 48.7952L64.7349 47.6617C64.407 47.6236 64.0788 47.5839 63.7512 47.5443L63.7499 47.5441L63.454 47.5084L62.8676 48.6543Z" fill="#493D08"/>
<path d="M66.3443 46.1463C66.1684 46.1275 65.9927 46.1089 65.8171 46.0899L66.4104 44.9281C66.8422 44.9798 67.2749 45.0312 67.7084 45.0824L67.1066 46.2282C66.8523 46.2003 66.598 46.1733 66.3443 46.1463Z" fill="#493D08"/>
<path d="M63.5669 47.286L64.8571 47.427L65.4589 46.2811C65.2429 46.2549 65.0264 46.2294 64.81 46.204C64.5935 46.1786 64.377 46.1531 64.161 46.1268L63.5669 47.286Z" fill="#493D08"/>
<path d="M65.6764 48.9661C65.2519 48.9172 64.8313 48.8705 64.4145 48.826L65.0024 47.6965L66.2632 47.8426L65.6764 48.9661Z" fill="#493D08"/>
<path d="M65.1171 47.4555C65.5405 47.5038 65.9655 47.5508 66.3919 47.5964L66.9844 46.4629C66.6572 46.4249 66.3296 46.3853 66.0026 46.3458L66.0001 46.3455L65.9978 46.3452L65.7035 46.3097L65.1171 47.4555Z" fill="#493D08"/>
<path d="M70.3494 45.1408C70.1046 45.1132 69.8604 45.0858 69.6214 45.0606L70.2068 43.9164C70.634 43.9684 71.0615 44.0198 71.4893 44.0706L70.8961 45.2015C70.7149 45.1818 70.5318 45.1613 70.3494 45.1408Z" fill="#493D08"/>
<path d="M71.7094 46.7395L72.293 45.6252L71.0358 45.4768L70.4586 46.5992C70.826 46.641 71.1961 46.6821 71.5645 46.7222L71.7094 46.7395Z" fill="#493D08"/>
<path d="M75.9952 44.3205L74.9567 44.2032L75.5389 43.0837L75.9059 43.1272L75.9069 43.1273C76.2042 43.1627 76.5027 43.1983 76.797 43.2305L76.2151 44.3457L75.9952 44.3205Z" fill="#493D08"/>
<path d="M72.8428 43.9673L72.8438 43.9674L73.1379 44.0008C73.2671 43.7519 73.398 43.5032 73.5289 43.2547L73.5294 43.2536L73.5313 43.25C73.5984 43.1227 73.6654 42.9954 73.7321 42.8683C73.5553 42.8474 73.3787 42.8263 73.2022 42.8051L73.1999 42.8048L73.1969 42.8045C72.9472 42.7746 72.6978 42.7447 72.4486 42.7157L71.8632 43.8599C72.1846 43.8924 72.5147 43.93 72.8428 43.9673Z" fill="#493D08"/>
<path d="M76.6633 50.2635L77.0649 49.5065L77.2907 49.0772L78.6153 49.2159L78.0009 50.4296L76.6633 50.2635Z" fill="#493D08"/>
<path d="M68.9136 46.4283C69.1551 46.4538 69.3991 46.4813 69.6433 46.509C69.8208 46.5291 69.9985 46.5491 70.1755 46.5684L70.7622 45.4449L69.4873 45.2928L68.9136 46.4283Z" fill="#493D08"/>
<path d="M73.993 42.8992L75.2603 43.0491L74.6746 44.171C74.4534 44.1469 74.2308 44.1219 74.0089 44.0971L74.0065 44.0968C73.8075 44.0746 73.609 44.0524 73.4126 44.0309L73.993 42.8992Z" fill="#493D08"/>
<path d="M73.0108 44.2478L71.7434 44.0979L71.1631 45.2296L71.4688 45.2628C71.784 45.297 72.1012 45.3315 72.425 45.3697L73.0108 44.2478Z" fill="#493D08"/>
<path d="M72.5642 42.4924L73.1582 41.3332C73.5922 41.3862 74.0254 41.4379 74.4579 41.4885L74.2593 41.8655L74.2583 41.8674L74.2578 41.8684C74.1235 42.1233 73.9893 42.3779 73.857 42.6326L72.5642 42.4924Z" fill="#493D08"/>
<path d="M73.9605 45.5418L74.5425 44.4265C74.127 44.3798 73.7076 44.3309 73.2844 44.2798L72.7071 45.4022L72.9575 45.43C73.2302 45.4603 73.5035 45.4907 73.7764 45.5196C73.8235 45.5263 73.8701 45.5316 73.9174 45.5369L73.9605 45.5418Z" fill="#493D08"/>
<path d="M59.6417 51.1919C59.2176 51.1447 58.7933 51.0981 58.3686 51.052L58.9549 49.9061C59.221 49.937 59.4874 49.969 59.7531 50.0009L59.7551 50.0011C59.9151 50.0203 60.0749 50.0395 60.2341 50.0584L59.6417 51.1919Z" fill="#493D08"/>
<path d="M55.4171 53.6198C55.8332 53.6653 56.2533 53.7117 56.6774 53.7589L57.2641 52.6354C56.848 52.5898 56.4264 52.5396 55.9994 52.4848L55.4171 53.6198Z" fill="#493D08"/>
<path d="M54.4278 54.9577L53.1676 54.8185L53.7498 53.6835C54.1781 53.7361 54.5997 53.7863 55.0146 53.8341L54.4278 54.9577Z" fill="#493D08"/>
<path d="M52.3208 53.281L52.6948 53.3211L52.6971 53.3213C53.001 53.3538 53.3052 53.3863 53.6093 53.421L54.2104 52.2725L53.74 52.2164C53.4652 52.1837 53.1899 52.151 52.9151 52.1175L52.3208 53.281Z" fill="#493D08"/>
<path d="M55.8589 52.2223L54.5704 52.0823L55.1647 50.9188C55.3806 50.9451 55.5964 50.9707 55.8122 50.9963C56.0281 51.022 56.244 51.0476 56.46 51.0739L55.8589 52.2223Z" fill="#493D08"/>
<path d="M62.1658 50.0232L62.4114 50.0499C62.7461 50.0863 63.0833 50.123 63.4268 50.165L64.0145 49.0398L62.7462 48.8916L62.1658 50.0232Z" fill="#493D08"/>
<path d="M51.3598 54.6199C50.9294 54.5735 50.5002 54.5262 50.0722 54.4782L50.6665 53.3148C51.0976 53.369 51.5306 53.4199 51.9619 53.4698L51.3598 54.6199Z" fill="#493D08"/>
<path d="M49.3712 55.8456C49.7953 55.8928 50.2197 55.9394 50.6443 55.9855L51.2378 54.8503C50.8111 54.8001 50.3846 54.7493 49.9586 54.698L49.3712 55.8456Z" fill="#493D08"/>
<path d="M52.8929 54.7884L51.6208 54.6468L52.2081 53.4993C52.6342 53.5506 53.0606 53.6014 53.4873 53.6516L52.8929 54.7884Z" fill="#493D08"/>
<path d="M50.9207 56.0124L52.181 56.1516L52.7687 55.0264C52.5039 54.9974 52.2348 54.965 51.9651 54.9326C51.811 54.914 51.6568 54.8955 51.503 54.8775L50.9207 56.0124Z" fill="#493D08"/>
<path d="M55.1425 53.5895L53.8704 53.4479L54.4567 52.302C54.6704 52.3269 54.8835 52.3526 55.0967 52.3782C55.3096 52.4039 55.5225 52.4295 55.736 52.4543L55.1425 53.5895Z" fill="#493D08"/>
<path d="M59.0677 49.6838L60.3579 49.8248C60.4901 49.5703 60.6238 49.3167 60.7575 49.0631L60.7584 49.0615C60.8255 48.934 60.8927 48.8065 60.9597 48.679L59.6594 48.5211L59.0677 49.6838Z" fill="#493D08"/>
<path d="M61.8928 49.9941C61.4674 49.9454 61.0351 49.8971 60.618 49.8532L61.2044 48.7073C61.5332 48.7456 61.8624 48.7854 62.1909 48.8251L62.4853 48.8606L61.8928 49.9941Z" fill="#493D08"/>
<path d="M59.9163 51.2219C60.3324 51.2675 60.7531 51.3142 61.1782 51.3621L61.765 50.2385L60.4976 50.0886L59.9163 51.2219Z" fill="#493D08"/>
<path d="M62.6075 48.6259L61.319 48.4859L61.9161 47.3175L63.2093 47.4801L62.6075 48.6259Z" fill="#493D08"/>
<path d="M56.8182 50.8826L58.1084 51.0235C58.24 50.7703 58.3734 50.5172 58.5067 50.2643L58.5074 50.263L58.5093 50.2595L58.7112 49.876C58.2782 49.8252 57.8452 49.7743 57.4141 49.7201L56.8182 50.8826Z" fill="#493D08"/>
<path d="M57.3921 52.3906C56.9681 52.3434 56.5437 52.2968 56.119 52.2507L56.7063 51.1032L56.9454 51.132C57.2922 51.1739 57.6397 51.2159 57.9855 51.2555L57.3921 52.3906Z" fill="#493D08"/>
<path d="M75.3671 45.9752C74.951 45.9297 74.5352 45.8835 74.1197 45.8369L74.0239 46.0028L73.5273 46.9549C73.9408 47.0037 74.3552 47.0509 74.7697 47.098L74.7718 47.0983L75.3671 45.9752Z" fill="#493D08"/>
<path d="M49.927 57.3545C49.5036 57.3062 49.0838 57.2592 48.6677 57.2137L49.2499 56.0787C49.677 56.1335 50.0985 56.1837 50.5147 56.2293L49.927 57.3545Z" fill="#493D08"/>
<path d="M46.831 60.1843C46.6238 60.1598 46.4164 60.1358 46.209 60.1118L46.208 60.1116C46.001 60.0876 45.794 60.0637 45.5873 60.0393L45.0149 61.1534C45.4291 61.2023 45.8437 61.2506 46.2585 61.2984L46.831 60.1843Z" fill="#493D08"/>
<path d="M55.6236 58.0122C55.3539 57.9797 55.0848 57.9473 54.82 57.9183L55.4051 56.7938C55.6247 56.8178 55.8457 56.8425 56.0661 56.8671L56.0697 56.8676L56.1233 56.8735C56.3055 56.8939 56.4871 56.9142 56.667 56.9339L56.0857 58.0672C55.9324 58.0493 55.7784 58.0308 55.6247 58.0123L55.6236 58.0122Z" fill="#493D08"/>
<path d="M56.1174 55.4222L55.5345 56.5391C55.9507 56.5846 56.3649 56.6335 56.791 56.6849L57.3682 55.5625C57.0361 55.5221 56.7043 55.486 56.373 55.45L56.1174 55.4222Z" fill="#493D08"/>
<path d="M53.2926 57.7402L53.8746 56.6249L55.1263 56.7636L54.5481 57.8876L53.2926 57.7402Z" fill="#493D08"/>
<path d="M61.5677 54.3236C61.8325 54.3526 62.1015 54.385 62.371 54.4175L62.3722 54.4176C62.526 54.4361 62.68 54.4547 62.8334 54.4726L63.4157 53.3376L62.1516 53.2051L61.5677 54.3236Z" fill="#493D08"/>
<path d="M53.8346 59.2652L52.5715 59.1156L53.1556 57.9927C53.5808 58.0406 54.0014 58.0873 54.4175 58.1329L53.8346 59.2652Z" fill="#493D08"/>
<path d="M58.3693 54.227L57.7874 55.3423L59.0412 55.4888L59.6211 54.3657L59.2894 54.3286C58.983 54.2943 58.6771 54.26 58.3693 54.227Z" fill="#493D08"/>
<path d="M60.037 54.1434L60.6216 53.0274C61.0371 53.0741 61.4534 53.1205 61.8707 53.1668L61.2925 54.2908L60.037 54.1434Z" fill="#493D08"/>
<path d="M59.3191 55.5209L60.5822 55.6705L61.1662 54.5365L59.9059 54.3973L59.3191 55.5209Z" fill="#493D08"/>
<path d="M42.6228 62.6144L42.7693 62.6326L43.8762 62.754L43.298 63.878L42.0408 63.7296L42.6228 62.6144Z" fill="#493D08"/>
<path d="M45.8211 62.7112L47.0877 62.8584L47.6697 61.7278C47.2527 61.6838 46.8365 61.6383 46.4078 61.5876L45.8211 62.7112Z" fill="#493D08"/>
<path d="M51.0397 58.937L51.6217 57.8217C52.0408 57.8646 52.4578 57.9114 52.8724 57.962L52.2952 59.0844L51.0397 58.937Z" fill="#493D08"/>
<path d="M44.1582 62.7866L43.5715 63.9101L44.8398 64.0583C44.9043 63.9327 44.9685 63.8069 45.0328 63.6812C45.1614 63.4294 45.2901 63.1776 45.4202 62.9267L44.9648 62.8759C44.6957 62.8459 44.4272 62.8159 44.1582 62.7866Z" fill="#493D08"/>
<path d="M47.1586 60.2223L47.1943 60.2255C47.3697 60.2449 47.5457 60.2649 47.7215 60.285L47.7233 60.2852L47.725 60.2854C47.9416 60.3101 48.159 60.3349 48.3742 60.3582L47.797 61.4806L46.5415 61.3331L47.1235 60.2178C47.1345 60.2198 47.1465 60.2212 47.1586 60.2223Z" fill="#493D08"/>
<path d="M45.1006 64.0894C45.2756 64.1105 45.4508 64.1313 45.6261 64.1521L45.6275 64.1523C45.8786 64.1821 46.1299 64.212 46.3815 64.2427L46.9652 63.0975C46.5418 63.0492 46.1174 63.0026 45.6921 62.9576L45.1006 64.0894Z" fill="#493D08"/>
<path d="M51.5886 60.4617L50.3212 60.3119L50.908 59.1883L51.1667 59.2177C51.5016 59.2557 51.8382 59.2939 52.1689 59.3301C52.0388 59.581 51.9102 59.8328 51.7815 60.0846C51.7173 60.2103 51.653 60.3361 51.5886 60.4617Z" fill="#493D08"/>
<path d="M48.0706 61.5124C48.314 61.5391 48.5615 61.5689 48.8094 61.5988L48.8104 61.5989C48.986 61.6201 49.1618 61.6413 49.3363 61.6614L49.9183 60.5307C49.5901 60.4947 49.2561 60.4568 48.9238 60.4191L48.9214 60.4188L48.6573 60.3889L48.0706 61.5124Z" fill="#493D08"/>
<path d="M49.3722 59.0204L49.3797 59.0201C49.3894 59.0195 49.4002 59.0189 49.408 59.0235C49.8132 59.0701 50.2185 59.1153 50.6239 59.1591L50.0467 60.2815L48.7902 60.1357L49.3722 59.0204Z" fill="#493D08"/>
<path d="M57.8213 56.8071C57.9923 56.8275 58.1635 56.848 58.3337 56.8676L58.9166 55.7352C58.6749 55.7098 58.4307 55.6822 58.1863 55.6545C58.0089 55.6345 57.8315 55.6144 57.6547 55.5951L57.0696 56.7196C57.3174 56.7468 57.5694 56.7769 57.8213 56.8071Z" fill="#493D08"/>
<path d="M77.8689 47.4664L76.5939 47.3144L77.1883 46.1776L78.4571 46.3173L77.8689 47.4664Z" fill="#493D08"/>
<path d="M75.6518 46.0072L75.0658 47.1334C75.3075 47.1598 75.5519 47.1894 75.7968 47.219L75.7978 47.2191L75.799 47.2192L75.8001 47.2193C75.9755 47.2405 76.1521 47.2619 76.3272 47.282L76.9112 46.148C76.4917 46.1005 76.0719 46.0536 75.6518 46.0072Z" fill="#493D08"/>
<path d="M75.1715 48.6158C74.8926 48.5812 74.6136 48.5467 74.3415 48.518L74.9342 47.3803L75.0988 47.3988L75.1009 47.3991L75.1122 47.4004C75.4779 47.4416 75.8459 47.4831 76.2047 47.5209L75.6164 48.6701C75.4691 48.6526 75.32 48.6341 75.1715 48.6158Z" fill="#493D08"/>
<path d="M73.4024 47.206L72.8163 48.3321C73.2325 48.3777 73.6529 48.4272 74.0778 48.4808L74.6627 47.3451L73.4024 47.206Z" fill="#493D08"/>
<path d="M75.7836 45.756L76.2647 44.8347L76.3682 44.6401L77.6166 44.7768L77.0374 45.9025L75.7836 45.756Z" fill="#493D08"/>
<path d="M73.0781 49.8275L73.3708 49.8623L73.9591 48.7131C73.541 48.6708 73.1172 48.6245 72.6876 48.5741L72.0949 49.7119C72.4166 49.7487 72.7386 49.787 73.06 49.8253L73.0781 49.8275Z" fill="#493D08"/>
<path d="M78.2522 43.5418L77.7469 44.5243C77.3665 44.4787 76.9867 44.4353 76.6103 44.3923L76.5049 44.3802L77.0783 43.2645C77.2138 43.2805 77.3491 43.2962 77.4844 43.3119L77.4866 43.3122C77.7166 43.3389 77.9464 43.3655 78.1761 43.3939C78.2263 43.3986 78.2769 43.4034 78.3278 43.4107L78.2522 43.5418Z" fill="#493D08"/>
<path d="M66.9497 52.0297L66.9507 52.0299C67.0774 52.0453 67.204 52.0606 67.33 52.0757L67.9139 50.9416L66.6546 50.8008L66.0669 51.926C66.3579 51.9579 66.6542 51.9939 66.9497 52.0297Z" fill="#493D08"/>
<path d="M62.2882 52.9456L62.8701 51.8303L64.1202 51.968L63.542 53.0921L62.2882 52.9456Z" fill="#493D08"/>
<path d="M65.1196 50.6316L65.1024 50.6614L64.5377 51.7468L64.5387 51.7469C64.9536 51.7941 65.3684 51.8413 65.7822 51.8902L66.363 50.7654L65.1196 50.6316Z" fill="#493D08"/>
<path d="M64.7012 53.2286L64.7001 53.2285C64.4046 53.1926 64.1084 53.1566 63.8174 53.1247L64.405 51.9995L65.6644 52.1404L65.0804 53.2744C64.9545 53.2593 64.8279 53.244 64.7012 53.2286Z" fill="#493D08"/>
<path d="M67.3692 49.4327L67.3328 49.4957L66.7846 50.5486L68.0385 50.6951L68.6166 49.5711C68.2018 49.5233 67.786 49.4772 67.3692 49.4327Z" fill="#493D08"/>
<path d="M69.5681 48.3217L69.6227 48.2272C70.0369 48.2761 70.452 48.3247 70.868 48.3732L70.2898 49.4972L69.0365 49.3422L69.5681 48.3217Z" fill="#493D08"/>
<path d="M68.3164 50.7273C68.5342 50.752 68.7553 50.7787 68.977 50.8054C69.1779 50.8296 69.3793 50.8539 69.5795 50.8769L70.1634 49.7429L68.9041 49.6021L68.3164 50.7273Z" fill="#493D08"/>
<path d="M70.565 49.53L71.1527 48.4049C71.5734 48.4501 71.9935 48.4965 72.413 48.544L71.8291 49.678C71.6588 49.6584 71.4875 49.6379 71.3165 49.6175C71.0645 49.5873 70.8129 49.5572 70.565 49.53Z" fill="#493D08"/>
<path d="M61.8279 47.0296L61.7915 47.0927L61.5022 47.065L60.4599 46.9544L61.0715 45.7457L62.4193 45.9132L61.8279 47.0296Z" fill="#493D08"/>
<path d="M63.3247 47.261L63.9335 46.0993L63.8924 46.0944L63.8312 46.0874C63.7821 46.0818 63.7326 46.0762 63.6829 46.0697L62.6153 45.9378L62.0184 47.1174L63.3247 47.261Z" fill="#493D08"/>
<path d="M66.9204 43.5124L66.2913 44.6977L65.9225 44.6507L64.9603 44.5509L65.5709 43.3438L66.9204 43.5124Z" fill="#493D08"/>
<path d="M65.5741 46.0625L66.1829 44.9008L65.8948 44.8672L64.8631 44.7383L64.2652 45.9196C64.5662 45.9518 64.8669 45.9848 65.1668 46.0178L65.5741 46.0625Z" fill="#493D08"/>
<path d="M43.0474 61.2006L42.534 62.1895L42.4702 62.323C42.2637 62.3004 42.0575 62.2774 41.8512 62.2544L41.8463 62.2538C41.6385 62.2306 41.4308 62.2074 41.2227 62.1846L41.8009 61.0606L43.0474 61.2006Z" fill="#493D08"/>
<path d="M57.5192 49.5152L58.8239 49.6579L59.4353 48.4955C59.4002 48.4909 59.3655 48.4872 59.331 48.4835C59.3071 48.4809 59.2824 48.4783 59.2588 48.4755L58.1171 48.334L57.5484 49.4569L57.5192 49.5152Z" fill="#493D08"/>
<path d="M59.5963 48.1972L59.5417 48.2917L59.46 48.2839C59.398 48.2779 59.3369 48.2721 59.2866 48.2661L58.2135 48.1554L58.8251 46.9466L60.1729 47.1142L59.5963 48.1972Z" fill="#493D08"/>
<path d="M59.7753 48.3203L61.0816 48.4639L61.0947 48.4389C61.2931 48.0578 61.4906 47.6783 61.6914 47.3006L61.4823 47.2794L60.3782 47.1419L59.7868 48.3004L59.7753 48.3203Z" fill="#493D08"/>
<path d="M69.1633 42.3098L68.5342 43.4951L68.1336 43.4342L67.207 43.3417L67.8128 42.1429L69.1633 42.3098Z" fill="#493D08"/>
<path d="M74.5741 41.268C74.6559 41.1125 74.7369 40.957 74.818 40.8016C74.9385 40.5704 75.0593 40.3386 75.1819 40.1079C75.1398 40.1029 75.0975 40.098 75.0552 40.0931C74.9522 40.0812 74.8488 40.0692 74.7456 40.0551L73.8595 39.9461L73.2651 41.125C73.7012 41.1718 74.1376 41.2194 74.5741 41.268Z" fill="#493D08"/>
<path d="M73.6691 39.9158L73.04 41.1011L72.5641 41.0365L71.7111 40.9467L72.3186 39.7489L73.6691 39.9158Z" fill="#493D08"/>
<path d="M67.8236 44.8638L68.4341 43.703C68.4063 43.6998 68.3791 43.6969 68.3523 43.694C68.273 43.6854 68.1952 43.677 68.1077 43.6628L67.1133 43.5422L66.5163 44.7218C66.8509 44.757 67.1858 44.7938 67.5201 44.8305L67.8236 44.8638Z" fill="#493D08"/>
<path d="M72.5285 42.0739C72.4602 42.2044 72.3918 42.335 72.3231 42.4656C71.8876 42.4177 71.4513 42.3701 71.0141 42.3227L71.6111 41.1431L72.5328 41.2593C72.6658 41.2742 72.8005 41.29 72.9325 41.3065C72.7967 41.5622 72.6627 41.8179 72.5285 42.0739Z" fill="#493D08"/>
<path d="M75.0942 42.7692L75.0952 42.7693L75.3893 42.8027L75.9835 41.6702L75.4527 41.6069L75.4478 41.6063L75.445 41.606C75.1964 41.5762 74.948 41.5464 74.7 41.5176L74.1145 42.6618C74.4359 42.6943 74.7661 42.7319 75.0942 42.7692Z" fill="#493D08"/>
<path d="M71.4196 41.1144L70.7905 42.2998L70.6878 42.2882L70.6865 42.288C70.5731 42.2752 70.459 42.2622 70.3454 42.2508L69.4566 42.1579L70.0624 40.9592L71.4196 41.1144Z" fill="#493D08"/>
<path d="M57.2923 49.4905L57.366 49.3628L57.9227 48.3104L56.5766 48.1437L55.964 49.3541L57.0747 49.4689L57.2923 49.4905Z" fill="#493D08"/>
<path d="M70.6828 42.5056L70.0733 43.6647C69.9655 43.6529 69.8577 43.6406 69.7499 43.6283C69.4231 43.5911 69.0957 43.5539 68.7622 43.5293L69.3575 42.3488L70.3206 42.4624C70.3555 42.4665 70.3905 42.4704 70.4256 42.4744C70.5112 42.4841 70.5971 42.4937 70.6828 42.5056Z" fill="#493D08"/>
<path d="M64.0513 45.8954L64.0685 45.8655L64.6792 44.7159L63.3304 44.55L62.7197 45.7571L63.7195 45.8609C63.7812 45.8662 63.8479 45.8734 63.9187 45.8812L63.9199 45.8813C63.9623 45.8859 64.0061 45.8907 64.0513 45.8954Z" fill="#493D08"/>
<path d="M45.3258 56.8482L44.0228 56.7065L44.1558 56.4492L44.6243 55.5229L45.9372 55.6858L45.3258 56.8482Z" fill="#493D08"/>
<path d="M76.0192 44.7081L76.0767 44.6085L75.9624 44.5956C75.8074 44.5771 75.6521 44.5589 75.4967 44.5407L75.4941 44.5404C75.2729 44.5144 75.0515 44.4884 74.8297 44.4616L74.2554 45.579C74.4631 45.6026 74.6705 45.6266 74.8779 45.6507C75.0852 45.6747 75.2924 45.6987 75.5 45.7224L76.0192 44.7081Z" fill="#493D08"/>
<path d="M43.0763 58.0469L41.7733 57.9052L42.3757 56.72L43.6886 56.8829C43.5497 57.1443 43.4122 57.4065 43.275 57.6682L43.2741 57.6701C43.2081 57.7958 43.1422 57.9216 43.0763 58.0469Z" fill="#493D08"/>
<path d="M46.0429 55.4836L46.1989 55.1865L46.6703 54.2972L45.3274 54.1325L44.7139 55.3446L46.007 55.4806L46.0115 55.4806L46.0173 55.481L46.0275 55.4821C46.0325 55.4827 46.0376 55.4833 46.0429 55.4836Z" fill="#493D08"/>
<path d="M47.577 55.6503C47.1416 55.6024 46.7063 55.5554 46.2714 55.5092L46.3879 55.2845L46.8738 54.324L48.1867 54.4869L47.577 55.6503Z" fill="#493D08"/>
<path d="M42.2388 59.643C41.8143 59.5941 41.3885 59.5436 40.9613 59.4917L40.373 60.6409L41.6444 60.7798L42.2388 59.643Z" fill="#493D08"/>
<path d="M51.6406 53.2064C51.3509 53.1743 51.0611 53.1422 50.7705 53.1116L51.3704 51.9271L52.6211 52.0828C52.6253 52.0834 52.6299 52.0837 52.6347 52.0837L52.6453 52.0836C52.6601 52.0834 52.6754 52.0832 52.6859 52.0893L52.0752 53.2543C51.9303 53.2385 51.7855 53.2224 51.6406 53.2064Z" fill="#493D08"/>
<path d="M52.7932 51.8881L52.896 51.6909L53.4187 50.7051L52.0784 50.5397L51.4659 51.7501L52.6497 51.8761C52.6819 51.8768 52.7172 51.8804 52.7537 51.8842L52.7932 51.8881Z" fill="#493D08"/>
<path d="M53.8894 52.0092L53.8875 52.009C53.5983 51.9769 53.3091 51.9449 53.0191 51.9144L53.0841 51.7904L53.618 50.7315L54.8321 50.8816L54.9335 50.8937L54.3238 52.0571C54.179 52.0412 54.0342 52.0252 53.8894 52.0092Z" fill="#493D08"/>
<path d="M55.0411 50.6883L55.1369 50.5224L55.6751 49.5058L54.3166 49.3453L53.704 50.5557L54.8522 50.6744L55.0411 50.6883Z" fill="#493D08"/>
<path d="M49.1735 54.3808C48.9561 54.357 48.7388 54.3333 48.521 54.3103L48.6183 54.1188L49.1208 53.1258L50.4074 53.2845L50.4364 53.288L49.8266 54.4514C49.6095 54.4285 49.3928 54.4048 49.1761 54.3811L49.1735 54.3808Z" fill="#493D08"/>
<path d="M48.2972 54.2765L48.4367 54.0119L48.9236 53.0918L47.5801 52.9245L46.9682 54.1375L48.2205 54.2676C48.2446 54.2793 48.2677 54.2816 48.2972 54.2765Z" fill="#493D08"/>
<path d="M50.664 52.8555L50.542 53.0859L50.4311 53.075L49.2131 52.9469L49.8256 51.7365L51.1701 51.9022L50.664 52.8555Z" fill="#493D08"/>
<path d="M55.2695 50.7141C55.4874 50.7371 55.7047 50.7608 55.922 50.7846L55.9246 50.7849C56.1413 50.8086 56.358 50.8323 56.5752 50.8551L57.1839 49.6934C57.1547 49.6906 57.1259 49.6871 57.0966 49.6835L57.045 49.6774L55.8684 49.5312L55.2695 50.7141Z" fill="#493D08"/>
</svg>
